<svg xmlns="http://www.w3.org/2000/svg" width="80" height="80" viewBox="0 0 80 80">
  <g fill="none" fill-rule="evenodd">
    <circle cx="40" cy="40" r="40" fill="#007AC3"/>
    <g fill="#FFF" fill-rule="nonzero" transform="translate(15 15)">
      <path d="M48.4729167,25.9618056 L48.4729167,25.9618056 L45.6541667,25.9611111 C44.9829861,25.9611111 44.4392361,25.4170139 44.4392361,24.7454861 C44.4392361,24.0743056 44.9833333,23.5305556 45.6545139,23.5305556 L45.6548611,23.5305556 L48.4732639,23.53125 C49.1444444,23.53125 49.6881944,24.0756944 49.6881944,24.746875 C49.6881944,25.4177083 49.14375,25.9618056 48.4729167,25.9618056 Z"/>
      <path d="M25,49.9420139 C11.246875,49.9420139 0.0579861111,38.7527778 0.0579861111,25 C0.0579861111,11.246875 11.246875,0.0579861111 25,0.0579861111 C38.7527778,0.0579861111 49.9420139,11.246875 49.9420139,25 C49.9420139,38.7527778 38.7527778,49.9420139 25,49.9420139 Z M25,2.48854167 C12.5871528,2.48854167 2.48854167,12.5871528 2.48854167,25 C2.48854167,37.4128472 12.5871528,47.5114583 25,47.5114583 C37.4128472,47.5114583 47.5114583,37.4128472 47.5114583,25 C47.5114583,12.5871528 37.4128472,2.48854167 25,2.48854167 Z"/>
      <path d="M35.7642361 37.4204861C35.4402778 37.4204861 35.1173611 37.2920139 34.878125 37.0371528L23.7847222 25.2277778 23.7847222 10.028125C23.7847222 9.35694444 24.3288194 8.81284722 25 8.81284722 25.6711806 8.81284722 26.2152778 9.35694444 26.2152778 10.028125L26.2152778 24.2649306 36.65 35.3729167C37.109375 35.8621528 37.0857639 36.63125 36.5965278 37.090625 36.3614583 37.3111111 36.0621528 37.4204861 35.7642361 37.4204861zM25 5.30763889C24.3288194 5.30763889 23.7847222 4.76354167 23.7847222 4.09236111L23.7847222 2.68263889C23.7847222 2.01145833 24.3288194 1.46736111 25 1.46736111 25.6711806 1.46736111 26.2152778 2.01145833 26.2152778 2.68263889L26.2152778 4.09236111C26.2152778 4.76354167 25.6711806 5.30763889 25 5.30763889zM14.6743056 8.075C14.2541667 8.075 13.8458333 7.85729167 13.6204861 7.46736111L12.2107639 5.02604167C11.8753472 4.44479167 12.0743056 3.70173611 12.6555556 3.36597222 13.2368056 3.03090278 13.9798611 3.22951389 14.315625 3.81076389L15.7253472 6.25208333C16.0607639 6.83333333 15.8618056 7.57638889 15.2805556 7.91215278 15.0892361 8.02256944 14.8802083 8.075 14.6743056 8.075zM7.11180556 15.6350694C6.90555556 15.6350694 6.696875 15.5826389 6.50520833 15.4722222L4.06388889 14.0625C3.48263889 13.7267361 3.28333333 12.9836806 3.61909722 12.4024306 3.95486111 11.8211806 4.69826389 11.6222222 5.27916667 11.9576389L7.72048611 13.3673611C8.30173611 13.703125 8.50104167 14.4461806 8.16527778 15.0274306 7.940625 15.4170139 7.53194444 15.6350694 7.11180556 15.6350694zM4.34618056 25.9618056L1.52708333 25.9618056C.855902778 25.9618056.311805556 25.4177083.311805556 24.7465278.311805556 24.0753472.855902778 23.53125 1.52708333 23.53125L4.34618056 23.53125C5.01736111 23.53125 5.56145833 24.0753472 5.56145833 24.7465278 5.56145833 25.4173611 5.01736111 25.9618056 4.34618056 25.9618056zM4.67291667 37.6982639C4.25277778 37.6982639 3.84444444 37.4802083 3.61909722 37.0902778 3.28368056 36.5090278 3.48263889 35.7659722 4.06388889 35.4302083L6.50520833 34.0204861C7.08680556 33.684375 7.82986111 33.8840278 8.16527778 34.4652778 8.50069444 35.0465278 8.30173611 35.7895833 7.72048611 36.1253472L5.27916667 37.5350694C5.08784722 37.6458333 4.87916667 37.6982639 4.67291667 37.6982639zM13.2621528 46.2899306C13.0559028 46.2899306 12.8472222 46.2375 12.6555556 46.1267361 12.0743056 45.7909722 11.875 45.0479167 12.2107639 44.4666667L13.6204861 42.0253472C13.95625 41.4440972 14.6993056 41.2451389 15.2805556 41.5805556 15.8618056 41.9163194 16.0611111 42.659375 15.7253472 43.240625L14.315625 45.6819444C14.0909722 46.0722222 13.6822917 46.2899306 13.2621528 46.2899306zM25 49.434375C24.3288194 49.434375 23.7847222 48.8902778 23.7847222 48.2190972L23.7847222 45.4C23.7847222 44.7288194 24.3288194 44.1847222 25 44.1847222 25.6711806 44.1847222 26.2152778 44.7288194 26.2152778 45.4L26.2152778 48.2190972C26.2152778 48.8902778 25.6711806 49.434375 25 49.434375zM36.7375 46.2899306C36.3177083 46.2899306 35.9090278 46.071875 35.6840278 45.6819444L34.2746528 43.240625C33.9388889 42.6590278 34.1381944 41.9163194 34.7194444 41.5805556 35.3010417 41.2451389 36.04375 41.44375 36.3795139 42.0253472L37.7888889 44.4666667C38.1246528 45.0482639 37.9253472 45.7909722 37.3440972 46.1267361 37.1524306 46.2375 36.9434028 46.2899306 36.7375 46.2899306zM45.3270833 37.6982639C45.1204861 37.6982639 44.9118056 37.6458333 44.7201389 37.5347222L42.2795139 36.1246528C41.6982639 35.7888889 41.4993056 35.0458333 41.8354167 34.4645833 42.1711806 33.8833333 42.9142361 33.6840278 43.4954861 34.0204861L45.9361111 35.4305556C46.5173611 35.7663194 46.7163194 36.509375 46.3802083 37.090625 46.1555556 37.4802083 45.746875 37.6982639 45.3270833 37.6982639zM42.8878472 15.6340278C42.4677083 15.6340278 42.0590278 15.4159722 41.834375 15.0260417 41.4986111 14.4447917 41.6979167 13.7017361 42.2795139 13.3659722L44.7208333 11.9572917C45.3020833 11.621875 46.0451389 11.8211806 46.3805556 12.4027778 46.7163194 12.9840278 46.5170139 13.7270833 45.9354167 14.0628472L43.4940972 15.4715278C43.3027778 15.5815972 43.09375 15.6340278 42.8878472 15.6340278zM35.3253472 8.07430556C35.11875 8.07430556 34.9100694 8.021875 34.7184028 7.91111111 34.1371528 7.57534722 33.9381944 6.83194444 34.2743056 6.25069444L35.684375 3.81006944C36.0204861 3.22881944 36.7635417 3.03055556 37.3444444 3.365625 37.9256944 3.70138889 38.1246528 4.44479167 37.7885417 5.02604167L36.3784722 7.46666667C36.1534722 7.85625 35.7451389 8.07430556 35.3253472 8.07430556z"/>
    </g>
  </g>
</svg>
