<svg xmlns="http://www.w3.org/2000/svg" width="80" height="80" viewBox="0 0 80 80">
  <g fill="none" fill-rule="evenodd">
    <circle cx="40" cy="40" r="40" fill="#A72F8D"/>
    <path fill="#FFF" fill-rule="nonzero" d="M63.4729167,40.9618056 L63.4729167,40.9618056 L60.6541667,40.9611111 C59.9829861,40.9611111 59.4392361,40.4170139 59.4392361,39.7454861 C59.4392361,39.0743056 59.9833333,38.5305556 60.6545139,38.5305556 L60.6548611,38.5305556 L63.4732639,38.53125 C64.1444444,38.53125 64.6881944,39.0756944 64.6881944,39.746875 C64.6881944,40.4177083 64.14375,40.9618056 63.4729167,40.9618056 Z"/>
    <path fill="#FFF" fill-rule="nonzero" d="M40,64.9420139 C26.246875,64.9420139 15.0579861,53.7527778 15.0579861,40 C15.0579861,26.246875 26.246875,15.0579861 40,15.0579861 C53.7527778,15.0579861 64.9420139,26.246875 64.9420139,40 C64.9420139,53.7527778 53.7527778,64.9420139 40,64.9420139 Z M40,17.4885417 C27.5871528,17.4885417 17.4885417,27.5871528 17.4885417,40 C17.4885417,52.4128472 27.5871528,62.5114583 40,62.5114583 C52.4128472,62.5114583 62.5114583,52.4128472 62.5114583,40 C62.5114583,27.5871528 52.4128472,17.4885417 40,17.4885417 Z"/>
    <path fill="#FFF" fill-rule="nonzero" d="M50.7642361 52.4204861C50.4402778 52.4204861 50.1173611 52.2920139 49.878125 52.0371528L38.7847222 40.2277778 38.7847222 25.028125C38.7847222 24.3569444 39.3288194 23.8128472 40 23.8128472 40.6711806 23.8128472 41.2152778 24.3569444 41.2152778 25.028125L41.2152778 39.2649306 51.65 50.3729167C52.109375 50.8621528 52.0857639 51.63125 51.5965278 52.090625 51.3614583 52.3111111 51.0621528 52.4204861 50.7642361 52.4204861zM40 20.3076389C39.3288194 20.3076389 38.7847222 19.7635417 38.7847222 19.0923611L38.7847222 17.6826389C38.7847222 17.0114583 39.3288194 16.4673611 40 16.4673611 40.6711806 16.4673611 41.2152778 17.0114583 41.2152778 17.6826389L41.2152778 19.0923611C41.2152778 19.7635417 40.6711806 20.3076389 40 20.3076389zM29.6743056 23.075C29.2541667 23.075 28.8458333 22.8572917 28.6204861 22.4673611L27.2107639 20.0260417C26.8753472 19.4447917 27.0743056 18.7017361 27.6555556 18.3659722 28.2368056 18.0309028 28.9798611 18.2295139 29.315625 18.8107639L30.7253472 21.2520833C31.0607639 21.8333333 30.8618056 22.5763889 30.2805556 22.9121528 30.0892361 23.0225694 29.8802083 23.075 29.6743056 23.075zM22.1118056 30.6350694C21.9055556 30.6350694 21.696875 30.5826389 21.5052083 30.4722222L19.0638889 29.0625C18.4826389 28.7267361 18.2833333 27.9836806 18.6190972 27.4024306 18.9548611 26.8211806 19.6982639 26.6222222 20.2791667 26.9576389L22.7204861 28.3673611C23.3017361 28.703125 23.5010417 29.4461806 23.1652778 30.0274306 22.940625 30.4170139 22.5319444 30.6350694 22.1118056 30.6350694zM19.3461806 40.9618056L16.5270833 40.9618056C15.8559028 40.9618056 15.3118056 40.4177083 15.3118056 39.7465278 15.3118056 39.0753472 15.8559028 38.53125 16.5270833 38.53125L19.3461806 38.53125C20.0173611 38.53125 20.5614583 39.0753472 20.5614583 39.7465278 20.5614583 40.4173611 20.0173611 40.9618056 19.3461806 40.9618056zM19.6729167 52.6982639C19.2527778 52.6982639 18.8444444 52.4802083 18.6190972 52.0902778 18.2836806 51.5090278 18.4826389 50.7659722 19.0638889 50.4302083L21.5052083 49.0204861C22.0868056 48.684375 22.8298611 48.8840278 23.1652778 49.4652778 23.5006944 50.0465278 23.3017361 50.7895833 22.7204861 51.1253472L20.2791667 52.5350694C20.0878472 52.6458333 19.8791667 52.6982639 19.6729167 52.6982639zM28.2621528 61.2899306C28.0559028 61.2899306 27.8472222 61.2375 27.6555556 61.1267361 27.0743056 60.7909722 26.875 60.0479167 27.2107639 59.4666667L28.6204861 57.0253472C28.95625 56.4440972 29.6993056 56.2451389 30.2805556 56.5805556 30.8618056 56.9163194 31.0611111 57.659375 30.7253472 58.240625L29.315625 60.6819444C29.0909722 61.0722222 28.6822917 61.2899306 28.2621528 61.2899306zM40 64.434375C39.3288194 64.434375 38.7847222 63.8902778 38.7847222 63.2190972L38.7847222 60.4C38.7847222 59.7288194 39.3288194 59.1847222 40 59.1847222 40.6711806 59.1847222 41.2152778 59.7288194 41.2152778 60.4L41.2152778 63.2190972C41.2152778 63.8902778 40.6711806 64.434375 40 64.434375zM51.7375 61.2899306C51.3177083 61.2899306 50.9090278 61.071875 50.6840278 60.6819444L49.2746528 58.240625C48.9388889 57.6590278 49.1381944 56.9163194 49.7194444 56.5805556 50.3010417 56.2451389 51.04375 56.44375 51.3795139 57.0253472L52.7888889 59.4666667C53.1246528 60.0482639 52.9253472 60.7909722 52.3440972 61.1267361 52.1524306 61.2375 51.9434028 61.2899306 51.7375 61.2899306zM60.3270833 52.6982639C60.1204861 52.6982639 59.9118056 52.6458333 59.7201389 52.5347222L57.2795139 51.1246528C56.6982639 50.7888889 56.4993056 50.0458333 56.8354167 49.4645833 57.1711806 48.8833333 57.9142361 48.6840278 58.4954861 49.0204861L60.9361111 50.4305556C61.5173611 50.7663194 61.7163194 51.509375 61.3802083 52.090625 61.1555556 52.4802083 60.746875 52.6982639 60.3270833 52.6982639zM57.8878472 30.6340278C57.4677083 30.6340278 57.0590278 30.4159722 56.834375 30.0260417 56.4986111 29.4447917 56.6979167 28.7017361 57.2795139 28.3659722L59.7208333 26.9572917C60.3020833 26.621875 61.0451389 26.8211806 61.3805556 27.4027778 61.7163194 27.9840278 61.5170139 28.7270833 60.9354167 29.0628472L58.4940972 30.4715278C58.3027778 30.5815972 58.09375 30.6340278 57.8878472 30.6340278zM50.3253472 23.0743056C50.11875 23.0743056 49.9100694 23.021875 49.7184028 22.9111111 49.1371528 22.5753472 48.9381944 21.8319444 49.2743056 21.2506944L50.684375 18.8100694C51.0204861 18.2288194 51.7635417 18.0305556 52.3444444 18.365625 52.9256944 18.7013889 53.1246528 19.4447917 52.7885417 20.0260417L51.3784722 22.4666667C51.1534722 22.85625 50.7451389 23.0743056 50.3253472 23.0743056z"/>
  </g>
</svg>
