<svg xmlns="http://www.w3.org/2000/svg" width="60" height="60" viewBox="0 0 60 60">
  <g fill="#FFF">
    <path d="M58.1675,31.1541667 L58.1675,31.1541667 L54.785,31.1533333 C53.9795833,31.1533333 53.3270833,30.5004167 53.3270833,29.6945833 C53.3270833,28.8891667 53.98,28.2366667 54.7854167,28.2366667 L54.7858333,28.2366667 L58.1679167,28.2375 C58.9733333,28.2375 59.6258333,28.8908333 59.6258333,29.69625 C59.6258333,30.50125 58.9725,31.1541667 58.1675,31.1541667 Z"/>
    <path d="M30,59.9304167 C13.49625,59.9304167 0.0695833333,46.5033333 0.0695833333,30 C0.0695833333,13.49625 13.49625,0.0695833333 30,0.0695833333 C46.5033333,0.0695833333 59.9304167,13.49625 59.9304167,30 C59.9304167,46.5033333 46.5033333,59.9304167 30,59.9304167 Z M30,2.98625 C15.1045833,2.98625 2.98625,15.1045833 2.98625,30 C2.98625,44.8954167 15.1045833,57.01375 30,57.01375 C44.8954167,57.01375 57.01375,44.8954167 57.01375,30 C57.01375,15.1045833 44.8954167,2.98625 30,2.98625 Z"/>
    <path d="M42.9170833 44.9045833C42.5283333 44.9045833 42.1408333 44.7504167 41.85375 44.4445833L28.5416667 30.2733333 28.5416667 12.03375C28.5416667 11.2283333 29.1945833 10.5754167 30 10.5754167 30.8054167 10.5754167 31.4583333 11.2283333 31.4583333 12.03375L31.4583333 29.1179167 43.98 42.4475C44.53125 43.0345833 44.5029167 43.9575 43.9158333 44.50875 43.63375 44.7733333 43.2745833 44.9045833 42.9170833 44.9045833zM30 6.36916667C29.1945833 6.36916667 28.5416667 5.71625 28.5416667 4.91083333L28.5416667 3.21916667C28.5416667 2.41375 29.1945833 1.76083333 30 1.76083333 30.8054167 1.76083333 31.4583333 2.41375 31.4583333 3.21916667L31.4583333 4.91083333C31.4583333 5.71625 30.8054167 6.36916667 30 6.36916667zM17.6091667 9.69C17.105 9.69 16.615 9.42875 16.3445833 8.96083333L14.6529167 6.03125C14.2504167 5.33375 14.4891667 4.44208333 15.1866667 4.03916667 15.8841667 3.63708333 16.7758333 3.87541667 17.17875 4.57291667L18.8704167 7.5025C19.2729167 8.2 19.0341667 9.09166667 18.3366667 9.49458333 18.1070833 9.62708333 17.85625 9.69 17.6091667 9.69zM8.53416667 18.7620833C8.28666667 18.7620833 8.03625 18.6991667 7.80625 18.5666667L4.87666667 16.875C4.17916667 16.4720833 3.94 15.5804167 4.34291667 14.8829167 4.74583333 14.1854167 5.63791667 13.9466667 6.335 14.3491667L9.26458333 16.0408333C9.96208333 16.44375 10.20125 17.3354167 9.79833333 18.0329167 9.52875 18.5004167 9.03833333 18.7620833 8.53416667 18.7620833zM5.21541667 31.1541667L1.8325 31.1541667C1.02708333 31.1541667.374166667 30.50125.374166667 29.6958333.374166667 28.8904167 1.02708333 28.2375 1.8325 28.2375L5.21541667 28.2375C6.02083333 28.2375 6.67375 28.8904167 6.67375 29.6958333 6.67375 30.5008333 6.02083333 31.1541667 5.21541667 31.1541667zM5.6075 45.2379167C5.10333333 45.2379167 4.61333333 44.97625 4.34291667 44.5083333 3.94041667 43.8108333 4.17916667 42.9191667 4.87666667 42.51625L7.80625 40.8245833C8.50416667 40.42125 9.39583333 40.6608333 9.79833333 41.3583333 10.2008333 42.0558333 9.96208333 42.9475 9.26458333 43.3504167L6.335 45.0420833C6.10541667 45.175 5.855 45.2379167 5.6075 45.2379167zM15.9145833 55.5479167C15.6670833 55.5479167 15.4166667 55.485 15.1866667 55.3520833 14.4891667 54.9491667 14.25 54.0575 14.6529167 53.36L16.3445833 50.4304167C16.7475 49.7329167 17.6391667 49.4941667 18.3366667 49.8966667 19.0341667 50.2995833 19.2733333 51.19125 18.8704167 51.88875L17.17875 54.8183333C16.9091667 55.2866667 16.41875 55.5479167 15.9145833 55.5479167zM30 59.32125C29.1945833 59.32125 28.5416667 58.6683333 28.5416667 57.8629167L28.5416667 54.48C28.5416667 53.6745833 29.1945833 53.0216667 30 53.0216667 30.8054167 53.0216667 31.4583333 53.6745833 31.4583333 54.48L31.4583333 57.8629167C31.4583333 58.6683333 30.8054167 59.32125 30 59.32125zM44.085 55.5479167C43.58125 55.5479167 43.0908333 55.28625 42.8208333 54.8183333L41.1295833 51.88875C40.7266667 51.1908333 40.9658333 50.2995833 41.6633333 49.8966667 42.36125 49.4941667 43.2525 49.7325 43.6554167 50.4304167L45.3466667 53.36C45.7495833 54.0579167 45.5104167 54.9491667 44.8129167 55.3520833 44.5829167 55.485 44.3320833 55.5479167 44.085 55.5479167zM54.3925 45.2379167C54.1445833 45.2379167 53.8941667 45.175 53.6641667 45.0416667L50.7354167 43.3495833C50.0379167 42.9466667 49.7991667 42.055 50.2025 41.3575 50.6054167 40.66 51.4970833 40.4208333 52.1945833 40.8245833L55.1233333 42.5166667C55.8208333 42.9195833 56.0595833 43.81125 55.65625 44.50875 55.3866667 44.97625 54.89625 45.2379167 54.3925 45.2379167zM51.4654167 18.7608333C50.96125 18.7608333 50.4708333 18.4991667 50.20125 18.03125 49.7983333 17.33375 50.0375 16.4420833 50.7354167 16.0391667L53.665 14.34875C54.3625 13.94625 55.2541667 14.1854167 55.6566667 14.8833333 56.0595833 15.5808333 55.8204167 16.4725 55.1225 16.8754167L52.1929167 18.5658333C51.9633333 18.6979167 51.7125 18.7608333 51.4654167 18.7608333zM42.3904167 9.68916667C42.1425 9.68916667 41.8920833 9.62625 41.6620833 9.49333333 40.9645833 9.09041667 40.7258333 8.19833333 41.1291667 7.50083333L42.82125 4.57208333C43.2245833 3.87458333 44.11625 3.63666667 44.8133333 4.03875 45.5108333 4.44166667 45.7495833 5.33375 45.34625 6.03125L43.6541667 8.96C43.3841667 9.4275 42.8941667 9.68916667 42.3904167 9.68916667z"/>
  </g>
</svg>
