<svg xmlns="http://www.w3.org/2000/svg" width="15" height="25" viewBox="0 0 15 25">
  <path fill="#574759" d="M13.3267751,24.8095104 C13.1295529,24.8095104 12.9312195,24.7400659 12.7717751,24.5978437 L0.770108425,13.8783993 C0.376219539,13.526177 0.150108428,13.0300659 0.150108428,12.516177 C0.150108428,12.0028437 0.376219539,11.5067326 0.770108425,11.1545104 L12.7717751,0.435621484 C13.1151084,0.129510373 13.6417751,0.158399262 13.9484418,0.50228815 C14.2551084,0.845621483 14.225664,1.37228815 13.8817751,1.67895482 L1.88010842,12.3978437 C1.85121954,12.4239548 1.8167751,12.4656215 1.8167751,12.516177 C1.8167751,12.5672881 1.85121954,12.6089548 1.88066398,12.6350659 L13.8817751,23.3539548 C14.2251084,23.6606215 14.2545529,24.1872881 13.9484418,24.5306215 C13.7834418,24.7156215 13.555664,24.8095104 13.3267751,24.8095104 Z" transform="rotate(-180 7.155 12.517)"/>
</svg>
