<svg xmlns="http://www.w3.org/2000/svg" width="11" height="18" viewBox="0 0 11 18">
  <path fill="#EC1550" d="M10.15576,17.8628 C10.0137599,17.8628 9.87095999,17.8128 9.75616002,17.7104 L1.11495999,9.99239999 C0.831359991,9.73880001 0.668559991,9.38160001 0.668559991,9.01160001 C0.668559991,8.64199996 0.831359991,8.28479997 1.11495999,8.03119998 L9.75616002,0.313599991 C10.00336,0.0931999914 10.38256,0.113999992 10.6033599,0.361599992 C10.82416,0.608799991 10.8029599,0.987999992 10.55536,1.20879999 L1.91415999,8.92639996 C1.89335999,8.94520002 1.86855999,8.97519997 1.86855999,9.01160001 C1.86855999,9.0484 1.89335999,9.07840002 1.91455998,9.09720001 L10.55536,16.8148 C10.80256,17.0356 10.8237599,17.4148 10.6033599,17.662 C10.4845599,17.7952 10.3205599,17.8628 10.15576,17.8628 Z" transform="translate(-.425 -.024)"/>
</svg>
