<svg xmlns="http://www.w3.org/2000/svg" width="11" height="18" viewBox="0 0 11 18">
  <path fill="#EC1550" d="M10.1552324,17.8628475 C10.0132323,17.8628475 9.87043235,17.8128475 9.75563238,17.7104475 L1.11443235,9.9924475 C0.830832348,9.73884752 0.668032348,9.38164752 0.668032348,9.01164752 C0.668032348,8.64204747 0.830832348,8.28484748 1.11443235,8.03124749 L9.75563238,0.313647499 C10.0028324,0.0932474995 10.3820324,0.1140475 10.6028323,0.3616475 C10.8236324,0.608847499 10.8024323,0.9880475 10.5548324,1.2088475 L1.91363235,8.92644747 C1.89283235,8.94524753 1.86803235,8.97524748 1.86803235,9.01164752 C1.86803235,9.04844751 1.89283235,9.07844753 1.91403234,9.09724752 L10.5548324,16.8148475 C10.8020324,17.0356475 10.8232323,17.4148475 10.6028323,17.6620475 C10.4840323,17.7952475 10.3200323,17.8628475 10.1552324,17.8628475 Z" transform="rotate(-180 5.712 9.012)"/>
</svg>
