<svg xmlns="http://www.w3.org/2000/svg" width="15" height="25" viewBox="0 0 15 25">
  <path fill="#0F989A" d="M13.4605556,24.7761111 C13.2633333,24.7761111 13.065,24.7066667 12.9055556,24.5644444 L0.903888889,13.845 C0.51,13.4927778 0.283888889,12.9966667 0.283888889,12.4827778 C0.283888889,11.9694444 0.51,11.4733333 0.903888889,11.1211111 L12.9055556,0.402222222 C13.2488889,0.0961111111 13.7755556,0.125 14.0822222,0.468888889 C14.3888889,0.812222222 14.3594444,1.33888889 14.0155556,1.64555556 L2.01388889,12.3644444 C1.985,12.3905556 1.95055556,12.4322222 1.95055556,12.4827778 C1.95055556,12.5338889 1.985,12.5755556 2.01444444,12.6016667 L14.0155556,23.3205556 C14.3588889,23.6272222 14.3883333,24.1538889 14.0822222,24.4972222 C13.9172222,24.6822222 13.6894444,24.7761111 13.4605556,24.7761111 Z" transform="rotate(-180 7.611 12.5)"/>
</svg>
