<?xml version="1.0" encoding="utf-8"?>
<!-- Generator: Adobe Illustrator 16.0.0, SVG Export Plug-In . SVG Version: 6.00 Build 0)  -->
<!DOCTYPE svg PUBLIC "-//W3C//DTD SVG 1.1//EN" "http://www.w3.org/Graphics/SVG/1.1/DTD/svg11.dtd">
<svg version="1.1" id="EXPAND_1_" xmlns="http://www.w3.org/2000/svg" xmlns:xlink="http://www.w3.org/1999/xlink" x="0px" y="0px"
	 width="450px" height="450px" viewBox="0 0 450 450" enable-background="new 0 0 450 450" xml:space="preserve">
<g>
	<g>
		<circle fill="#CFEAEB" cx="225" cy="233.493" r="203.748"/>
	</g>
	<g>
		<defs>
			<path id="SVGID_1_" d="M429.094,233.493V8h-408v225.493c0,112.527,91.473,203.749,204,203.749
				C337.619,437.242,429.094,346.021,429.094,233.493z"/>
		</defs>
		<clipPath id="SVGID_2_">
			<use xlink:href="#SVGID_1_"  overflow="visible"/>
		</clipPath>
		<g clip-path="url(#SVGID_2_)">
			<g>
				<g>
					<path fill="#574759" d="M250.203,142.674c0,0-6.811-12.36-0.344-23.749c0.311-0.544,0.65-1.089,1.023-1.628
						c8.156-11.804-20.393,24.709-20.393,24.709S239.328,147.348,250.203,142.674"/>
				</g>
				<g>
					<path fill="#574759" d="M218.256,19.802c0,0-85.807-7.514-87.844,33.221c0,0,13.268,16.744,44.615,15.234l6.523-13.73h29.91
						l10.193,20.031l17.674,28.048l-6.117,13.356l9.42,24.322c0,0,26.604-31.668,15.729-71.067
						C258.359,69.217,257,28.481,218.256,19.802"/>
				</g>
				<g>
					<path fill="#FFFFFF" d="M125.814,209.452c0,0-7.811,9.4-21.75-10.684l4.264-26.597l20.041,13.311L125.814,209.452z"/>
				</g>
				<g>
					<path fill="#574759" d="M160.504,92.452c0,0,21.037,13.492,19.75,23.862c0,0-24.48,53.042-40.895,70.979
						c0,0-7.982,9.166-13.438,6.325c0,0-15.736-8.758-20.105-18.944c0,0,7.123-18.191,13.17-25.139c0,0,9.615-5.302,15.926-18.811
						c0,0,8.158-14.651,12.402-23.42l3.064-9.948C150.379,97.356,154.588,88.797,160.504,92.452"/>
				</g>
				<g>
					<path fill="#FFFFFF" d="M122.59,140.415c0,0,10.143,10.375,8.662,14.28c0,0-1.113,4.979-6.889,0.321l-6.129-6.796
						C118.234,148.221,113.961,138.438,122.59,140.415"/>
				</g>
				<g>
					<path fill="#FFFFFF" d="M116.221,147.81c0,0,9.223,8.637,9.92,14.338c0,0-1.113,4.981-6.891,0.323l-6.129-6.795
						C113.121,155.676,108.242,148.482,116.221,147.81"/>
				</g>
				<g>
					<path fill="#FFFFFF" d="M112.221,156.383c0,0,7.041,7.566,7.607,12.205c0,0-0.906,4.052-5.605,0.263l-4.986-5.528
						C109.236,163.322,105.73,156.932,112.221,156.383"/>
				</g>
				<g>
					<path fill="#FFFFFF" d="M126.652,142.729c0,0,1.949,1.851,4.723,2.686c0,0,3.73-0.615,2.963-3.827c0,0-3.326-3.831-2.486-5.261
						l-3.475-0.753c0,0-2.43,0.844-3.516,3.163C124.861,138.736,123.867,140.831,126.652,142.729"/>
				</g>
				<g>
					<path fill="#0F989A" d="M137.984,165.571c-0.236,0.754-1.047,1.176-1.812,0.946c-0.766-0.23-1.197-1.027-0.961-1.78
						c0.234-0.752,1.043-1.175,1.811-0.945C137.787,164.024,138.219,164.819,137.984,165.571"/>
				</g>
				<g>
					<path fill="#0F989A" d="M125.701,179.839c-0.236,0.755-1.047,1.174-1.812,0.945c-0.764-0.229-1.197-1.025-0.963-1.78
						c0.236-0.751,1.047-1.176,1.812-0.945C125.506,178.291,125.936,179.086,125.701,179.839"/>
				</g>
				<g>
					<path fill="#0F989A" d="M126.055,169.369c-0.232,0.751-1.045,1.176-1.812,0.945c-0.764-0.23-1.193-1.026-0.959-1.78
						c0.234-0.752,1.045-1.175,1.811-0.945C125.859,167.819,126.289,168.616,126.055,169.369"/>
				</g>
				<g>
					<path fill="#0F989A" d="M138.293,177.005c-0.232,0.755-1.043,1.178-1.809,0.946c-0.766-0.23-1.195-1.026-0.963-1.78
						c0.236-0.751,1.045-1.176,1.811-0.945C138.098,175.458,138.529,176.254,138.293,177.005"/>
				</g>
				<g>
					<path fill="#0F989A" d="M138.135,171.577c-0.236,0.752-1.045,1.175-1.812,0.944c-0.766-0.23-1.195-1.027-0.961-1.779
						c0.234-0.751,1.045-1.176,1.811-0.945C137.938,170.026,138.367,170.826,138.135,171.577"/>
				</g>
				<g>
					<path fill="#0F989A" d="M132.012,173.377c-0.234,0.753-1.045,1.177-1.812,0.945c-0.764-0.23-1.195-1.027-0.959-1.778
						c0.232-0.753,1.043-1.176,1.809-0.945C131.816,171.829,132.248,172.624,132.012,173.377"/>
				</g>
				<g>
					<path fill="#0F989A" d="M132.062,167.268c-0.234,0.753-1.047,1.176-1.812,0.945c-0.764-0.231-1.193-1.027-0.961-1.781
						c0.234-0.753,1.045-1.174,1.811-0.944C131.867,165.717,132.297,166.514,132.062,167.268"/>
				</g>
				<g>
					<path fill="#0F989A" d="M131.352,179.553c-0.234,0.753-1.045,1.176-1.814,0.945c-0.764-0.23-1.193-1.026-0.959-1.781
						c0.234-0.751,1.045-1.174,1.811-0.945C131.154,178.004,131.586,178.8,131.352,179.553"/>
				</g>
				<g>
					<path fill="#0F989A" d="M125.711,174.131c-0.234,0.753-1.045,1.174-1.811,0.944c-0.766-0.23-1.197-1.026-0.963-1.778
						c0.234-0.753,1.045-1.175,1.812-0.945C125.516,172.581,125.947,173.377,125.711,174.131"/>
				</g>
				<g>
					<path fill="#574759" d="M187.668,453.196l4.76-151.588l-31.947,47.412c-1.273,2.084-9.533,11.126-20.967,9.254
						c-12.59,0.338-19.473-6.908-21.855-13.929c0,0-21.072-26.787-21.072-93.489l4.758-61.438l12.916,8.013
						c11.857,8.101,18.094,8.528,18.064,9.976c-0.324,16.149,8.672,58.363,8.672,58.363l7.047,35.578
						c0,0,13.377-83.482,51.113-109.576l6.07,18.271l10.314-5.71l22.002,8.437l18.484-25.089c0,0,39.873-24.036,90.617,111.146
						c0,0,20.469,61.549,13.678,152.384L187.668,453.196z"/>
				</g>
				<g>
					<path fill="#FFFFFF" d="M236.988,118.876c0,0,6.805,37.59,31.271,78.814c0,0,7.195,5.728-2.119,17.769
						c-6.35,8.209-9.156,9.599-12.701,14.415c-2.121,2.882-6.369,4.656-9.48,6.101c-14.365,6.674-11.984,6.718-14.365,6.674
						c0,0-4.449,1.635-16.096-5.149c-3.443-2.005-3.059-4.777-4.594-7.975c-11.326-23.594-5.105-37.308-15.818-49.913
						c0,0-26.803,8.349-38.029-20.061L140.012,123.7c0,0-4.406-0.683-6.812-2.739c-3.443-2.943-5.42-8.603,0.785-13.295
						l-3.572-54.642c0,0,51.021,0.913,75.404-13.064c0,0,16.695,25.917,19.406,47.876c0,0,13.291-3.425,17.797,6.16
						c0,0,5.08,15.89-6.727,22.494L236.988,118.876z"/>
				</g>
				<g>
					<path fill="#574759" d="M192.268,99.191c0,2.755,0.91,4.988,2.029,4.988c1.123,0,2.037-2.233,2.037-4.988
						c0-2.763-0.914-4.992-2.037-4.992C193.178,94.199,192.268,96.429,192.268,99.191"/>
				</g>
				<g>
					<path fill="#574759" d="M152.307,102.183c0,2.761,0.906,4.992,2.033,4.992c1.121,0,2.031-2.231,2.031-4.992
						c0-2.756-0.91-4.988-2.031-4.988C153.213,97.194,152.307,99.427,152.307,102.183"/>
				</g>
				<g>
					<path fill="#574759" d="M144.559,61.813c0,0,19.539,5.892,56.91,10.073c0,0-12.297-8.146-17.689-12.964
						c0,0,13.352,3.146,22.594,7.826c0,0,11.766,4.815,11.766,36.928c0,0,4.576-17.019,19.814-14.888l-4.66-25.049l-25.002-28.418
						l-11.766-6.742l-62.221,12.024l-5.809,12.736C128.496,53.341,134.643,59.463,144.559,61.813"/>
				</g>
				<g>
					<polygon fill="#0F989A" points="223.133,271.814 248.098,456.536 204.662,455.201 213.498,270.89 					"/>
				</g>
				<g>
					<polygon fill="#FFFFFF" points="247.746,323.313 303.322,325.158 300.828,286.256 243.582,286.288 					"/>
				</g>
				<g>
					<path fill="#574759" d="M181.166,158.771c-1.522,0-3.161-0.242-4.91-0.814c-0.424-0.139-0.655-0.596-0.517-1.021
						c0.139-0.424,0.593-0.656,1.021-0.517c10.136,3.32,16.042-5.526,16.289-5.904c0.242-0.373,0.744-0.479,1.118-0.237
						c0.374,0.243,0.48,0.743,0.238,1.117C194.349,151.483,189.514,158.771,181.166,158.771z"/>
				</g>
				<g>
					<path fill="#0F989A" d="M226.123,266.026c0,0-9.062,0.891-13.594-1.78s-2.719-4.673-2.719-4.673l0.908-12.244
						c0,0,16.311-0.888,22.654,2.672C233.373,250.001,236.998,257.562,226.123,266.026"/>
				</g>
				<g>
					<polygon fill="#574759" points="231.85,25.811 241.365,21.137 239.326,29.149 					"/>
				</g>
				<g>
					<polygon fill="#574759" points="223.014,23.139 227.092,10.451 231.852,25.811 					"/>
				</g>
				<g>
					<path fill="#574759" d="M139.326,56.947c0,0-7.916,11.356-7.371,19.689c0,0-9.959-23.386,0.914-32.889L139.326,56.947z"/>
				</g>
				<g>
					<path fill="#574759" d="M249.875,304.588v-0.019c0.053-1.667,1.443-3.002,3.262-2.944c1.816,0.055,3.107,1.453,3.057,3.117
						l-0.002,0.021c-0.053,1.655-1.445,2.99-3.273,2.935C251.113,307.64,249.82,306.242,249.875,304.588 M254.834,304.744v-0.023
						c0.033-1.024-0.691-1.896-1.758-1.929c-1.088-0.035-1.812,0.781-1.846,1.796v0.021c-0.031,1.015,0.693,1.886,1.748,1.918
						C254.078,306.562,254.799,305.746,254.834,304.744"/>
				</g>
				<g>
					<path fill="#574759" d="M257.023,302.473c0.012-0.376,0.312-0.664,0.695-0.652c0.381,0.013,0.674,0.319,0.662,0.693
						l-0.01,0.288c0.4-0.528,0.965-0.985,1.885-0.957c1.336,0.04,2.08,0.947,2.037,2.292l-0.098,3.108
						c-0.014,0.375-0.314,0.652-0.695,0.64c-0.383-0.012-0.676-0.307-0.664-0.682l0.086-2.701c0.029-0.903-0.412-1.436-1.221-1.46
						c-0.787-0.025-1.352,0.498-1.383,1.402l-0.084,2.678c-0.012,0.375-0.326,0.652-0.707,0.64
						c-0.369-0.011-0.664-0.307-0.652-0.683L257.023,302.473z"/>
				</g>
				<g>
					<path fill="#574759" d="M265.961,308.102c-1.717-0.054-3-1.318-2.943-3.116v-0.021c0.055-1.663,1.301-2.994,2.994-2.94
						c1.885,0.058,2.766,1.607,2.725,2.953c-0.014,0.374-0.314,0.631-0.66,0.619l-3.715-0.114c0.115,0.951,0.781,1.501,1.656,1.53
						c0.574,0.016,1.029-0.169,1.42-0.465c0.104-0.075,0.193-0.116,0.354-0.11c0.301,0.01,0.531,0.247,0.521,0.557
						c-0.006,0.165-0.09,0.306-0.193,0.402C267.564,307.853,266.881,308.129,265.961,308.102 M267.418,304.693
						c-0.061-0.863-0.555-1.552-1.453-1.58c-0.83-0.026-1.434,0.586-1.586,1.485L267.418,304.693z"/>
				</g>
				<g>
					<path fill="#574759" d="M269.566,305.289l0.002-0.022c0.049-1.576,1.373-2.903,3.012-2.853c0.986,0.03,1.625,0.471,2.125,0.959
						c0.043,0.046,0.074,0.124,0.072,0.2c-0.006,0.155-0.133,0.272-0.291,0.268c-0.066-0.001-0.145-0.025-0.188-0.071
						c-0.447-0.444-0.973-0.825-1.748-0.849c-1.301-0.04-2.346,0.997-2.389,2.342v0.023c-0.045,1.355,0.963,2.467,2.277,2.509
						c0.74,0.021,1.348-0.312,1.822-0.749c0.047-0.044,0.104-0.086,0.182-0.082c0.135,0.002,0.264,0.139,0.262,0.273
						c-0.002,0.053-0.027,0.118-0.074,0.161c-0.59,0.555-1.264,0.933-2.24,0.901C270.742,308.249,269.518,306.865,269.566,305.289"
						/>
				</g>
				<g>
					<path fill="#574759" d="M275.297,306.625v-0.024c0.039-1.167,1.078-1.797,2.561-1.75c0.797,0.025,1.344,0.142,1.889,0.301
						l0.008-0.241c0.035-1.137-0.652-1.742-1.828-1.779c-0.631-0.02-1.162,0.119-1.641,0.323c-0.045,0.022-0.09,0.031-0.125,0.03
						c-0.135-0.003-0.254-0.13-0.248-0.261c0.004-0.133,0.105-0.217,0.164-0.237c0.592-0.236,1.168-0.383,1.896-0.36
						c0.777,0.022,1.387,0.252,1.787,0.673c0.369,0.386,0.555,0.911,0.533,1.605l-0.105,3.274c-0.004,0.164-0.119,0.271-0.277,0.267
						s-0.266-0.119-0.26-0.283l0.021-0.707c-0.41,0.529-1.133,1.035-2.223,1.003C276.385,308.424,275.26,307.793,275.297,306.625
						 M279.721,306.288l0.021-0.641c-0.479-0.136-1.115-0.288-1.934-0.312c-1.213-0.038-1.902,0.469-1.928,1.252v0.022
						c-0.027,0.815,0.744,1.314,1.619,1.341C278.666,307.987,279.688,307.312,279.721,306.288"/>
				</g>
				<g>
					<path fill="#574759" d="M281.271,303.047c0.002-0.153,0.121-0.271,0.275-0.267c0.158,0.005,0.277,0.119,0.273,0.283
						l-0.045,1.368c0.529-1.075,1.549-1.64,2.355-1.615c0.168,0.005,0.287,0.142,0.283,0.307c-0.008,0.154-0.123,0.283-0.301,0.288
						c-1.217,0.073-2.334,0.933-2.393,2.74l-0.068,2.071c-0.004,0.153-0.119,0.272-0.275,0.268
						c-0.158-0.004-0.277-0.118-0.271-0.283L281.271,303.047z"/>
				</g>
				<g>
					<path fill="#574759" d="M287.018,308.754c-1.502-0.048-2.768-1.266-2.711-3.02l0.002-0.021c0.051-1.632,1.26-2.896,2.809-2.848
						c1.604,0.049,2.582,1.381,2.533,2.991c-0.006,0.132-0.145,0.248-0.279,0.245l-4.486-0.14c0.057,1.402,1.051,2.251,2.172,2.285
						c0.82,0.026,1.402-0.287,1.875-0.713c0.049-0.044,0.104-0.075,0.184-0.072c0.146,0.004,0.266,0.118,0.26,0.261
						c0,0.056-0.025,0.121-0.096,0.186C288.701,308.442,288.051,308.785,287.018,308.754 M289.062,305.606
						c-0.043-1.139-0.67-2.206-1.984-2.247c-1.133-0.034-2.037,0.874-2.178,2.119L289.062,305.606z"/>
				</g>
				<g>
					<path fill="#ED1651" d="M293.551,302.456c-0.006,0.132-0.117,0.236-0.252,0.231l-1.227-0.039
						c-0.133-0.003-0.238-0.115-0.234-0.245l0.039-1.207c0.006-0.131,0.117-0.233,0.25-0.229l1.227,0.038
						c0.135,0.004,0.238,0.115,0.236,0.244L293.551,302.456z"/>
				</g>
				<g>
					<path fill="#F27022" d="M295.551,304.55c-0.004,0.131-0.117,0.235-0.25,0.23l-1.229-0.038
						c-0.131-0.004-0.238-0.114-0.234-0.246l0.039-1.206c0.004-0.131,0.119-0.234,0.25-0.229l1.229,0.037
						c0.133,0.005,0.24,0.114,0.234,0.245L295.551,304.55z"/>
				</g>
				<g>
					<path fill="#007AC3" d="M297.553,306.643c-0.004,0.132-0.117,0.235-0.25,0.231l-1.227-0.039
						c-0.135-0.003-0.24-0.114-0.236-0.244l0.037-1.206c0.006-0.131,0.119-0.234,0.252-0.23l1.227,0.037
						c0.133,0.004,0.24,0.115,0.236,0.244L297.553,306.643z"/>
				</g>
				<g>
					<path fill="#A72F8D" d="M293.291,310.573c-0.006,0.131-0.117,0.235-0.252,0.23l-1.229-0.038
						c-0.131-0.004-0.238-0.115-0.232-0.246l0.039-1.206c0.002-0.13,0.115-0.234,0.248-0.229l1.229,0.037
						c0.135,0.005,0.238,0.115,0.234,0.246L293.291,310.573z"/>
				</g>
				<g>
					<path fill="#007AC3" d="M295.422,308.608c-0.006,0.13-0.117,0.234-0.25,0.229l-1.229-0.037
						c-0.135-0.004-0.238-0.115-0.234-0.246l0.039-1.207c0.004-0.13,0.115-0.233,0.25-0.229l1.227,0.038
						c0.133,0.004,0.238,0.115,0.234,0.245L295.422,308.608z"/>
				</g>
				<g>
					<path fill="#E2DFE1" d="M277.053,281.893c0,0,0.566,5.379-0.689,7.537c0,0-2.105,0.617-4.932,0.31c0,0-1.824-4.146-1.51-7.539
						C269.922,282.2,275.168,280.042,277.053,281.893"/>
				</g>
			</g>
		</g>
	</g>
</g>
</svg>
