<?xml version="1.0" encoding="utf-8"?>
<!-- Generator: Adobe Illustrator 16.0.0, SVG Export Plug-In . SVG Version: 6.00 Build 0)  -->
<!DOCTYPE svg PUBLIC "-//W3C//DTD SVG 1.1//EN" "http://www.w3.org/Graphics/SVG/1.1/DTD/svg11.dtd">
<svg version="1.1" id="EXPAND_1_" xmlns="http://www.w3.org/2000/svg" xmlns:xlink="http://www.w3.org/1999/xlink" x="0px" y="0px"
	 width="450px" height="500px" viewBox="0 0 450 500" enable-background="new 0 0 450 500" xml:space="preserve">
<g>
	<g>
		<path fill="#EDD5E8" d="M225.002,487.025c109.072,0,197.494-88.422,197.494-197.494c0-109.076-88.422-197.496-197.494-197.496
			c-109.074,0-197.496,88.42-197.496,197.496C27.506,398.604,115.928,487.025,225.002,487.025"/>
	</g>
</g>
<g>
	<defs>
		<path id="SVGID_1_" d="M225.002,487.025c109.072,0,197.494-88.422,197.494-197.494c0-49.782,0-289.531,0-289.531H27.506
			c0,0,0,180.455,0,289.531C27.506,398.604,115.928,487.025,225.002,487.025"/>
	</defs>
	<clipPath id="SVGID_2_">
		<use xlink:href="#SVGID_1_"  overflow="visible"/>
	</clipPath>
	<g clip-path="url(#SVGID_2_)">
		<g>
			<path fill="#FFFFFF" d="M351.667,309.879c-29.145-100.091-106.088-103.406-106.088-103.406l-8.565,20.352l-20.862-8.142
				l-9.777,5.512l-2.832-6.17c-36.557,37.232-43.602,88.211-43.602,88.211l-1.967,4.804l-0.043,4.46l-0.961,6.907l-10.312,35.37
				l-2.043,9.539c10.683,1.482,21.983-5.539,23.171-7.514l0,0l-3.278,132.334l147,3l-8.823-165.857
				c0,0,18.823,99.642,18.823,141.857l42.663-14.194C367.967,381.419,351.667,309.879,351.667,309.879z"/>
		</g>
		<g>
			<path fill="#574759" d="M175.102,186.842c0,0,1.267,15.903-6.92,20.849c0,0,26.633-2.812,34.571-14.225l-8.204-9.427
				L175.102,186.842z"/>
		</g>
		<g>
			<path fill="#574759" d="M231.782,182.263c2.71-2.031,14.908,8.133,14.908,8.133s42.012,4.743,48.11-33.203
				c-12.876,6.098-20.278-10.888-20.278-10.888c-6.972-33.468-8.182-38.579-8.182-38.579c-8.039-34.293-7.506-37.003-18.973-60.986
				c-0.955-0.606-17.619-21.684-17.619-21.684c-58.248-42.625-97.09,26.646-97.09,26.646
				c-14.766,31.471,10.918,55.235,10.918,55.235l0.631-31.624c10.916,3.597,33.411,10.133,56.216,11.424
				c0,0-8.872-6.656-16.195-14.439l19.931-1.258l-2.285,10.201l16.508,93.521l9.297,23.639
				C229.19,189.911,230.7,183.074,231.782,182.263z"/>
		</g>
		<g>
			<path fill="#F0B4A7" d="M260.334,221.931c-18.468-47.584-23.847-85.721-23.847-85.721l-0.995-7.279
				c10.541-4.064,6.714-16.732,6.714-16.732c-4.273-9.251-16.875-5.945-16.875-5.945c-2.568-21.191-18.399-46.204-18.399-46.204
				c-23.118,13.489-70.63,13.188-70.63,13.188l3.285,52.351c-3.451,4.711-3.643,9.794-0.377,12.636
				c2.279,1.982,5.328,2.643,5.328,2.643l14.268,34.598c10.645,27.419,36.055,17.458,36.055,17.458
				c4.639,7.168,9.637,58.312,18.649,89.437C213.51,282.358,257.323,266.097,260.334,221.931z"/>
		</g>
		<g>
			<path fill="#574759" d="M180.423,120.86c0.197,2.651,1.219,4.738,2.277,4.658c1.062-0.079,1.766-2.293,1.566-4.945
				c-0.199-2.658-1.223-4.74-2.285-4.66C180.923,115.993,180.224,118.203,180.423,120.86"/>
		</g>
		<g>
			<path fill="#574759" d="M145.479,124.077c0,2.662,0.86,4.816,1.929,4.816c1.063,0,1.927-2.154,1.927-4.816
				c0-2.659-0.863-4.816-1.927-4.816C146.339,119.261,145.479,121.418,145.479,124.077"/>
		</g>
		<g>
			<path fill="#574759" d="M178.786,172.152c-2.87,0-6.062-0.766-9.413-2.872c-0.585-0.368-0.761-1.14-0.394-1.724
				c0.368-0.585,1.143-0.76,1.724-0.394c10.54,6.628,19.236-2.125,19.324-2.215c0.481-0.494,1.271-0.507,1.768-0.025
				c0.495,0.48,0.507,1.271,0.025,1.768C191.747,166.766,186.396,172.152,178.786,172.152z"/>
		</g>
		<g>
			<g>
				<g>
					<path fill="#574759" d="M236.118,313.235l0.004-0.023c0.121-1.823,1.672-3.238,3.627-3.107
						c1.957,0.128,3.298,1.709,3.175,3.534v0.023c-0.123,1.812-1.673,3.227-3.639,3.094
						C237.34,316.63,235.999,315.046,236.118,313.235z M241.459,313.588l0.001-0.024c0.077-1.121-0.672-2.106-1.818-2.182
						c-1.175-0.078-1.984,0.79-2.056,1.901l-0.003,0.024c-0.073,1.111,0.672,2.094,1.809,2.17
						C240.575,315.555,241.387,314.687,241.459,313.588z"/>
				</g>
				<g>
					<path fill="#574759" d="M243.907,311.182c0.028-0.414,0.361-0.718,0.772-0.69c0.414,0.027,0.716,0.374,0.688,0.783
						l-0.021,0.316c0.451-0.564,1.074-1.047,2.068-0.98c1.436,0.097,2.207,1.117,2.108,2.59l-0.226,3.406
						c-0.025,0.413-0.361,0.705-0.774,0.678c-0.409-0.027-0.716-0.361-0.688-0.773l0.197-2.961c0.066-0.988-0.393-1.59-1.262-1.646
						c-0.846-0.057-1.475,0.497-1.541,1.486l-0.197,2.936c-0.027,0.41-0.373,0.703-0.783,0.675
						c-0.398-0.025-0.705-0.361-0.677-0.771L243.907,311.182z"/>
				</g>
				<g>
					<path fill="#574759" d="M253.326,317.688c-1.848-0.125-3.185-1.559-3.054-3.527v-0.024c0.121-1.822,1.514-3.236,3.338-3.115
						c2.029,0.135,2.92,1.868,2.823,3.339c-0.023,0.413-0.361,0.684-0.733,0.659l-3.998-0.266c0.086,1.047,0.786,1.677,1.727,1.741
						c0.616,0.04,1.113-0.145,1.547-0.457c0.116-0.078,0.217-0.12,0.385-0.107c0.326,0.021,0.561,0.292,0.539,0.629
						c-0.011,0.184-0.105,0.334-0.223,0.436C255.062,317.478,254.317,317.755,253.326,317.688z M255.024,314.003
						c-0.031-0.948-0.54-1.723-1.505-1.786c-0.894-0.061-1.567,0.588-1.767,1.569L255.024,314.003z"/>
				</g>
				<g>
					<path fill="#574759" d="M257.319,314.738l0.002-0.026c0.115-1.727,1.59-3.133,3.354-3.015c1.063,0.069,1.73,0.576,2.255,1.133
						c0.045,0.05,0.074,0.139,0.068,0.222c-0.01,0.167-0.152,0.291-0.323,0.283c-0.071-0.008-0.153-0.036-0.198-0.088
						c-0.464-0.502-1.018-0.939-1.85-0.996c-1.4-0.092-2.566,1.007-2.663,2.482l-0.005,0.022c-0.098,1.485,0.945,2.745,2.361,2.837
						c0.795,0.053,1.461-0.291,1.992-0.753c0.049-0.046,0.115-0.091,0.199-0.083c0.144,0.009,0.279,0.162,0.27,0.307
						c-0.006,0.061-0.034,0.133-0.086,0.176c-0.657,0.59-1.398,0.977-2.449,0.908C258.472,318.028,257.204,316.465,257.319,314.738z
						"/>
				</g>
				<g>
					<path fill="#574759" d="M263.442,316.418l0.003-0.024c0.085-1.279,1.231-1.934,2.825-1.826
						c0.859,0.056,1.443,0.204,2.025,0.401l0.018-0.267c0.082-1.244-0.639-1.936-1.905-2.018c-0.677-0.049-1.255,0.085-1.777,0.293
						c-0.051,0.02-0.101,0.029-0.136,0.028c-0.145-0.011-0.271-0.153-0.262-0.299c0.012-0.144,0.127-0.231,0.189-0.253
						c0.646-0.236,1.275-0.373,2.057-0.324c0.834,0.055,1.484,0.33,1.903,0.805c0.383,0.439,0.563,1.021,0.513,1.781l-0.238,3.59
						c-0.012,0.18-0.141,0.292-0.309,0.28c-0.174-0.011-0.283-0.14-0.272-0.32l0.052-0.772c-0.461,0.562-1.261,1.09-2.432,1.014
						C264.549,318.431,263.358,317.698,263.442,316.418z M268.225,316.214l0.048-0.699c-0.513-0.17-1.191-0.358-2.072-0.418
						c-1.304-0.086-2.068,0.447-2.125,1.302l-0.001,0.024c-0.06,0.895,0.752,1.469,1.695,1.532
						C267.025,318.036,268.149,317.337,268.225,316.214z"/>
				</g>
				<g>
					<path fill="#574759" d="M270.017,312.716c0.015-0.167,0.143-0.295,0.312-0.281c0.171,0.01,0.294,0.139,0.28,0.322l-0.1,1.497
						c0.611-1.161,1.73-1.743,2.602-1.685c0.18,0.012,0.305,0.166,0.291,0.348c-0.01,0.168-0.145,0.306-0.334,0.303
						c-1.312,0.036-2.552,0.939-2.684,2.917l-0.147,2.271c-0.013,0.17-0.14,0.295-0.312,0.283c-0.17-0.011-0.291-0.142-0.281-0.322
						L270.017,312.716z"/>
				</g>
				<g>
					<path fill="#574759" d="M275.996,319.19c-1.62-0.105-2.933-1.491-2.806-3.414l0.001-0.022c0.118-1.788,1.469-3.13,3.136-3.021
						c1.728,0.113,2.732,1.613,2.615,3.377c-0.011,0.146-0.164,0.268-0.307,0.258l-4.834-0.32c0.01,1.543,1.048,2.509,2.256,2.588
						c0.879,0.059,1.521-0.26,2.048-0.712c0.051-0.046,0.114-0.077,0.2-0.073c0.156,0.013,0.281,0.14,0.271,0.298
						c-0.006,0.06-0.033,0.132-0.109,0.198C277.823,318.913,277.108,319.265,275.996,319.19z M278.317,315.813
						c-0.002-1.25-0.637-2.443-2.051-2.537c-1.219-0.08-2.229,0.883-2.43,2.24L278.317,315.813z"/>
				</g>
			</g>
			<g>
				<g>
					<path fill="#ED1651" d="M283.276,312.526c-0.01,0.143-0.134,0.254-0.281,0.245l-1.318-0.089
						c-0.143-0.01-0.254-0.137-0.243-0.281l0.087-1.318c0.011-0.143,0.137-0.254,0.28-0.244l1.319,0.088
						c0.145,0.01,0.254,0.137,0.243,0.279L283.276,312.526z"/>
				</g>
				<g>
					<path fill="#F27022" d="M285.354,314.896c-0.011,0.144-0.135,0.255-0.279,0.247l-1.322-0.088
						c-0.145-0.01-0.252-0.135-0.241-0.279l0.087-1.324c0.008-0.141,0.135-0.249,0.277-0.24l1.322,0.086
						c0.143,0.008,0.252,0.134,0.242,0.279L285.354,314.896z"/>
				</g>
				<g>
					<path fill="#007AC3" d="M287.431,317.269c-0.01,0.142-0.135,0.253-0.279,0.246l-1.32-0.088
						c-0.145-0.012-0.252-0.137-0.244-0.279l0.088-1.32c0.009-0.146,0.135-0.255,0.279-0.246l1.32,0.087
						c0.145,0.011,0.254,0.136,0.248,0.28L287.431,317.269z"/>
				</g>
				<g>
					<path fill="#A72F8D" d="M282.685,321.422c-0.008,0.144-0.133,0.255-0.276,0.243l-1.322-0.088
						c-0.146-0.009-0.253-0.133-0.243-0.279l0.089-1.32c0.007-0.145,0.135-0.253,0.28-0.242l1.32,0.086
						c0.142,0.008,0.254,0.134,0.24,0.279L282.685,321.422z"/>
				</g>
				<g>
					<path fill="#0F989A" d="M285.06,319.345c-0.012,0.145-0.134,0.254-0.278,0.244l-1.321-0.088
						c-0.145-0.01-0.255-0.133-0.245-0.275l0.089-1.326c0.009-0.143,0.133-0.25,0.277-0.24l1.32,0.086
						c0.145,0.01,0.254,0.137,0.244,0.279L285.06,319.345z"/>
				</g>
			</g>
		</g>
		<g>
			<polygon fill="#574759" points="234.362,322.406 286.534,326.627 286.384,341.982 235.187,335.659 			"/>
		</g>
		<g>
			<path fill="#574759" d="M282.518,391.28h-0.002c-14.684,0-41.114-7.21-41.38-7.282l-0.196-0.055l-0.103-0.176
				c-2.646-4.544-5.121-49.22-5.225-51.119l-0.028-0.507l50.872-2.039l2.082,60.59l-0.405,0.09
				C286.644,391.113,284.754,391.28,282.518,391.28z M241.61,383.09c2.522,0.681,27.046,7.19,40.905,7.19h0.002
				c1.963,0,3.64-0.131,4.992-0.391l-2.019-58.748l-48.853,1.959C237.52,349.006,239.636,378.908,241.61,383.09z"/>
		</g>
		<g>
			<path fill="#574759" d="M260.947,204.011c0,0,5.081,34.891-37.87,73.63l17.544,16.14
				C240.621,293.78,299.601,214.355,260.947,204.011z"/>
		</g>
		<g>
			<path fill="#574759" d="M212.075,277.13c0,0-8.754,6.099-18.918,12.197c0,0-4.651-43.084,7.839-68.637
				C200.996,220.69,207.452,256.579,212.075,277.13z"/>
		</g>
		<g>
			<path fill="#574759" d="M253.291,202.473c0,0,7.644,0.293,11.64,3.005l-4.67,15.676
				C260.261,221.153,254.225,211.121,253.291,202.473z"/>
		</g>
		<g>
			<circle fill="#574759" cx="215.858" cy="316.997" r="3.727"/>
		</g>
		<g>
			<circle fill="#574759" cx="221.617" cy="371.997" r="3.728"/>
		</g>
		<g>
			<circle fill="#574759" cx="227.039" cy="421.802" r="3.728"/>
		</g>
		<g>
			<g>
				<path fill="#574759" d="M148.94,133.073c-4.115,0-7.935-1.258-8.096-1.312c-5.654-1.495-5.515-16.097-5.48-17.756l0.017-0.779
					l21.781-5.025l0.341,0.738c2.807,6.08,0.697,19.077,0.605,19.627l-0.029,0.181l-0.093,0.159
					C156.402,131.632,153.274,133.073,148.94,133.073z M137.355,114.824c-0.015,5.696,1.03,14.22,4.062,15.022
					c0.096,0.03,3.742,1.227,7.523,1.227c3.542,0,5.972-1.016,7.225-3.019c0.234-1.528,1.754-12.085-0.176-17.53L137.355,114.824z"
					/>
			</g>
			<g>
				
					<rect x="143.667" y="101.102" transform="matrix(0.1774 0.9841 -0.9841 0.1774 230.5429 -51.65)" fill="#574759" width="4.999" height="21.954"/>
			</g>
		</g>
		<g>
			<g>
				<path fill="#574759" d="M184.389,128.793L184.389,128.793c-4.714,0-9.076-1.331-9.26-1.388
					c-6.651-1.559-6.167-17.982-6.09-19.85l0.031-0.762l24.193-5.582l0.365,0.658c3.503,6.307,1.479,21.255,1.391,21.889
					l-0.026,0.194l-0.1,0.171C193.093,127.222,189.558,128.793,184.389,128.793z M171.013,108.398
					c-0.156,6.453,0.93,16.207,4.64,17.078c0.108,0.031,4.334,1.316,8.736,1.316c4.305,0,7.223-1.181,8.676-3.509
					c0.22-1.72,1.673-14.058-0.854-19.776L171.013,108.398z"/>
			</g>
			<g>
				
					<rect x="178.546" y="93.085" transform="matrix(0.1774 0.9841 -0.9841 0.1774 252.6727 -91.4606)" fill="#574759" width="4.999" height="24.651"/>
			</g>
		</g>
		<g>
			<path fill="#574759" d="M157.962,113.226l-0.939-1.766c0.271-0.145,6.702-3.498,13.335-1.267l-0.637,1.896
				C163.897,110.133,158.02,113.194,157.962,113.226z"/>
		</g>
		<g>
			
				<rect x="215.224" y="80.968" transform="matrix(0.0617 0.9981 -0.9981 0.0617 308.7767 -119.0793)" fill="#574759" width="5" height="47.446"/>
		</g>
		<g>
			<path fill="#574759" d="M134.462,71.866c0,0,9.486,23.037,74.982,5.873c0,0-21.574-2.1-27.554-4.969
				c0,0,27.241,1.408,35.683,0.452l11.746,0.901c0,0-5.872-4.516,0-7.227l-24.845-13.1l-30.715,1.356c0,0-20.325,0.451-21.682,1.806
				C150.724,58.315,134.462,71.866,134.462,71.866z"/>
		</g>
		<g>
			<path fill="#574759" d="M223.312,431.11l-53.273-140.1c0,0-1.709-2.434-6.719-1.684l-74.439,1.584c0,0-7.594-2.287-0.801,14.321
				l0.257,0.079l-0.069,0.405l46.34,124.286l76.82,7.083l0.016,0.026c0,0,2.83,0.781,5.727,0.504l0.721,0.066l-0.057-0.156
				C220.641,437.086,223.312,435.522,223.312,431.11z"/>
		</g>
		<g>
			<g>
				<path fill="#F0B4A7" d="M104.626,371.3c0,0,17.859-4.376,21.248-0.265c0,0,4.811,4.398-3.979,7.696l-11.378,2.308
					C110.517,381.039,97.003,379.413,104.626,371.3z"/>
			</g>
			<g>
				<path fill="#F0B4A7" d="M108.793,382.964c0,0,15.361-4.492,22.108-1.592c0,0,4.812,4.402-3.976,7.691l-11.38,2.309
					C115.546,391.372,104.516,392.069,108.793,382.964z"/>
			</g>
			<g>
				<path fill="#F0B4A7" d="M115.763,392.806c0,0,12.805-2.805,18.297-0.451c0,0,3.91,3.585-3.244,6.268l-9.259,1.869
					C121.557,400.491,112.282,400.212,115.763,392.806z"/>
			</g>
			<g>
				<path fill="#F0B4A7" d="M109.737,368.371c0,0,3.281-0.937,5.95-3.415c0,0,1.665-4.453-2.37-5.671c0,0-6.336,1.156-7.385-0.673
					l-3.021,3.294c0,0-0.602,3.187,1.287,5.851C104.198,367.757,105.888,370.179,109.737,368.371z"/>
			</g>
		</g>
	</g>
</g>
</svg>
