<svg xmlns="http://www.w3.org/2000/svg" xmlns:xlink="http://www.w3.org/1999/xlink" width="3000" height="1200" viewBox="0 0 3000 1200">
  <defs>
    <path id="header-a" d="M3636.311,0.472 C5644.54482,0.472 7272.54,1628.46718 7272.54,3636.701 C7272.54,5388.63738 6033.56877,6851.19653 4384.02997,7195.97477 L4384,7273 L2884,7273 L2883.97796,7195.00722 C1236.74335,6848.46828 0.082,5387.00351 0.082,3636.701 C0.082,1628.46718 1628.07718,0.472 3636.311,0.472 Z"/>
    <circle id="header-c" cx="3636.311" cy="3636.701" r="3636.229"/>
    <circle id="header-e" cx="3636.311" cy="3636.701" r="3636.229"/>
    <circle id="header-g" cx="3636.311" cy="3636.701" r="3636.229"/>
  </defs>
  <g fill="none" fill-rule="evenodd" transform="translate(-2137 -6073)">
    <mask id="header-b" fill="#fff">
      <use xlink:href="#header-a"/>
    </mask>
    <g fill="#0F989A" fill-rule="nonzero" mask="url(#header-b)">
      <circle cx="3636.311" cy="3636.701" r="3636.229"/>
    </g>
    <g mask="url(#header-b)">
      <mask id="header-d" fill="#fff">
        <use xlink:href="#header-c"/>
      </mask>
      <g mask="url(#header-d)">
        <g transform="translate(3857 6724)">
          <path fill="#D5D1D5" fill-rule="nonzero" d="M231.682,473.076 L238,528.5 L87,551.5 L86.334,490.675 C135,501.154 231.682,473.076 231.682,473.076 Z"/>
          <path fill="#FFF" fill-rule="nonzero" d="M234.49,497.717 L228.576,445.828 L218.291,318.166 C218.291,318.166 238.02,427.785 238.02,470 C238.02,470 274.5,485 281,470 C287.5,455 267.273,298.766 267.273,298.766 C238.128,198.675 161.185,195.36 161.185,195.36 L152.62,215.712 L131.758,207.571 L121.981,213.082 L119.149,206.912 C82.592,244.144 75.547,295.123 75.547,295.123 L73.58,299.927 L73.537,304.388 L72.576,311.294 L62.264,346.665 L60.221,356.204 C70.904,357.686 82.204,350.665 83.392,348.689 L83.392,348.689 L85.645,445.829 L86.333,518.675 C130.002,534 234.49,497.717 234.49,497.717 Z"/>
          <path fill="#574759" fill-rule="nonzero" d="M90.708 175.729C90.708 175.729 91.975 191.633 83.788 196.579 83.788 196.579 110.421 193.767 118.359 182.354L110.155 172.926 90.708 175.729zM147.389 171.15C150.099 169.118 162.297 179.282 162.297 179.282 162.297 179.282 204.309 184.025 210.407 146.079 197.531 152.178 190.129 135.191 190.129 135.191 183.157 101.723 181.947 96.612 181.947 96.612 173.908 62.32 174.441 59.609 162.974 35.627 162.019 35.02 145.355 13.943 145.355 13.943 87.107-28.682 48.265 40.589 48.265 40.589 33.499 72.06 59.183 95.823 59.183 95.823L59.814 64.2C70.73 67.796 93.225 74.333 116.03 75.623 116.03 75.623 107.158 68.968 99.835 61.185L119.766 59.926 117.481 70.128 133.989 163.649 143.286 187.288C144.797 178.799 146.307 171.961 147.389 171.15z"/>
          <path fill="#F0B4A7" fill-rule="nonzero" d="M175.94,210.818 C157.472,163.234 152.093,125.097 152.093,125.097 L151.098,117.818 C161.639,113.754 157.812,101.086 157.812,101.086 C153.539,91.834 140.937,95.141 140.937,95.141 C138.369,73.95 122.538,48.936 122.538,48.936 C99.42,62.425 51.908,62.125 51.908,62.125 L55.193,114.475 C51.742,119.186 51.55,124.27 54.816,127.111 C57.095,129.093 60.144,129.755 60.144,129.755 L74.412,164.353 C85.057,191.771 110.467,181.81 110.467,181.81 C115.106,188.978 120.104,240.122 129.116,271.248 C129.116,271.248 172.93,254.984 175.94,210.818 Z"/>
          <path fill="#574759" fill-rule="nonzero" d="M96.029 109.747C96.226 112.398 97.248 114.485 98.306 114.406 99.368 114.326 100.072 112.112 99.872 109.46 99.673 106.803 98.649 104.721 97.587 104.801 96.529 104.881 95.83 107.09 96.029 109.747M61.085 112.964C61.085 115.626 61.945 117.78 63.014 117.78 64.077 117.78 64.941 115.626 64.941 112.964 64.941 110.305 64.078 108.149 63.014 108.149 61.945 108.148 61.085 110.305 61.085 112.964M94.394 161.04C91.523 161.04 88.332 160.274 84.98 158.167 84.395 157.799 84.219 157.027 84.586 156.443 84.955 155.858 85.729 155.682 86.31 156.049 96.853 162.68 105.546 153.925 105.634 153.835 106.115 153.342 106.906 153.327 107.402 153.81 107.897 154.29 107.909 155.081 107.427 155.578 107.354 155.653 102.003 161.04 94.394 161.04z"/>
          <g transform="translate(151 298)">
            <path fill="#574759" fill-rule="nonzero" d="M.725 4.122L.729 4.099C.85 2.276 2.401.862 4.356.992 6.313 1.12 7.654 2.702 7.531 4.526L7.531 4.549C7.408 6.361 5.858 7.776 3.892 7.643 1.946 7.518.605 5.934.725 4.122zM6.065 4.475L6.066 4.452C6.143 3.33 5.394 2.345 4.248 2.269 3.073 2.191 2.264 3.059 2.192 4.17L2.189 4.194C2.116 5.306 2.861 6.289 3.998 6.364 5.182 6.441 5.993 5.573 6.065 4.475zM8.514 2.068C8.542 1.654 8.875 1.351 9.286 1.378 9.7 1.405 10.002 1.752 9.974 2.162L9.953 2.478C10.404 1.913 11.027 1.43 12.021 1.498 13.457 1.594 14.228 2.614 14.129 4.088L13.903 7.494C13.878 7.906 13.542 8.199 13.129 8.172 12.72 8.145 12.413 7.81 12.441 7.399L12.638 4.438C12.704 3.45 12.245 2.847 11.376 2.791 10.53 2.735 9.901 3.288 9.835 4.278L9.638 7.213C9.611 7.623 9.265 7.916 8.855 7.888 8.457 7.863 8.15 7.527 8.178 7.118L8.514 2.068zM17.933 8.575C16.085 8.451 14.748 7.017 14.879 5.049L14.879 5.024C15 3.202 16.393 1.788 18.217 1.909 20.246 2.044 21.137 3.777 21.04 5.249 21.017 5.661 20.679 5.932 20.307 5.907L16.309 5.641C16.395 6.688 17.095 7.319 18.036 7.383 18.652 7.422 19.149 7.237 19.583 6.926 19.699 6.848 19.8 6.805 19.968 6.819 20.294 6.84 20.529 7.11 20.507 7.448 20.496 7.631 20.402 7.782 20.284 7.884 19.668 8.364 18.924 8.642 17.933 8.575zM19.631 4.89C19.6 3.942 19.091 3.168 18.126 3.104 17.232 3.043 16.559 3.692 16.359 4.674L19.631 4.89zM21.926 5.625L21.928 5.599C22.043 3.872 23.518 2.466 25.282 2.584 26.345 2.653 27.012 3.16 27.537 3.717 27.582 3.768 27.611 3.856 27.605 3.94 27.595 4.106 27.453 4.231 27.282 4.223 27.211 4.215 27.129 4.186 27.084 4.135 26.62 3.633 26.066 3.195 25.234 3.139 23.834 3.047 22.668 4.145 22.571 5.621L22.566 5.642C22.468 7.128 23.511 8.388 24.927 8.479 25.722 8.533 26.388 8.189 26.919 7.726 26.968 7.681 27.034 7.635 27.118 7.644 27.262 7.652 27.397 7.806 27.388 7.951 27.382 8.012 27.354 8.084 27.302 8.127 26.645 8.717 25.904 9.104 24.853 9.035 23.078 8.915 21.811 7.352 21.926 5.625zM28.049 7.305L28.052 7.282C28.137 6.003 29.283 5.347 30.877 5.456 31.736 5.511 32.32 5.659 32.902 5.856L32.92 5.59C33.002 4.345 32.281 3.654 31.015 3.572 30.338 3.523 29.76 3.656 29.238 3.864 29.187 3.885 29.137 3.894 29.102 3.892 28.957 3.882 28.831 3.74 28.84 3.593 28.852 3.45 28.967 3.363 29.029 3.341 29.675 3.105 30.304 2.968 31.086 3.017 31.92 3.072 32.57 3.346 32.989 3.822 33.372 4.261 33.552 4.843 33.502 5.603L33.264 9.192C33.252 9.373 33.123 9.484 32.955 9.472 32.781 9.462 32.672 9.333 32.683 9.152L32.735 8.38C32.274 8.942 31.474 9.471 30.303 9.395 29.155 9.318 27.965 8.586 28.049 7.305zM32.831 7.102L32.879 6.403C32.366 6.233 31.688 6.044 30.807 5.985 29.503 5.899 28.739 6.431 28.682 7.286L28.681 7.31C28.621 8.206 29.433 8.779 30.376 8.842 31.632 8.924 32.756 8.224 32.831 7.102zM34.623 3.604C34.638 3.436 34.766 3.308 34.935 3.323 35.106 3.332 35.229 3.461 35.215 3.644L35.115 5.141C35.726 3.981 36.845 3.399 37.717 3.456 37.897 3.469 38.022 3.622 38.008 3.805 37.998 3.973 37.863 4.11 37.674 4.108 36.362 4.143 35.122 5.046 34.99 7.024L34.843 9.295C34.83 9.465 34.703 9.59 34.531 9.578 34.361 9.566 34.24 9.435 34.25 9.256L34.623 3.604zM40.603 10.078C38.983 9.973 37.67 8.586 37.797 6.664L37.798 6.641C37.916 4.854 39.267 3.512 40.934 3.621 42.662 3.734 43.666 5.234 43.549 6.998 43.538 7.143 43.385 7.266 43.242 7.256L38.408 6.936C38.418 8.479 39.456 9.444 40.664 9.524 41.543 9.582 42.185 9.263 42.712 8.811 42.763 8.765 42.826 8.735 42.912 8.739 43.068 8.751 43.193 8.878 43.183 9.036 43.177 9.097 43.15 9.169 43.074 9.235 42.43 9.801 41.715 10.152 40.603 10.078zM42.924 6.701C42.922 5.451 42.287 4.257 40.873 4.164 39.654 4.084 38.644 5.047 38.443 6.404L42.924 6.701z"/>
            <g fill-rule="nonzero" transform="translate(45 1)">
              <path fill="#ED1651" d="M2.883,2.414 C2.873,2.557 2.749,2.668 2.602,2.658 L1.284,2.57 C1.141,2.56 1.03,2.433 1.041,2.289 L1.128,0.971 C1.139,0.827 1.265,0.716 1.408,0.727 L2.727,0.814 C2.872,0.824 2.981,0.952 2.97,1.093 L2.883,2.414 Z"/>
              <path fill="#F27022" d="M4.961,4.783 C4.95,4.927 4.826,5.039 4.682,5.03 L3.36,4.942 C3.215,4.932 3.108,4.807 3.119,4.664 L3.206,3.34 C3.214,3.198 3.341,3.09 3.483,3.099 L4.805,3.186 C4.948,3.194 5.057,3.319 5.047,3.465 L4.961,4.783 Z"/>
              <path fill="#007AC3" d="M7.037,7.156 C7.027,7.297 6.902,7.408 6.758,7.402 L5.438,7.314 C5.293,7.302 5.186,7.176 5.194,7.035 L5.282,5.714 C5.291,5.568 5.417,5.459 5.561,5.469 L6.881,5.555 C7.026,5.566 7.135,5.692 7.129,5.835 L7.037,7.156 Z"/>
              <path fill="#A72F8D" d="M2.291,11.309 C2.283,11.454 2.158,11.564 2.015,11.552 L0.693,11.464 C0.547,11.455 0.44,11.331 0.45,11.186 L0.539,9.866 C0.546,9.721 0.674,9.612 0.819,9.623 L2.139,9.709 C2.281,9.718 2.393,9.843 2.379,9.989 L2.291,11.309 Z"/>
              <path fill="#0F989A" d="M4.666,9.232 C4.654,9.376 4.532,9.486 4.388,9.476 L3.067,9.387 C2.922,9.378 2.812,9.254 2.822,9.112 L2.911,7.787 C2.92,7.644 3.044,7.537 3.188,7.546 L4.508,7.633 C4.653,7.642 4.762,7.77 4.752,7.911 L4.666,9.232 Z"/>
            </g>
          </g>
          <polygon fill="#574759" fill-rule="nonzero" points="149.969 311.293 202.141 315.514 201.99 330.869 150.793 324.546"/>
          <path fill="#574759" fill-rule="nonzero" d="M198.124 380.167C198.123 380.167 198.122 380.167 198.122 380.167 183.438 380.167 157.008 372.957 156.742 372.885L156.546 372.83 156.443 372.654C153.797 368.11 151.322 323.434 151.218 321.535L151.19 321.028 202.062 318.989 204.144 379.579 203.739 379.669C202.25 380 200.36 380.167 198.124 380.167zM157.217 371.977C159.739 372.658 184.263 379.167 198.122 379.167 198.122 379.167 198.123 379.167 198.124 379.167 200.087 379.167 201.764 379.036 203.116 378.776L201.097 320.028 152.244 321.987C153.126 337.893 155.242 367.795 157.217 371.977zM176.554 192.897C176.554 192.897 181.635 227.789 138.684 266.527L156.228 282.668C156.228 282.668 215.207 203.242 176.554 192.897zM127.682 266.018C127.682 266.018 118.928 272.116 108.764 278.214 108.764 278.214 104.113 235.13 116.603 209.577 116.603 209.577 123.059 245.466 127.682 266.018z"/>
          <path fill="#574759" fill-rule="nonzero" d="M168.897 191.359C168.897 191.359 176.541 191.652 180.537 194.365L175.867 210.04C175.867 210.04 169.831 200.008 168.897 191.359zM135.191 305.885C135.191 307.943 133.521 309.611 131.464 309.611 129.406 309.611 127.737 307.943 127.737 305.885 127.737 303.824 129.406 302.156 131.464 302.156 133.521 302.156 135.191 303.824 135.191 305.885z"/>
          <circle cx="137.224" cy="360.885" r="3.728" fill="#574759" fill-rule="nonzero"/>
          <circle cx="142.646" cy="410.689" r="3.728" fill="#574759" fill-rule="nonzero"/>
          <g transform="translate(50 96)">
            <path fill="#574759" fill-rule="nonzero" d="M14.547,25.961 C10.432,25.961 6.612,24.703 6.451,24.649 C0.797,23.154 0.936,8.552 0.971,6.892 L0.988,6.113 L22.769,1.088 L23.11,1.826 C25.917,7.907 23.807,20.904 23.715,21.454 L23.686,21.635 L23.593,21.794 C22.009,24.52 18.881,25.961 14.547,25.961 Z M2.96184113,7.711 C2.947,13.408 3.992,21.932 7.024,22.734 C7.12,22.764 10.766,23.961 14.547,23.961 C18.089,23.961 20.519,22.945 21.772,20.942 C22.006,19.414 23.526,8.857 21.596,3.411 L2.96184113,7.711 Z"/>
            <rect width="4.999" height="21.952" x="9.309" y="-6.051" fill="#574759" fill-rule="nonzero" transform="rotate(79.781 11.808 4.925)"/>
          </g>
          <g transform="translate(84 89)">
            <path fill="#574759" fill-rule="nonzero" d="M15.994,28.68 C15.994,28.68 15.994,28.68 15.994,28.68 C11.281,28.68 6.919,27.35 6.735,27.293 C0.084,25.734 0.568,9.311 0.645,7.443 L0.676,6.681 L24.869,1.098 L25.234,1.756 C28.737,8.064 26.713,23.011 26.625,23.645 L26.599,23.839 L26.499,24.01 C24.699,27.108 21.164,28.68 15.994,28.68 Z M2.619,8.286 C2.463,14.739 3.549,24.493 7.259,25.364 C7.367,25.395 11.592,26.679 15.993,26.679 C20.299,26.679 23.217,25.499 24.671,23.17 C24.891,21.451 26.344,9.113 23.817,3.394 L2.619,8.286 Z"/>
            <rect width="4.999" height="24.651" x="10.188" y="-7.07" fill="#574759" fill-rule="nonzero" transform="rotate(79.781 12.687 5.255)"/>
          </g>
          <path fill="#574759" fill-rule="nonzero" d="M73.568,102.112 L72.629,100.346 C72.9,100.201 79.331,96.848 85.964,99.079 L85.327,100.975 C79.502,99.019 73.626,102.082 73.568,102.112 Z"/>
          <rect width="5" height="47.446" x="130.805" y="69.859" fill="#574759" fill-rule="nonzero" transform="rotate(86.463 133.305 93.582)"/>
          <path fill="#574759" fill-rule="nonzero" d="M50.068 60.754C50.068 60.754 59.554 83.79 125.05 66.626 125.05 66.626 103.476 64.527 97.496 61.657 97.496 61.657 124.737 63.066 133.179 62.109L144.925 63.011C144.925 63.011 139.053 58.494 144.925 55.784L120.08 42.684 89.365 44.039C89.365 44.039 69.04 44.49 67.683 45.846 66.33 47.203 50.068 60.754 50.068 60.754zM138.918 419.997L85.645 279.897C85.645 279.897 83.936 277.463 78.926 278.213L4.487 279.798C4.487 279.798-3.107 277.511 3.686 294.118L3.943 294.198 3.874 294.602 50.214 418.889 127.034 425.971 127.05 425.998C127.05 425.998 129.88 426.778 132.777 426.501L133.498 426.567 133.441 426.411C136.247 425.973 138.918 424.41 138.918 419.997z"/>
          <path fill="#F0B4A7" fill-rule="nonzero" d="M3.232 13.188C3.232 13.188 21.091 8.811 24.48 12.922 24.48 12.922 29.291 17.32 20.501 20.618L9.123 22.926C9.123 22.926-4.391 21.301 3.232 13.188zM7.399 24.852C7.399 24.852 22.76 20.359 29.507 23.26 29.507 23.26 34.319 27.662 25.531 30.951L14.151 33.26C14.152 33.26 3.122 33.956 7.399 24.852zM14.369 34.693C14.369 34.693 27.174 31.888 32.666 34.241 32.666 34.241 36.576 37.826 29.422 40.509L20.163 42.379C20.163 42.379 10.889 42.1 14.369 34.693zM8.344 10.258C8.344 10.258 11.625 9.322 14.294 6.843 14.294 6.843 15.959 2.391 11.924 1.172 11.924 1.172 5.588 2.328 4.539.5L1.518 3.793C1.518 3.793.916 6.98 2.805 9.645 2.805 9.645 4.494 12.066 8.344 10.258z" transform="translate(17 347)"/>
        </g>
      </g>
    </g>
    <g mask="url(#header-b)">
      <mask id="header-f" fill="#fff">
        <use xlink:href="#header-e"/>
      </mask>
      <g mask="url(#header-f)">
        <g transform="translate(3548 6726)">
          <path fill="#C27A60" fill-rule="nonzero" d="M187.371,404.289 C187.371,404.289 178.939,412.475 176.033,416.495 L169.286,421.13 C163.891,426.628 171.418,425.456 171.418,425.456 L171.887,425.394 C170.996,427.105 169.268,429.792 167.766,431.484 L166.204,433.729 C166.204,433.729 161.522,440.701 162.134,441.798 C162.134,441.798 162.495,446.158 167.791,441.253 L171.043,438.821 C172.989,437.133 172.599,437.895 172.346,438.334 L170.575,440.976 C170.575,440.976 166.679,447.767 167.471,449.474 C167.471,449.474 168.63,452.675 172.804,447.731 L177.057,442.589 C177.128,442.638 177.187,442.677 177.242,442.731 C176.092,444.853 171.765,452.451 172.662,454.021 C172.662,454.021 174.42,457.804 179.334,452.481 L183.851,446.277 C183.923,446.32 184.032,446.357 184.12,446.397 C183.061,449.154 180.205,458.156 185.69,454.394 C185.69,454.394 188.723,450.607 192.52,444.947 C193.44,443.715 194.383,442.254 195.362,440.486 C198.209,435.741 200.491,430.965 200.441,427.849 C201.547,424.28 203.254,408.39 202.686,406.302 C202.684,406.303 201.924,403.105 187.371,404.289 Z"/>
          <path fill="#574759" fill-rule="nonzero" d="M41.731 475.326C41.731 475.326 36.195 611.334 43.666 613.334 57.884 617.141 85.133 622.361 107.487 628.139 111.47 629.168 113.619 531.515 117.52 532.48 123.666 534.001 124.388 631.62 126.84 631.914 145.869 634.194 163.33 631.302 174 617 182.822 605.176 178.914 460.622 178.914 460.622 152.414 481.609 41.731 475.326 41.731 475.326zM99.386 30.415C99.386 30.415 81.049 33.564 83.832 46.112 83.832 46.112 58.712 62.142 74.35 77.937 74.35 77.937 61.789 109.386 83.832 117.163 83.832 117.163 73.937 128.142 87.303 134.953 87.303 134.953 80.82 162.13 104.361 160.465 104.361 160.465 108.362 180.458 131.44 175.139L170.206 112.379 204.52 63.129 225.889 117.163C225.889 117.163 242.336 112.782 237.338 97.652 237.338 97.652 249.166 88.075 240.987 69.928 240.987 69.928 252.811 57.551 239.564 54.175 239.564 54.175 247.684 28.701 225.46 37.45 225.46 37.45 223.159 6.613 207.429 16.814 207.429 16.814 197.835 5.338 186.219 9.588 186.219 9.588 179.353-7.412 163.515 4.913 163.515 4.913 148.533-5.287 142.123 4.063 142.123 4.063 120.477-6.786 113.061 17.986 113.062 17.988 94.687 11.729 99.386 30.415z"/>
          <path fill="#CFEAEB" fill-rule="nonzero" d="M41.731,475.326 C45.371,412.677 51.07,319.885 72.222,265.803 C74.263,260.582 60.219,310.715 45.146,341.483 C41.037,349.872 87.268,365.712 105.533,372.922 C105.533,372.922 99.451,397.511 94.426,396.015 C63.537,386.821 -5.381,379.119 0.537,358.102 C14.035,310.159 44.543,243.723 52.225,229.174 C69.44,196.559 131.941,157.011 131.941,157.011 L135.638,192.938 L154.808,185.454 L163.793,190.518 L170.564,175.766 C201.242,177.066 219.77,291.27 219.103,330.604 C219.004,336.443 204.437,413.27 204.437,413.27 C204.437,413.27 191.011,413.95 180.437,407.803 C180.437,407.803 186.316,347.011 187.523,337.748 C188.73,328.485 180.437,290.469 180.437,290.469 C180.437,290.469 186.018,433.673 179.175,472.004 C172.332,510.335 41.731,475.326 41.731,475.326 Z"/>
          <path fill="#C27A60" fill-rule="nonzero" d="M134.465,121.248 C134.465,121.248 130.192,143.004 108.873,179.566 C108.873,179.566 102.603,184.644 110.72,195.324 C116.253,202.601 118.699,203.834 121.787,208.108 C123.633,210.664 127.336,212.236 130.046,213.517 C142.565,219.435 140.654,222.47 153.008,222.232 C153.008,222.232 157.302,233.32 162.32,215.988 C170.603,187.386 168.455,181.703 172.717,175.113 C172.717,175.113 196.07,182.517 205.851,157.322 L218.96,125.527 C218.96,125.527 222.8,124.923 224.896,123.097 C227.898,120.488 228.917,115.65 223.513,111.486 L223.959,70.984 C223.959,70.984 182.87,63.658 161.625,51.263 C161.625,51.263 147.078,74.246 144.716,93.72 C144.716,93.72 133.138,90.683 129.211,99.185 C129.211,99.185 124.784,113.276 135.069,119.134 L134.465,121.248 Z"/>
          <path fill="#574759" fill-rule="nonzero" d="M173.43 103.79C173.43 106.232 172.638 108.219 171.662 108.219 170.683 108.219 169.889 106.233 169.889 103.79 169.889 101.344 170.683 99.367 171.662 99.367 172.638 99.367 173.43 101.344 173.43 103.79M208.248 106.446C208.248 108.891 207.459 110.873 206.477 110.873 205.501 110.873 204.706 108.892 204.706 106.446 204.706 104.003 205.501 102.019 206.477 102.019 207.459 102.02 208.248 104.003 208.248 106.446M176.379 156.491C173.404 156.491 170.151 155.627 167.108 153.012 166.585 152.562 166.524 151.773 166.974 151.249 167.422 150.726 168.211 150.666 168.737 151.115 176.198 157.525 185.129 151.4 185.505 151.136 186.068 150.74 186.849 150.876 187.245 151.44 187.641 152.004 187.508 152.783 186.944 153.18 186.872 153.231 182.152 156.491 176.379 156.491zM139.852 92.152C139.852 92.152 144.815 103.783 147.298 103.79 147.298 103.79 153.135 103.799 151.457 86.427 151.457 86.427 158.798 77.289 155.117 63.037 155.117 63.037 166.134 70.984 193.959 70.451 193.959 70.451 231.139 75.867 234.438 69.247L229.197 61.193 156.396 47.131 139.851 57.988 139.851 73.6 139.851 92.152 139.852 92.152z"/>
          <path fill="#574759" fill-rule="nonzero" d="M151.457,62.321 C151.457,62.321 145.231,65.938 202.709,75.46 C202.709,75.46 197.268,67.393 193.959,61.941 L151.457,62.321 Z"/>
          <path fill="#C27A60" fill-rule="nonzero" d="M106.703,186.984 C106.703,186.984 105.406,218.017 115.191,231.322 C115.191,231.322 127.582,244.732 139.353,243.644 C149.43,242.713 159.414,231.726 163.992,223.906 C169.508,214.484 174.844,203.944 171.658,177.028 L147.178,171.982 L123.578,180.042 L106.703,186.984 Z"/>
          <circle cx="136.762" cy="284.346" r="4.455" fill="#574759" fill-rule="nonzero"/>
          <circle cx="129.835" cy="331.524" r="4.456" fill="#574759" fill-rule="nonzero"/>
          <path fill="#574759" fill-rule="nonzero" d="M0.401,0.242 L0.05,3.59 L54.81,14.999 C58.429,9.582 49.683,11.314 49.683,11.314 L0.401,0.242 Z" opacity=".3" transform="translate(48 385)"/>
          <g fill-rule="nonzero" transform="translate(93 311)">
            <path fill="#007AC3" d="M81.639,56.827 C81.639,50.424 71.307,45.228 58.559,45.228 C45.815,45.228 35.485,50.423 35.485,56.827 L35.483,56.827 L35.483,64.445 C29.59,64.994 24.968,70.211 24.968,76.572 C24.968,82.933 29.59,88.149 35.483,88.698 L35.483,93.976 L35.539,93.976 C35.522,94.156 35.483,94.333 35.483,94.515 C35.483,100.923 45.815,106.115 58.559,106.115 C71.307,106.115 81.639,100.924 81.639,94.515 C81.639,94.333 81.601,94.156 81.584,93.976 L81.639,93.976 L81.639,56.827 L81.639,56.827 Z M30.609,76.57 C30.609,73.201 31.987,70.654 35.482,70.231 L35.482,82.705 C32.539,80.893 30.609,79.941 30.609,76.57 Z"/>
            <path fill="#C27A60" d="M6.914,59.163 C6.914,59.163 31.289,60.533 34.169,62.139 C34.169,62.139 37.227,65.682 33.587,67.137 C33.587,67.137 31.42,68.85 33.455,70.633 C33.455,70.633 36.939,75.268 31.225,76.322 C31.225,76.322 28.652,78.367 32.845,79.842 C32.845,79.842 37.446,83.4 31.006,85.294 C31.006,85.294 30.152,87.273 32.36,87.732 C32.36,87.732 35.893,91.53 28.928,92.643 C28.928,92.643 12.858,95.76 0.831,84.477 C0.831,84.477 -2.623,70.147 6.914,59.163 Z"/>
            <path fill="#C27A60" d="M5.846,60.619 C5.846,60.619 8.723,55.904 11.61,55.744 C11.61,55.744 24.155,52.458 17.85,61.078 L5.846,60.619 Z"/>
            <ellipse cx="59.047" cy="56.701" fill="#FFF" rx="18.867" ry="8.086"/>
            <path fill="#574759" d="M41.451,59.619 C44.183,62.642 51.028,64.787 59.047,64.787 C68.61,64.787 76.506,61.738 77.741,57.785 C58.031,50.091 45.682,56.623 41.451,59.619 Z"/>
            <path fill="#FFF" d="M64.42 42.768C64.42 42.768 67.591 29.66 64.208 21.414 64.208 21.414 59.98 7.25 63.362.908 63.362.908 57.232 10.633 60.614 21.414 60.614 21.414 66.533 34.1 64.42 42.768zM54.396 39.998C54.396 39.998 56.39 31.756 54.262 26.57 54.262 26.57 51.604 17.663 53.731 13.673 53.731 13.673 49.876 19.79 52.003 26.57 52.003 26.57 55.727 34.547 54.396 39.998z"/>
          </g>
        </g>
      </g>
    </g>
    <g mask="url(#header-b)">
      <mask id="header-h" fill="#fff">
        <use xlink:href="#header-g"/>
      </mask>
      <path fill="#F0B4A7" fill-rule="nonzero" d="M4102.702,7196.718 C4102.702,7196.718 4096.334,7205.435 4093.254,7211.776 L4084.949,7219.919 C4078.751,7228.939 4088.996,7225.45 4088.996,7225.45 L4089.637,7225.249 C4088.811,7227.862 4087.052,7232.048 4085.366,7234.784 L4083.731,7238.309 C4083.731,7238.309 4078.891,7249.217 4080.016,7250.603 C4080.016,7250.603 4081.593,7256.616 4087.799,7248.451 L4091.753,7244.249 C4094.063,7241.409 4093.703,7242.571 4093.457,7243.247 L4091.629,7247.379 C4091.629,7247.379 4087.843,7257.84 4089.37,7260.034 C4089.37,7260.034 4091.779,7264.229 4096.406,7256.285 L4101.094,7248.045 C4101.206,7248.095 4101.298,7248.136 4101.387,7248.197 C4100.299,7251.449 4096.111,7263.145 4097.75,7265.123 C4097.75,7265.123 4101.14,7269.985 4106.71,7261.329 L4111.507,7251.536 C4111.618,7251.579 4111.779,7251.604 4111.911,7251.639 C4111.107,7255.757 4109.321,7269.057 4116.075,7262.446 C4116.075,7262.446 4119.389,7256.4 4123.311,7247.547 C4124.296,7245.596 4125.257,7243.319 4126.193,7240.606 C4129.011,7233.266 4131.033,7226.02 4130.197,7221.673 C4130.869,7216.405 4129.619,7203.147 4128.31,7200.364 C4128.312,7200.362 4121.031,7200.556 4102.702,7196.718 Z" mask="url(#header-h)"/>
    </g>
  </g>
</svg>
