<svg xmlns="http://www.w3.org/2000/svg" xmlns:xlink="http://www.w3.org/1999/xlink" width="1020" height="620" viewBox="0 0 1020 620">
  <defs>
    <circle id="header_mobile-a" cx="1818.156" cy="1818.351" r="1818.114"/>
    <circle id="header_mobile-c" cx="1818.156" cy="1818.351" r="1818.114"/>
  </defs>
  <g fill="none" fill-rule="evenodd">
    <rect width="1031" height="630" x="-11" y="-10" fill="#0F989A"/>
    <g transform="translate(-1412 -2994.5)">
      <mask id="header_mobile-b" fill="#fff">
        <use xlink:href="#header_mobile-a"/>
      </mask>
      <g mask="url(#header_mobile-b)">
        <g transform="translate(1928.5 3362)">
          <path fill="#D5D1D5" fill-rule="nonzero" d="M115.841,236.538 L119,264.25 L43.5,275.75 L43.167,245.3375 C67.5,250.577 115.841,236.538 115.841,236.538 Z"/>
          <path fill="#FFF" fill-rule="nonzero" d="M117.245,248.8585 L114.288,222.914 L109.1455,159.083 C109.1455,159.083 119.01,213.8925 119.01,235 C119.01,235 137.25,242.5 140.5,235 C143.75,227.5 133.6365,149.383 133.6365,149.383 C119.064,99.3375 80.5925,97.68 80.5925,97.68 L76.31,107.856 L65.879,103.7855 L60.9905,106.541 L59.5745,103.456 C41.296,122.072 37.7735,147.5615 37.7735,147.5615 L36.79,149.9635 L36.7685,152.194 L36.288,155.647 L31.132,173.3325 L30.1105,178.102 C35.452,178.843 41.102,175.3325 41.696,174.3445 L41.696,174.3445 L42.8225,222.9145 L43.1665,259.3375 C65.001,267 117.245,248.8585 117.245,248.8585 Z"/>
          <path fill="#574759" fill-rule="nonzero" d="M45.354 87.8645C45.354 87.8645 45.9875 95.8165 41.894 98.2895 41.894 98.2895 55.2105 96.8835 59.1795 91.177L55.0775 86.463 45.354 87.8645zM73.6945 85.575C75.0495 84.559 81.1485 89.641 81.1485 89.641 81.1485 89.641 102.1545 92.0125 105.2035 73.0395 98.7655 76.089 95.0645 67.5955 95.0645 67.5955 91.5785 50.8615 90.9735 48.306 90.9735 48.306 86.954 31.16 87.2205 29.8045 81.487 17.8135 81.0095 17.51 72.6775 6.9715 72.6775 6.9715 43.5535-14.341 24.1325 20.2945 24.1325 20.2945 16.7495 36.03 29.5915 47.9115 29.5915 47.9115L29.907 32.1C35.365 33.898 46.6125 37.1665 58.015 37.8115 58.015 37.8115 53.579 34.484 49.9175 30.5925L59.883 29.963 58.7405 35.064 66.9945 81.8245 71.643 93.644C72.3985 89.3995 73.1535 85.9805 73.6945 85.575z"/>
          <path fill="#F0B4A7" fill-rule="nonzero" d="M87.97,105.409 C78.736,81.617 76.0465,62.5485 76.0465,62.5485 L75.549,58.909 C80.8195,56.877 78.906,50.543 78.906,50.543 C76.7695,45.917 70.4685,47.5705 70.4685,47.5705 C69.1845,36.975 61.269,24.468 61.269,24.468 C49.71,31.2125 25.954,31.0625 25.954,31.0625 L27.5965,57.2375 C25.871,59.593 25.775,62.135 27.408,63.5555 C28.5475,64.5465 30.072,64.8775 30.072,64.8775 L37.206,82.1765 C42.5285,95.8855 55.2335,90.905 55.2335,90.905 C57.553,94.489 60.052,120.061 64.558,135.624 C64.558,135.624 86.465,127.492 87.97,105.409 Z"/>
          <path fill="#574759" fill-rule="nonzero" d="M48.0145 54.8735C48.113 56.199 48.624 57.2425 49.153 57.203 49.684 57.163 50.036 56.056 49.936 54.73 49.8365 53.4015 49.3245 52.3605 48.7935 52.4005 48.2645 52.4405 47.915 53.545 48.0145 54.8735M30.5425 56.482C30.5425 57.813 30.9725 58.89 31.507 58.89 32.0385 58.89 32.4705 57.813 32.4705 56.482 32.4705 55.1525 32.039 54.0744998 31.507 54.0744998 30.9725 54.074 30.5425 55.1525 30.5425 56.482M47.197 80.52C45.7615 80.52 44.166 80.137 42.49 79.0835 42.1975 78.8995 42.1095 78.5135 42.293 78.2215 42.4775 77.929 42.8645 77.841 43.155 78.0245 48.4265 81.34 52.773 76.9625 52.817 76.9175 53.0575 76.671 53.453 76.6635 53.701 76.905 53.9485 77.145 53.9545 77.5405 53.7135 77.789 53.677 77.8265 51.0015 80.52 47.197 80.52z"/>
          <g transform="translate(75.5 149)">
            <path fill="#574759" fill-rule="nonzero" d="M.3625 2.061L.3645 2.0495C.425 1.138 1.2005.431 2.178.496 3.1565.56 3.827 1.351 3.7655 2.263L3.7655 2.2745C3.704 3.1805 2.929 3.888 1.946 3.8215.973 3.759.3025 2.967.3625 2.061zM3.0325 2.2375L3.033 2.226C3.0715 1.665 2.697 1.1725 2.124 1.1345 1.5365 1.0955 1.132 1.5295 1.096 2.085L1.0945 2.097C1.058 2.653 1.4305 3.1445 1.999 3.182 2.591 3.2205 2.9965 2.7865 3.0325 2.2375zM4.257 1.034C4.271.827 4.4375.6755 4.643.689 4.85.7025 5.001.876 4.987 1.081L4.9765 1.239C5.202.9565 5.5135.715 6.0105.749 6.7285.797 7.114 1.307 7.0645 2.044L6.9515 3.747C6.939 3.953 6.771 4.0995 6.5645 4.086 6.36 4.0725 6.2065 3.905 6.2205 3.6995L6.319 2.219C6.352 1.725 6.1225 1.4235 5.688 1.3955 5.265 1.3675 4.9505 1.644 4.9175 2.139L4.819 3.6065C4.8055 3.8115 4.6325 3.958 4.4275 3.944 4.2285 3.9315 4.075 3.7635 4.089 3.559L4.257 1.034zM8.9665 4.2875C8.0425 4.2255 7.374 3.5085 7.4395 2.5245L7.4395 2.512C7.5 1.601 8.1965.894 9.1085.9545 10.123 1.022 10.5685 1.8885 10.52 2.6245 10.5085 2.8305 10.3395 2.966 10.1535 2.9535L8.1545 2.8205C8.1975 3.344 8.5475 3.6595 9.018 3.6915 9.326 3.711 9.5745 3.6185 9.7915 3.463 9.8495 3.424 9.9 3.4025 9.984 3.4095 10.147 3.42 10.2645 3.555 10.2535 3.724 10.248 3.8155 10.201 3.891 10.142 3.942 9.834 4.182 9.462 4.321 8.9665 4.2875zM9.8155 2.445C9.8 1.971 9.5455 1.584 9.063 1.552 8.616 1.5215 8.2795 1.846 8.1795 2.337L9.8155 2.445zM10.963 2.8125L10.964 2.7995C11.0215 1.936 11.759 1.233 12.641 1.292 13.1725 1.3265 13.506 1.58 13.7685 1.8585 13.791 1.884 13.8055 1.928 13.8025 1.97 13.7975 2.053 13.7265 2.1155 13.641 2.1115 13.6055 2.1075 13.5645 2.093 13.542 2.0675 13.31 1.8165 13.033 1.5975 12.617 1.5695 11.917 1.5235 11.334 2.0725 11.2855 2.8105L11.283 2.821C11.234 3.564 11.7555 4.194 12.4635 4.2395 12.861 4.2665 13.194 4.0945 13.4595 3.863 13.484 3.8405 13.517 3.8175 13.559 3.822 13.631 3.826 13.6985 3.903 13.694 3.9755 13.691 4.006 13.677 4.042 13.651 4.0635 13.3225 4.3585 12.952 4.552 12.4265 4.5175 11.539 4.4575 10.9055 3.676 10.963 2.8125zM14.0245 3.6525L14.026 3.641C14.0685 3.0015 14.6415 2.6735 15.4385 2.728 15.868 2.7555 16.16 2.8295 16.451 2.928L16.46 2.795C16.501 2.1725 16.1405 1.827 15.5075 1.786 15.169 1.7615 14.88 1.828 14.619 1.932 14.5935 1.9425 14.5685 1.947 14.551 1.946 14.4785 1.941 14.4155 1.87 14.42 1.7965 14.426 1.725 14.4835 1.6815 14.5145 1.6705 14.8375 1.5525 15.152 1.484 15.543 1.5085 15.96 1.536 16.285 1.673 16.4945 1.911 16.686 2.1305 16.776 2.4215 16.751 2.8015L16.632 4.596C16.626 4.6865 16.5615 4.742 16.4775 4.736 16.3905 4.731 16.336 4.6665 16.3415 4.576L16.3675 4.19C16.137 4.471 15.737 4.7355 15.1515 4.6975 14.5775 4.659 13.9825 4.293 14.0245 3.6525zM16.4155 3.551L16.4395 3.2015C16.183 3.1165 15.844 3.022 15.4035 2.9925 14.7515 2.9495 14.3695 3.2155 14.341 3.643L14.3405 3.655C14.3105 4.103 14.7165 4.3895 15.188 4.421 15.816 4.462 16.378 4.112 16.4155 3.551zM17.3115 1.802C17.319 1.718 17.383 1.654 17.4675 1.6615 17.553 1.666 17.6145 1.7305 17.6075 1.822L17.5575 2.5705C17.863 1.9905 18.4225 1.6995 18.8585 1.728 18.9485 1.7345 19.011 1.811 19.004 1.9025 18.999 1.9865 18.9315 2.055 18.837 2.054 18.181 2.0715 17.561 2.523 17.495 3.512L17.4215 4.6475C17.415 4.7325 17.3515 4.795 17.2655 4.789 17.1805 4.783 17.12 4.7175 17.125 4.628L17.3115 1.802zM20.3015 5.039C19.4915 4.9865 18.835 4.293 18.8985 3.332L18.899 3.3205C18.958 2.427 19.6335 1.756 20.467 1.8105 21.331 1.867 21.833 2.617 21.7745 3.499 21.769 3.5715 21.6925 3.633 21.621 3.628L19.204 3.468C19.209 4.2395 19.728 4.722 20.332 4.762 20.7715 4.791 21.0925 4.6315 21.356 4.4055 21.3815 4.3825 21.413 4.3675 21.456 4.3695 21.534 4.3755 21.5965 4.439 21.5915 4.518 21.5885 4.5485 21.575 4.5845 21.537 4.6175 21.215 4.9005 20.8575 5.076 20.3015 5.039zM21.462 3.3505C21.461 2.7255 21.1435 2.1285 20.4365 2.082 19.827 2.042 19.322 2.5235 19.2215 3.202L21.462 3.3505z"/>
            <g fill-rule="nonzero" transform="translate(22.5 .5)">
              <path fill="#ED1651" d="M1.4415,1.207 C1.4365,1.2785 1.3745,1.334 1.301,1.329 L0.642,1.285 C0.5705,1.28 0.515,1.2165 0.5205,1.1445 L0.564,0.4855 C0.5695,0.4135 0.6325,0.358 0.704,0.3635 L1.3635,0.407 C1.436,0.412 1.4905,0.476 1.485,0.5465 L1.4415,1.207 Z"/>
              <path fill="#F27022" d="M2.4805,2.3915 C2.475,2.4635 2.413,2.5195 2.341,2.515 L1.68,2.471 C1.6075,2.466 1.554,2.4035 1.5595,2.332 L1.603,1.67 C1.607,1.599 1.6705,1.545 1.7415,1.5495 L2.4025,1.593 C2.474,1.597 2.5285,1.6595 2.5235,1.7325 L2.4805,2.3915 Z"/>
              <path fill="#007AC3" d="M3.5185,3.578 C3.5135,3.6485 3.451,3.704 3.379,3.701 L2.719,3.657 C2.6465,3.651 2.593,3.588 2.597,3.5175 L2.641,2.857 C2.6455,2.784 2.7085,2.7295 2.7805,2.7345 L3.4405,2.7775 C3.513,2.783 3.5675,2.846 3.5645,2.9175 L3.5185,3.578 Z"/>
              <path fill="#A72F8D" d="M1.1455,5.6545 C1.1415,5.727 1.079,5.782 1.0075,5.776 L0.3465,5.732 C0.2735,5.7275 0.22,5.6655 0.225,5.593 L0.2695,4.933 C0.273,4.8605 0.337,4.806 0.4095,4.8115 L1.0695,4.8545 C1.1405,4.859 1.1965,4.9215 1.1895,4.9945 L1.1455,5.6545 Z"/>
              <path fill="#0F989A" d="M2.333,4.616 C2.327,4.688 2.266,4.743 2.194,4.738 L1.5335,4.6935 C1.461,4.689 1.406,4.627 1.411,4.556 L1.4555,3.8935 C1.46,3.822 1.522,3.7685 1.594,3.773 L2.254,3.8165 C2.3265,3.821 2.381,3.885 2.376,3.9555 L2.333,4.616 Z"/>
            </g>
          </g>
          <polygon fill="#574759" fill-rule="nonzero" points="74.984 155.647 101.07 157.757 100.995 165.435 75.397 162.273"/>
          <path fill="#574759" fill-rule="nonzero" d="M99.062 190.0835C99.0615 190.0835 99.061 190.0835 99.061 190.0835 91.719 190.0835 78.504 186.4785 78.371 186.4425L78.273 186.415 78.2215 186.327C76.8985 184.055 75.661 161.717 75.609 160.7675L75.595 160.514 101.031 159.4945 102.072 189.7895 101.8695 189.8345C101.125 190 100.18 190.0835 99.062 190.0835zM78.6085 185.9885C79.8695 186.329 92.1315 189.5835 99.061 189.5835 99.061 189.5835 99.0615 189.5835 99.062 189.5835 100.0435 189.5835 100.882 189.518 101.558 189.388L100.5485 160.014 76.122 160.9935C76.563 168.9465 77.621 183.8975 78.6085 185.9885zM88.277 96.4485C88.277 96.4485 90.8175 113.8945 69.342 133.2635L78.114 141.334C78.114 141.334 107.6035 101.621 88.277 96.4485zM63.841 133.009C63.841 133.009 59.464 136.058 54.382 139.107 54.382 139.107 52.0565 117.565 58.3015 104.7885 58.3015 104.7885 61.5295 122.733 63.841 133.009z"/>
          <path fill="#574759" fill-rule="nonzero" d="M84.4485 95.6795C84.4485 95.6795 88.2705 95.826 90.2685 97.1825L87.9335 105.02C87.9335 105.02 84.9155 100.004 84.4485 95.6795zM67.5955 152.9425C67.5955 153.9715 66.7605 154.8055 65.732 154.8055 64.703 154.8055 63.8685 153.9715 63.8685 152.9425 63.8685 151.912 64.703 151.078 65.732 151.078 66.7605 151.078 67.5955 151.912 67.5955 152.9425z"/>
          <circle cx="68.612" cy="180.442" r="1.864" fill="#574759" fill-rule="nonzero"/>
          <circle cx="71.323" cy="205.345" r="1.864" fill="#574759" fill-rule="nonzero"/>
          <g transform="translate(25 48)">
            <path fill="#574759" fill-rule="nonzero" d="M7.2735,12.9805 C5.216,12.9805 3.306,12.3515 3.2255,12.3245 C0.3985,11.577 0.468,4.276 0.4855,3.446 L0.494,3.0565 L11.3845,0.544 L11.555,0.913 C12.9585,3.9535 11.9035,10.452 11.8575,10.727 L11.843,10.8175 L11.7965,10.897 C11.0045,12.26 9.4405,12.9805 7.2735,12.9805 Z M1.48092056,3.8555 C1.4735,6.704 1.996,10.966 3.512,11.367 C3.56,11.382 5.383,11.9805 7.2735,11.9805 C9.0445,11.9805 10.2595,11.4725 10.886,10.471 C11.003,9.707 11.763,4.4285 10.798,1.7055 L1.48092056,3.8555 Z"/>
            <polygon fill="#574759" fill-rule="nonzero" points="4.654 -3.025 7.154 -3.025 7.154 7.951 4.654 7.951" transform="rotate(79.781 5.904 2.463)"/>
          </g>
          <g transform="translate(42 44.5)">
            <path fill="#574759" fill-rule="nonzero" d="M7.997,14.34 C7.997,14.34 7.997,14.34 7.997,14.34 C5.6405,14.34 3.4595,13.675 3.3675,13.6465 C0.042,12.867 0.284,4.6555 0.3225,3.7215 L0.338,3.3405 L12.4345,0.549 L12.617,0.878 C14.3685,4.032 13.3565,11.5055 13.3125,11.8225 L13.2995,11.9195 L13.2495,12.005 C12.3495,13.554 10.582,14.34 7.997,14.34 Z M1.3095,4.143 C1.2315,7.3695 1.7745,12.2465 3.6295,12.682 C3.6835,12.6975 5.796,13.3395 7.9965,13.3395 C10.1495,13.3395 11.6085,12.7495 12.3355,11.585 C12.4455,10.7255 13.172,4.5565 11.9085,1.697 L1.3095,4.143 Z"/>
            <polygon fill="#574759" fill-rule="nonzero" points="5.094 -3.535 7.593 -3.535 7.593 8.79 5.094 8.79" transform="rotate(79.781 6.343 2.628)"/>
          </g>
          <path fill="#574759" fill-rule="nonzero" d="M36.784,51.056 L36.3145,50.173 C36.45,50.1005 39.6655,48.424 42.982,49.5395 L42.6635,50.4875 C39.751,49.5095 36.813,51.041 36.784,51.056 Z"/>
          <polygon fill="#574759" fill-rule="nonzero" points="65.402 34.929 67.902 34.929 67.902 58.652 65.402 58.652" transform="rotate(86.463 66.652 46.79)"/>
          <path fill="#574759" fill-rule="nonzero" d="M25.034 30.377C25.034 30.377 29.777 41.895 62.525 33.313 62.525 33.313 51.738 32.2635 48.748 30.8285 48.748 30.8285 62.3685 31.533 66.5895 31.0545L72.4625 31.5055C72.4625 31.5055 69.5265 29.247 72.4625 27.892L60.04 21.342 44.6825 22.0195C44.6825 22.0195 34.52 22.245 33.8415 22.923 33.165 23.6015 25.034 30.377 25.034 30.377zM69.459 209.9985L42.8225 139.9485C42.8225 139.9485 41.968 138.7315 39.463 139.1065L2.2435 139.899C2.2435 139.899-1.5535 138.7555 1.843 147.059L1.9715 147.099 1.937 147.301 25.107 209.4445 63.517 212.9855 63.525 212.999C63.525 212.999 64.94 213.389 66.3885 213.2505L66.749 213.2835 66.7205 213.2055C68.1235 212.9865 69.459 212.205 69.459 209.9985z"/>
          <path fill="#F0B4A7" fill-rule="nonzero" d="M1.616 6.594C1.616 6.594 10.5455 4.4055 12.24 6.461 12.24 6.461 14.6455 8.66 10.2505 10.309L4.5615 11.463C4.5615 11.463-2.1955 10.6505 1.616 6.594zM3.6995 12.426C3.6995 12.426 11.38 10.1795 14.7535 11.63 14.7535 11.63 17.1595 13.831 12.7655 15.4755L7.0755 16.63C7.076 16.63 1.561 16.978 3.6995 12.426zM7.1845 17.3465C7.1845 17.3465 13.587 15.944 16.333 17.1205 16.333 17.1205 18.288 18.913 14.711 20.2545L10.0815 21.1895C10.0815 21.1895 5.4445 21.05 7.1845 17.3465zM4.172 5.129C4.172 5.129 5.8125 4.661 7.147 3.4215 7.147 3.4215 7.9795 1.1955 5.962.586 5.962.586 2.794 1.164 2.2695.25L.759 1.8965C.759 1.8965.458 3.49 1.4025 4.8225 1.4025 4.8225 2.247 6.033 4.172 5.129z" transform="translate(8.5 173.5)"/>
        </g>
      </g>
      <mask id="header_mobile-d" fill="#fff">
        <use xlink:href="#header_mobile-c"/>
      </mask>
      <g mask="url(#header_mobile-d)">
        <g transform="translate(1774 3363)">
          <path fill="#C27A60" fill-rule="nonzero" d="M93.6855,202.1445 C93.6855,202.1445 89.4695,206.2375 88.0165,208.2475 L84.643,210.565 C81.9455,213.314 85.709,212.728 85.709,212.728 L85.9435,212.697 C85.498,213.5525 84.634,214.896 83.883,215.742 L83.102,216.8645 C83.102,216.8645 80.761,220.3505 81.067,220.899 C81.067,220.899 81.2475,223.079 83.8955,220.6265 L85.5215,219.4105 C86.4945,218.5665 86.2995,218.9475 86.173,219.167 L85.2875,220.488 C85.2875,220.488 83.3395,223.8835 83.7355,224.737 C83.7355,224.737 84.315,226.3375 86.402,223.8655 L88.5285,221.2945 C88.564,221.319 88.5935,221.3385 88.621,221.3655 C88.046,222.4265 85.8825,226.2255 86.331,227.0105 C86.331,227.0105 87.21,228.902 89.667,226.2405 L91.9255,223.1385 C91.9615,223.16 92.016,223.1785 92.06,223.1985 C91.5305,224.577 90.1025,229.078 92.845,227.197 C92.845,227.197 94.3615,225.3035 96.26,222.4735 C96.72,221.8575 97.1915,221.127 97.681,220.243 C99.1045,217.8705 100.2455,215.4825 100.2205,213.9245 C100.7735,212.14 101.627,204.195 101.343,203.151 C101.342,203.1515 100.962,201.5525 93.6855,202.1445 Z"/>
          <path fill="#574759" fill-rule="nonzero" d="M20.8655 237.663C20.8655 237.663 18.0975 305.667 21.833 306.667 28.942 308.5705 42.5665 311.1805 53.7435 314.0695 55.735 314.584 56.8095 265.7575 58.76 266.24 61.833 267.0005 62.194 315.81 63.42 315.957 72.9345 317.097 81.665 315.651 87 308.5 91.411 302.588 89.457 230.311 89.457 230.311 76.207 240.8045 20.8655 237.663 20.8655 237.663zM49.693 15.2075C49.693 15.2075 40.5245 16.782 41.916 23.056 41.916 23.056 29.356 31.071 37.175 38.9685 37.175 38.9685 30.8945 54.693 41.916 58.5815 41.916 58.5815 36.9685 64.071 43.6515 67.4765 43.6515 67.4765 40.41 81.065 52.1805 80.2325 52.1805 80.2325 54.181 90.229 65.72 87.5695L85.103 56.1895 102.26 31.5645 112.9445 58.5815C112.9445 58.5815 121.168 56.391 118.669 48.826 118.669 48.826 124.583 44.0375 120.4935 34.964 120.4935 34.964 126.4055 28.7755 119.782 27.0875 119.782 27.0875 123.842 14.3505 112.73 18.725 112.73 18.725 111.5795 3.3065 103.7145 8.407 103.7145 8.407 98.9175 2.669 93.1095 4.794 93.1095 4.794 89.6765-3.706 81.7575 2.4565 81.7575 2.4565 74.2665-2.6435 71.0615 2.0315 71.0615 2.0315 60.2385-3.393 56.5305 8.993 56.531 8.994 47.3435 5.8645 49.693 15.2075z"/>
          <path fill="#CFEAEB" fill-rule="nonzero" d="M20.8655,237.663 C22.6855,206.3385 25.535,159.9425 36.111,132.9015 C37.1315,130.291 30.1095,155.3575 22.573,170.7415 C20.5185,174.936 43.634,182.856 52.7665,186.461 C52.7665,186.461 49.7255,198.7555 47.213,198.0075 C31.7685,193.4105 -2.6905,189.5595 0.2685,179.051 C7.0175,155.0795 22.2715,121.8615 26.1125,114.587 C34.72,98.2795 65.9705,78.5055 65.9705,78.5055 L67.819,96.469 L77.404,92.727 L81.8965,95.259 L85.282,87.883 C100.621,88.533 109.885,145.635 109.5515,165.302 C109.502,168.2215 102.2185,206.635 102.2185,206.635 C102.2185,206.635 95.5055,206.975 90.2185,203.9015 C90.2185,203.9015 93.158,173.5055 93.7615,168.874 C94.365,164.2425 90.2185,145.2345 90.2185,145.2345 C90.2185,145.2345 93.009,216.8365 89.5875,236.002 C86.166,255.1675 20.8655,237.663 20.8655,237.663 Z"/>
          <path fill="#C27A60" fill-rule="nonzero" d="M67.2325,60.624 C67.2325,60.624 65.096,71.502 54.4365,89.783 C54.4365,89.783 51.3015,92.322 55.36,97.662 C58.1265,101.3005 59.3495,101.917 60.8935,104.054 C61.8165,105.332 63.668,106.118 65.023,106.7585 C71.2825,109.7175 70.327,111.235 76.504,111.116 C76.504,111.116 78.651,116.66 81.16,107.994 C85.3015,93.693 84.2275,90.8515 86.3585,87.5565 C86.3585,87.5565 98.035,91.2585 102.9255,78.661 L109.48,62.7635 C109.48,62.7635 111.4,62.4615 112.448,61.5485 C113.949,60.244 114.4585,57.825 111.7565,55.743 L111.9795,35.492 C111.9795,35.492 91.435,31.829 80.8125,25.6315 C80.8125,25.6315 73.539,37.123 72.358,46.86 C72.358,46.86 66.569,45.3415 64.6055,49.5925 C64.6055,49.5925 62.392,56.638 67.5345,59.567 L67.2325,60.624 Z"/>
          <path fill="#574759" fill-rule="nonzero" d="M86.715 51.895C86.715 53.116 86.319 54.1095 85.831 54.1095 85.3415 54.1095 84.9445 53.1165 84.9445 51.895 84.9445 50.672 85.3415 49.6835 85.831 49.6835 86.319 49.6835 86.715 50.672 86.715 51.895M104.124 53.223C104.124 54.4455 103.7295 55.4365 103.2385 55.4365 102.7505 55.4365 102.353 54.446 102.353 53.223 102.353 52.0015 102.7505 51.0095 103.2385 51.0095 103.7295 51.01 104.124 52.0015 104.124 53.223M88.1895 78.2455C86.702 78.2455 85.0755 77.8135 83.554 76.506 83.2925 76.281 83.262 75.8865 83.487 75.6245 83.711 75.363 84.1055 75.333 84.3685 75.5575 88.099 78.7625 92.5645 75.7 92.7525 75.568 93.034 75.37 93.4245 75.438 93.6225 75.72 93.8205 76.002 93.754 76.3915 93.472 76.59 93.436 76.6155 91.076 78.2455 88.1895 78.2455zM69.926 46.076C69.926 46.076 72.4075 51.8915 73.649 51.895 73.649 51.895 76.5675 51.8995 75.7285 43.2135 75.7285 43.2135 79.399 38.6445 77.5585 31.5185 77.5585 31.5185 83.067 35.492 96.9795 35.2255 96.9795 35.2255 115.5695 37.9335 117.219 34.6235L114.5985 30.5965 78.198 23.5655 69.9255 28.994 69.9255 36.8 69.9255 46.076 69.926 46.076z"/>
          <path fill="#574759" fill-rule="nonzero" d="M75.7285,31.1605 C75.7285,31.1605 72.6155,32.969 101.3545,37.73 C101.3545,37.73 98.634,33.6965 96.9795,30.9705 L75.7285,31.1605 Z"/>
          <path fill="#C27A60" fill-rule="nonzero" d="M53.3515,93.492 C53.3515,93.492 52.703,109.0085 57.5955,115.661 C57.5955,115.661 63.791,122.366 69.6765,121.822 C74.715,121.3565 79.707,115.863 81.996,111.953 C84.754,107.242 87.422,101.972 85.829,88.514 L73.589,85.991 L61.789,90.021 L53.3515,93.492 Z"/>
          <circle cx="68.381" cy="142.173" r="2.228" fill="#574759" fill-rule="nonzero"/>
          <circle cx="64.918" cy="165.762" r="2.228" fill="#574759" fill-rule="nonzero"/>
          <path fill="#574759" fill-rule="nonzero" d="M0.2005,0.121 L0.025,1.795 L27.405,7.4995 C29.2145,4.791 24.8415,5.657 24.8415,5.657 L0.2005,0.121 Z" opacity=".3" transform="translate(24 192.5)"/>
          <g fill-rule="nonzero" transform="translate(46.5 155.5)">
            <path fill="#007AC3" d="M40.8195,28.4135 C40.8195,25.212 35.6535,22.614 29.2795,22.614 C22.9075,22.614 17.7425,25.2115 17.7425,28.4135 L17.7415,28.4135 L17.7415,32.2225 C14.795,32.497 12.484,35.1055 12.484,38.286 C12.484,41.4665 14.795,44.0745 17.7415,44.349 L17.7415,46.988 L17.7695,46.988 C17.761,47.078 17.7415,47.1665 17.7415,47.2575 C17.7415,50.4615 22.9075,53.0575 29.2795,53.0575 C35.6535,53.0575 40.8195,50.462 40.8195,47.2575 C40.8195,47.1665 40.8005,47.078 40.792,46.988 L40.8195,46.988 L40.8195,28.4135 L40.8195,28.4135 Z M15.3045,38.285 C15.3045,36.6005 15.9935,35.327 17.741,35.1155 L17.741,41.3525 C16.2695,40.4465 15.3045,39.9705 15.3045,38.285 Z"/>
            <path fill="#C27A60" d="M3.457,29.5815 C3.457,29.5815 15.6445,30.2665 17.0845,31.0695 C17.0845,31.0695 18.6135,32.841 16.7935,33.5685 C16.7935,33.5685 15.71,34.425 16.7275,35.3165 C16.7275,35.3165 18.4695,37.634 15.6125,38.161 C15.6125,38.161 14.326,39.1835 16.4225,39.921 C16.4225,39.921 18.723,41.7 15.503,42.647 C15.503,42.647 15.076,43.6365 16.18,43.866 C16.18,43.866 17.9465,45.765 14.464,46.3215 C14.464,46.3215 6.429,47.88 0.4155,42.2385 C0.4155,42.2385 -1.3115,35.0735 3.457,29.5815 Z"/>
            <path fill="#C27A60" d="M2.923,30.3095 C2.923,30.3095 4.3615,27.952 5.805,27.872 C5.805,27.872 12.0775,26.229 8.925,30.539 L2.923,30.3095 Z"/>
            <ellipse cx="29.523" cy="28.351" fill="#FFF" rx="9.434" ry="4.043"/>
            <path fill="#574759" d="M20.7255,29.8095 C22.0915,31.321 25.514,32.3935 29.5235,32.3935 C34.305,32.3935 38.253,30.869 38.8705,28.8925 C29.0155,25.0455 22.841,28.3115 20.7255,29.8095 Z"/>
            <path fill="#FFF" d="M32.21 21.384C32.21 21.384 33.7955 14.83 32.104 10.707 32.104 10.707 29.99 3.625 31.681.454 31.681.454 28.616 5.3165 30.307 10.707 30.307 10.707 33.2665 17.05 32.21 21.384zM27.198 19.999C27.198 19.999 28.195 15.878 27.131 13.285 27.131 13.285 25.802 8.8315 26.8655 6.8365 26.8655 6.8365 24.938 9.895 26.0015 13.285 26.0015 13.285 27.8635 17.2735 27.198 19.999z"/>
          </g>
        </g>
      </g>
      <path fill="#F0B4A7" fill-rule="nonzero" d="M2051.351,3598.359 C2051.351,3598.359 2048.167,3602.7175 2046.627,3605.888 L2042.4745,3609.9595 C2039.3755,3614.4695 2044.498,3612.725 2044.498,3612.725 L2044.8185,3612.6245 C2044.4055,3613.931 2043.526,3616.024 2042.683,3617.392 L2041.8655,3619.1545 C2041.8655,3619.1545 2039.4455,3624.6085 2040.008,3625.3015 C2040.008,3625.3015 2040.7965,3628.308 2043.8995,3624.2255 L2045.8765,3622.1245 C2047.0315,3620.7045 2046.8515,3621.2855 2046.7285,3621.6235 L2045.8145,3623.6895 C2045.8145,3623.6895 2043.9215,3628.92 2044.685,3630.017 C2044.685,3630.017 2045.8895,3632.1145 2048.203,3628.1425 L2050.547,3624.0225 C2050.603,3624.0475 2050.649,3624.068 2050.6935,3624.0985 C2050.1495,3625.7245 2048.0555,3631.5725 2048.875,3632.5615 C2048.875,3632.5615 2050.57,3634.9925 2053.355,3630.6645 L2055.7535,3625.768 C2055.809,3625.7895 2055.8895,3625.802 2055.9555,3625.8195 C2055.5535,3627.8785 2054.6605,3634.5285 2058.0375,3631.223 C2058.0375,3631.223 2059.6945,3628.2 2061.6555,3623.7735 C2062.148,3622.798 2062.6285,3621.6595 2063.0965,3620.303 C2064.5055,3616.633 2065.5165,3613.01 2065.0985,3610.8365 C2065.4345,3608.2025 2064.8095,3601.5735 2064.155,3600.182 C2064.156,3600.181 2060.5155,3600.278 2051.351,3598.359 Z"/>
    </g>
  </g>
</svg>
