<?xml version="1.0" encoding="utf-8"?>
<!-- Generator: Adobe Illustrator 16.0.0, SVG Export Plug-In . SVG Version: 6.00 Build 0)  -->
<!DOCTYPE svg PUBLIC "-//W3C//DTD SVG 1.1//EN" "http://www.w3.org/Graphics/SVG/1.1/DTD/svg11.dtd">
<svg version="1.1" id="EXPAND_1_" xmlns="http://www.w3.org/2000/svg" xmlns:xlink="http://www.w3.org/1999/xlink" x="0px" y="0px"
	 width="450px" height="500px" viewBox="0 0 450 500" enable-background="new 0 0 450 500" xml:space="preserve">
<g>
	<g>
		<path fill="#CCE4F3" d="M225.002,487.025c109.072,0,197.494-88.422,197.494-197.494c0-109.076-88.422-197.496-197.494-197.496
			c-109.074,0-197.496,88.42-197.496,197.496C27.506,398.604,115.928,487.025,225.002,487.025"/>
	</g>
</g>
<g>
	<defs>
		<path id="SVGID_1_" d="M225.002,487.025c109.072,0,197.494-88.422,197.494-197.494c0-49.782,0-289.531,0-289.531H27.506
			c0,0,0,180.455,0,289.531C27.506,398.604,115.928,487.025,225.002,487.025"/>
	</defs>
	<clipPath id="SVGID_2_">
		<use xlink:href="#SVGID_1_"  overflow="visible"/>
	</clipPath>
	<g clip-path="url(#SVGID_2_)">
		<g>
			<path fill="#58485A" d="M109.811,46.249c0,0,18.064-31.746,72.794-16.422c0,0,0.479,0.254,1.293,0.771
				c5.982,2.185,20.997,10.047,30.073,35.711c0,0,9.462,43.052,15.403,71.573c0,0,8.619,25.982,24.993,10.138
				c0,0-2.412,43.179-61.282,29.095l-10.225-25.996l-14.065-79.7l1.946-8.692L153.757,63.8c6.238,6.633,13.799,12.305,13.799,12.305
				c-19.431-1.1-38.603-6.671-47.902-9.735l-0.539,26.947C119.114,93.316,97.226,73.064,109.811,46.249"/>
		</g>
		<g>
			<path fill="#8CC2E2" d="M50.814,485.703l-7.169,164.601c0,0-12.277,36.233-17.188,0l0.102-174.529L50.814,485.703z"/>
		</g>
		<g>
			<path fill="#8CC2E2" d="M366.497,467.677l-63.491-20.805c0,0-31.74-113.833-33.929-120.405
				c-2.192-6.568-27.368-122.597-27.368-122.597s87.886-12.119,101.323-13.058c21.411-1.488,31.092,1.122,31.092,1.122
				s23.463,3.162,23.022,46.967l-4.377,215.636C392.77,454.537,388.392,470.96,366.497,467.677"/>
		</g>
		<g>
			<path fill="#8CC2E2" d="M23.39,449.234l208.359-7.923l70.114,19.805l78.863,24.069c0,0,20.964,15.761-1.095,21.893
				L190.264,534.44L26.161,469.435C26.161,469.435,6.709,460.729,23.39,449.234"/>
		</g>
		<g>
			<path fill="#8CC2E2" d="M385.049,519.347l-5.637,175.703c0,0-15.343,36.83-21.487,0l0.979-169.762L385.049,519.347z"/>
		</g>
		<g>
			<path fill="#8CC2E2" d="M232.937,542.324l-13.323,188.187c0,0-17.393,40.479-24.352,0l0.043-183.037L232.937,542.324z"/>
		</g>
		<g>
			<path fill="#58485A" d="M47.899,677.837c-8.757,4.377-15.33,13.141-15.33,13.141c5.479,8.75,36.128-12.047,36.128-12.047
				l9.903-129.539l1.233-12.677l0.46-9.457l2.63-34.409l32.839-8.76l5.326,48.964l1.263,11.599l1.324,12.179l15.076,138.523
				c-13.137,5.472-18.61,13.137-18.61,13.137c14.229,4.376,37.211-10.952,37.211-10.952c0-25.173,5.483-186.083,5.483-186.083
				c12.037-1.093,65.694-8.784,65.694-8.784c53.88-7.922,61.804-26.939,61.804-26.939c36.449-80.823,7.136-209.471,7.136-209.471
				c-24.837-85.297-94.277-104.094-94.277-104.094l-3.427,33.317l-17.778-6.938l-8.334,4.695l-6.278-13.681
				c-28.447,1.205-26.305,172.026-26.305,172.026l-14.469,22.973c0,0-12.501,21.18-44.357,47.975
				c-0.911,0.766-1.742,1.627-2.607,2.445l9.301,18.54c-16.292,8.038-20.521-2.092-20.521-2.092
				c-32.354,7.131-29.846,26.675-29.846,26.675l1.436,32.226l0.275,11.639l0.618,8.459L47.899,677.837 M165.194,422.521
				c-25.322,8.337-55.169,10.754-62.123,14.787c22.552-13.072,49.06-28.364,61.736-49.49l11.32-32.859l7.924,58.627L165.194,422.521
				z"/>
		</g>
		<g>
			<path fill="#FFFFFF" d="M198.291,118.263c0,0,5.497,30.914,25.267,64.822c0,0,5.816,4.709-1.71,14.613
				c-5.132,6.751-7.398,7.893-10.265,11.855c-1.712,2.372-5.145,3.829-7.659,5.018c-11.609,5.488-9.835,8.301-21.295,8.08
				c0,0-3.979,10.285-8.635-5.792c-7.68-26.524-7.223-42.536-11.178-48.645c0,0-21.655,6.866-30.724-16.497l-12.16-29.485
				c0,0-3.56-0.564-5.503-2.253c-2.782-2.418-3.729-6.909,1.281-10.768l-2.799-44.61c0,0,40.491,0.256,60.193-11.24
				c0,0,13.489,21.314,15.678,39.375c0,0,10.74-2.818,14.38,5.065c0,0,4.108,13.068-5.433,18.5L198.291,118.263z"/>
		</g>
		<g>
			<path fill="#58485A" d="M162.156,102.075c0,2.268,0.736,4.1,1.641,4.1c0.91,0,1.646-1.832,1.646-4.1
				c0-2.272-0.735-4.104-1.646-4.104C162.893,97.971,162.156,99.803,162.156,102.075"/>
		</g>
		<g>
			<path fill="#58485A" d="M129.868,104.535c0,2.269,0.733,4.104,1.643,4.104c0.907,0,1.642-1.835,1.642-4.104
				c0-2.266-0.734-4.102-1.642-4.102C130.602,100.434,129.868,102.27,129.868,104.535"/>
		</g>
		<g>
			<path fill="#58485A" d="M149.521,149.4c-3.008,0-5.689-1.147-7.277-2.256c-0.695-0.484-0.865-1.44-0.38-2.136
				c0.483-0.693,1.438-0.863,2.132-0.383c0.283,0.193,6.936,4.652,12.304-1.72c0.547-0.646,1.514-0.731,2.162-0.184
				c0.647,0.546,0.729,1.514,0.184,2.162C155.784,148.277,152.493,149.4,149.521,149.4z"/>
		</g>
		<g>
			<path fill="#58485A" d="M123.607,71.333c0,0,15.787,4.85,45.985,8.285c0,0-9.938-6.699-14.294-10.662
				c0,0,10.789,2.587,18.255,6.438c0,0,9.509,3.959,9.509,30.369c0,0,3.696-13.994,16.01-12.242l-3.768-20.602l-20.202-23.372
				l-9.505-5.545l-51.1,11.091l-1.586,9.509C112.912,64.602,115.598,69.401,123.607,71.333"/>
		</g>
		<g>
			<path fill="#58485A" d="M215.164,186.314c-0.241,1.962,1.152,3.747,3.115,3.988c1.956,0.239,3.745-1.151,3.984-3.115
				c0.242-1.959-1.152-3.743-3.112-3.985C217.189,182.962,215.406,184.355,215.164,186.314"/>
		</g>
		<g>
			<path fill="#58485A" d="M220.447,179.099c-0.243,1.959,1.149,3.743,3.112,3.984c1.962,0.242,3.745-1.15,3.986-3.111
				c0.242-1.96-1.153-3.747-3.114-3.986C222.472,175.745,220.688,177.136,220.447,179.099"/>
		</g>
		<g>
			<path fill="#58485A" d="M210.221,194.374c-0.242,1.96,1.148,3.747,3.111,3.991c1.962,0.237,3.747-1.155,3.987-3.114
				c0.241-1.959-1.153-3.747-3.113-3.99C212.246,191.024,210.461,192.414,210.221,194.374"/>
		</g>
		<g>
			<path fill="#58485A" d="M202.895,201.22c-0.241,1.961,1.152,3.743,3.114,3.986c1.961,0.24,3.745-1.152,3.987-3.113
				c0.239-1.96-1.153-3.746-3.115-3.987C204.922,197.865,203.137,199.257,202.895,201.22"/>
		</g>
		<g>
			<path fill="#58485A" d="M194.662,207.162c-0.242,1.962,1.151,3.749,3.113,3.988c1.959,0.239,3.746-1.154,3.985-3.115
				c0.243-1.958-1.152-3.745-3.112-3.985C196.687,203.81,194.904,205.203,194.662,207.162"/>
		</g>
		<g>
			<path fill="#58485A" d="M184.002,209.909c-0.243,1.959,1.151,3.747,3.112,3.987c1.96,0.24,3.745-1.155,3.985-3.114
				c0.243-1.959-1.151-3.745-3.109-3.987C186.026,206.556,184.243,207.949,184.002,209.909"/>
		</g>
		<g>
			<path fill="#58485A" d="M175.911,205.974c-0.24,1.96,1.154,3.746,3.113,3.986c1.961,0.242,3.745-1.15,3.987-3.112
				c0.24-1.96-1.152-3.743-3.111-3.989C177.938,202.619,176.153,204.014,175.911,205.974"/>
		</g>
		<g>
			<path fill="#58485A" d="M168.156,196.968c-0.242,1.959,1.154,3.747,3.113,3.986c1.96,0.241,3.743-1.154,3.986-3.113
				c0.241-1.959-1.155-3.746-3.114-3.986S168.399,195.009,168.156,196.968"/>
		</g>
		<g>
			<path fill="#58485A" d="M163.139,187.194c-0.242,1.96,1.151,3.746,3.114,3.99c1.96,0.237,3.743-1.154,3.986-3.114
				c0.241-1.963-1.154-3.746-3.114-3.986C165.163,183.844,163.378,185.233,163.139,187.194"/>
		</g>
		<g>
			<path fill="#FFFFFF" d="M201.062,216.006c0,0-12.096,81.906-9.717,100.923c0,0-16.578-65.589-19.806-95.066L201.062,216.006z"/>
		</g>
		<g>
			<path fill="#8CC2E2" d="M196.689,248.152c0,0-12.611,1.041-22.039-6.121l15.861,85.23L196.689,248.152z"/>
		</g>
		<g>
			<path fill="#58485A" d="M166.388,192.148c0,0,8.387,25.309,12.073,29.049c0,0,5.284,36.259,4.154,50.409
				c-0.608,7.667-0.855,16.876,0.089,24.689c1.173,9.694,6.042,14.814,9.037,26.179c4.038,15.318,1.505,29.952,3.274,36.778
				l-8.716-6.338l-13.47-68.934l-7.923-57.054L166.388,192.148z"/>
		</g>
		<g>
			<path fill="#8CC2E2" d="M188.404,345.288c0,1.751,1.417,3.173,3.168,3.173c1.749,0,3.17-1.422,3.17-3.173
				c0-1.75-1.421-3.168-3.17-3.168C189.821,342.12,188.404,343.538,188.404,345.288"/>
		</g>
		<g>
			<path fill="#8CC2E2" d="M189.63,361.243c0,1.75,1.42,3.169,3.171,3.169c1.75,0,3.169-1.419,3.169-3.169
				c0-1.749-1.419-3.168-3.169-3.168C191.05,358.075,189.63,359.494,189.63,361.243"/>
		</g>
		<g>
			<path fill="#8CC2E2" d="M190.039,376.176c0,1.749,1.422,3.167,3.17,3.167c1.751,0,3.17-1.418,3.17-3.167
				c0-1.751-1.419-3.172-3.17-3.172C191.461,373.004,190.039,374.425,190.039,376.176"/>
		</g>
		<g>
			<path fill="#58485A" d="M197.73,116.302c0,0-8.066,41.753,15.35,56.896c0,0-3.346-13.207-0.71-20.764
				c0.315-0.9,0.67-1.683,1.062-2.302C217.129,144.321,213.08,112.805,197.73,116.302"/>
		</g>
		<g>
			<path fill="#58485A" d="M238.088,139.862c0,0-10.093-5.055-13.123-19.14l-0.743,18.35
				C224.222,139.072,231.665,143.043,238.088,139.862"/>
		</g>
		<g>
			<path fill="#FFFFFF" d="M88.367,443.885c0,0-4.019,3.736-11.757,5.25c0,0-8.168,1.917-11.611,3.686c0,0-2.231,1.285-4.345-1.224
				c0,0-0.709-2.062,1.472-3.491l3.33-3.269l6.764-9.098l7.449-8.017C79.669,427.723,87.641,437.617,88.367,443.885"/>
		</g>
		<g>
			<path fill="#FFFFFF" d="M79.409,426.573c0,0-22.909,8.369-30.643,19.682l-1.449,3.49c0,0,3.986-1.569,10.446-4.282
				c6.456-2.714,27.975-8.646,27.975-8.646L79.409,426.573z"/>
		</g>
		<g>
			<path fill="#8CC2E2" d="M114.502,446.767h0.047c-0.016,0.148-0.047,0.298-0.047,0.447c0,5.335,8.605,9.66,19.224,9.66
				c10.612,0,19.219-4.325,19.219-9.66c0-0.149-0.033-0.299-0.046-0.447h0.046v-4.398c4.907-0.456,8.754-4.8,8.754-10.096
				c0-5.298-3.847-9.643-8.754-10.103v-6.342h-0.001c0-5.336-8.605-9.659-19.218-9.659c-10.618,0-19.224,4.323-19.224,9.659V446.767
				z M152.944,437.376v-10.385c2.912,0.35,4.058,2.472,4.058,5.278C157.002,435.075,155.396,435.87,152.944,437.376"/>
		</g>
		<g>
			<path fill="#FFFFFF" d="M179.799,427.519c0,0-19.848-4.411-22.517-3.777c0,0-3.255,2.148-0.668,4.136
				c0,0,1.352,1.862-0.683,2.833c0,0-3.84,2.927,0.504,5.065c0,0,1.598,2.219-2.099,2.456c0,0-4.491,1.812,0.242,4.783
				c0,0,0.236,1.779-1.635,1.648c0,0-3.692,2.242,1.639,4.712c0,0,12.177,6.135,24.366-0.192
				C178.949,449.183,184.96,438.481,179.799,427.519"/>
		</g>
		<g>
			<path fill="#FFFFFF" d="M180.328,428.928c0,0-1.244-4.428-3.521-5.211c0,0-9.31-5.471-6.207,2.868L180.328,428.928z"/>
		</g>
		<g>
			<path fill="#FFFFFF" d="M117.605,415.722c0,3.723,7.034,6.734,15.713,6.734c8.68,0,15.714-3.012,15.714-6.734
				c0-3.72-7.034-6.733-15.714-6.733C124.64,408.988,117.605,412.002,117.605,415.722"/>
		</g>
		<g>
			<path fill="#58485A" d="M147.973,418.153c-2.275,2.517-7.979,4.303-14.656,4.303c-7.962,0-14.537-2.537-15.568-5.831
				C134.164,410.219,144.447,415.658,147.973,418.153"/>
		</g>
		<g>
			<path fill="#FFFFFF" d="M140.888,402.518c0,0-2.639-10.916,0.178-17.783c0,0,3.519-11.794,0.705-17.078
				c0,0,5.104,8.101,2.287,17.078C144.058,384.734,139.128,395.298,140.888,402.518"/>
		</g>
		<g>
			<path fill="#FFFFFF" d="M130.776,401.812c0,0-1.661-6.862,0.11-11.182c0,0,2.216-7.418,0.443-10.74c0,0,3.211,5.094,1.438,10.74
				C132.769,390.63,129.667,397.274,130.776,401.812"/>
		</g>
	</g>
</g>
</svg>
