<?xml version="1.0" encoding="utf-8"?>
<!-- Generator: Adobe Illustrator 16.0.0, SVG Export Plug-In . SVG Version: 6.00 Build 0)  -->
<!DOCTYPE svg PUBLIC "-//W3C//DTD SVG 1.1//EN" "http://www.w3.org/Graphics/SVG/1.1/DTD/svg11.dtd">
<svg version="1.1" id="EXPAND_1_" xmlns="http://www.w3.org/2000/svg" xmlns:xlink="http://www.w3.org/1999/xlink" x="0px" y="0px"
	 width="560px" height="450px" viewBox="0 0 560 450" enable-background="new 0 0 560 450" xml:space="preserve">
<g>
	<g>
		<g>
			<path fill="#FFFFFF" d="M458.81,315.946c20.617-26.805,32.903-60.348,32.903-96.783c0-87.765-71.14-158.908-158.907-158.908
				c-87.764,0-158.906,71.144-158.906,158.908c0,87.766,71.143,158.91,158.906,158.91c31.701,0,61.21-9.322,86.005-25.318
				l84.759,36.99L458.81,315.946z"/>
			<path fill="#574759" d="M513.531,398.457l-94.37-41.185c-25.903,16.231-55.714,24.801-86.355,24.801
				c-89.827,0-162.906-73.081-162.906-162.91c0-89.828,73.079-162.908,162.906-162.908s162.907,73.08,162.907,162.908
				c0,35.303-11.081,68.791-32.075,97.03L513.531,398.457z M418.444,348.23l75.163,32.803l-39.639-65.354l1.67-2.171
				c20.983-27.28,32.074-59.904,32.074-94.345c0-85.417-69.491-154.908-154.907-154.908s-154.906,69.492-154.906,154.908
				c0,85.418,69.49,154.91,154.906,154.91c29.819,0,58.81-8.534,83.836-24.68L418.444,348.23z"/>
		</g>
	</g>
	<g>
		<g>
			<path fill="#FFFFFF" d="M82.009,316.677c-11.787-15.32-18.811-34.494-18.811-55.316c0-50.164,40.67-90.83,90.83-90.83
				c50.166,0,90.83,40.666,90.83,90.83c0,50.16-40.664,90.826-90.83,90.826c-18.121,0-34.982-5.324-49.158-14.467L56.431,358.86
				L82.009,316.677z"/>
			<path fill="#574759" d="M46.471,367.571l30.719-50.662C65.41,300.67,59.198,281.522,59.198,261.36
				c0-52.29,42.541-94.83,94.83-94.83s94.83,42.541,94.83,94.83c0,52.287-42.541,94.826-94.83,94.826
				c-17.534,0-34.6-4.818-49.497-13.955L46.471,367.571z M154.028,174.53c-47.878,0-86.83,38.952-86.83,86.83
				c0,19.304,6.218,37.588,17.98,52.877l1.671,2.171l-20.459,33.741l38.845-16.954l1.803,1.163
				c14.027,9.046,30.275,13.828,46.99,13.828c47.878,0,86.83-38.95,86.83-86.826C240.858,213.482,201.906,174.53,154.028,174.53z"/>
		</g>
	</g>
</g>
</svg>
