<?xml version="1.0" encoding="utf-8"?>
<!-- Generator: Adobe Illustrator 16.0.0, SVG Export Plug-In . SVG Version: 6.00 Build 0)  -->
<!DOCTYPE svg PUBLIC "-//W3C//DTD SVG 1.1//EN" "http://www.w3.org/Graphics/SVG/1.1/DTD/svg11.dtd">
<svg version="1.1" id="EXPAND_1_" xmlns="http://www.w3.org/2000/svg" xmlns:xlink="http://www.w3.org/1999/xlink" x="0px" y="0px"
	 width="450px" height="500px" viewBox="0 0 450 500" enable-background="new 0 0 450 500" xml:space="preserve">
<g>
	<g>
		<path fill="#CCE4F3" d="M225.002,487.025c109.072,0,197.494-88.422,197.494-197.494c0-109.076-88.422-197.496-197.494-197.496
			c-109.074,0-197.496,88.42-197.496,197.496C27.506,398.604,115.928,487.025,225.002,487.025"/>
	</g>
</g>
<g>
	<defs>
		<path id="SVGID_1_" d="M225.002,487.025c109.072,0,197.494-88.422,197.494-197.494c0-49.782,0-289.531,0-289.531H27.506
			c0,0,0,180.455,0,289.531C27.506,398.604,115.928,487.025,225.002,487.025"/>
	</defs>
	<clipPath id="SVGID_2_">
		<use xlink:href="#SVGID_1_"  overflow="visible"/>
	</clipPath>
	<g clip-path="url(#SVGID_2_)">
		<g>
			<path fill="#57485A" d="M232.897,57.366c0,0,18.798,61.043-2.627,73.094l-18.706-39.141L232.897,57.366z"/>
		</g>
		<g>
			<path fill="#EE9870" d="M84.757,282.206c0,0,70.463-37.498,80.606-55.807c0,0,35.733-4.997,28.183,16.067
				c0,0-3.97,10.181-111.401,61.873l-2.286-9.656L84.757,282.206z"/>
		</g>
		<g>
			<polygon fill="#FFFFFF" points="59.482,319.3 44.595,252.297 37.639,229.966 29.68,214.99 102.46,207.97 115.047,237.484 
				117.509,247.655 135.808,323.265 137.936,352.354 60.954,341.002 60.954,327.877 			"/>
		</g>
		<g>
			<path fill="#8CC2E2" d="M276.146,212.618c0,0,86.172-12.371,96.232-12.232c4.187,0.058,7.606-0.514,7.606-0.514
				s14.808-1.872,15.169,35.602l1.912,164.031c0,0-2.933,12.586-19.652,10.621l-48.77-14.27c0,0-26.893-85.762-28.717-90.707
				C298.099,300.214,276.146,212.618,276.146,212.618"/>
		</g>
		<g>
			<path fill="#8CC2E2" d="M329.043,408.339l59.612,14.756c0,0,8.722,12.217-0.3,16.669l-143.295,25.4l-126.459-47.606
				c0,0-11.604-6.896-0.887-10.569l147.636-10.774L329.043,408.339z"/>
		</g>
		<g>
			<path fill="#8CC2E2" d="M129.684,431.357l-0.125,125.659c0,0-10.181,14.776-13.062,0.417l-2.205-134.629L129.684,431.357z"/>
		</g>
		<g>
			<path fill="#C0CDE9" d="M388.717,452.004l-3.032,113.911c0,0-4.56,12.544-16.531,4.809l-3.992-112.568L388.717,452.004z"/>
		</g>
		<g>
			<path fill="#8CC2E2" d="M271.653,469.559l-6.271,129.996c0,0-13.684,9.122-19.124-1.101l-1.401-123.195L271.653,469.559z"/>
		</g>
		<g>
			<path fill="#EE9C80" d="M228.366,111.449c0,0,4.47,40.584,1.09,50.74c0,0-8.227,47.254-20.215,55.644
				c0,0-6.862-49.886-12.961-58.687c0,0-27.817-2.414-32.061-19.203l-9.561-21.416c0,0-11.773-3.054-3.488-16.138l-3.715-40.192
				c0,0,36.528,0.949,55.191-10.754c0,0,12.746,18.108,15.416,35.476c0,0,13.792,0.581,15.066,7.414
				C233.13,94.333,235.729,106.865,228.366,111.449"/>
		</g>
		<g>
			<path fill="#57485A" d="M209.853,28.469c20.742,11.735,31.229,29.279,15.944,56.164c-1.254,2.206-1.927,10.278-3.544,12.526
				l-9.835-4.77l-12.122-31.881l-50.094,4.773l0.389,27.628c0,0-21.836-20.065-10.511-46.344
				C140.08,46.566,163.302,15.771,209.853,28.469"/>
		</g>
		<g>
			<path fill="#57485A" d="M193.458,94.843c0.069,2.191,0.834,3.941,1.706,3.915c0.878-0.03,1.533-1.825,1.464-4.016
				c-0.072-2.188-0.838-3.942-1.715-3.912C194.038,90.856,193.386,92.654,193.458,94.843"/>
		</g>
		<g>
			<path fill="#57485A" d="M162.359,98.218c0.069,2.188,0.837,3.939,1.713,3.913c0.875-0.027,1.527-1.825,1.457-4.014
				c-0.067-2.191-0.837-3.942-1.711-3.912C162.942,94.231,162.288,96.03,162.359,98.218"/>
		</g>
		<g>
			<path fill="#57485A" d="M145.777,63.866c0,0,25.998,9.056,52.219,9.701c0,0-18.204-12.765-21.466-22.055L145.777,63.866z"/>
		</g>
		<g>
			<path fill="#57485A" d="M190.343,569.859l-2.322,14.375c0,0-14.303,12.55-19.795,13.458c-5.506,0.917-2.622,16.116,23.605,8.134
				l22.857-10.771c0,0,5.08-5.763,3.467-18.473L190.343,569.859z"/>
		</g>
		<g>
			<path fill="#57485A" d="M142.38,556.922l-6.51,15.146c0,0-18.408,13.655-23.98,13.88c-5.572,0.212-6.158,13.627,17.66,9.352
				l28.773-6.148c0,0,2.73-8.283,6.635-20.235L142.38,556.922z"/>
		</g>
		<g>
			<path fill="#EE9870" d="M230.864,142.989c0,0-4.164,9.152,12.202,13.312l-1.663,32.729l-5.27,34.671
				c0,0-34.115,0.554-34.115-0.279c0-0.831-16.92-35.502-16.92-35.502s14.145-6.104,12.482-27.182l17.196-5.271l9.982-10.261
				L230.864,142.989z"/>
		</g>
		<g>
			<path fill="#57485A" d="M153.14,460.843l-15.739-2.814l4.678,114.396c0,0,4.714,9.795,13.058-0.234L153.14,460.843z"/>
		</g>
		<g>
			<path fill="#7492C9" d="M195.011,248.1l-2.897,140.975c-0.11,0.86,16.492,6.654,16.252,7.505
				c14.719,5.123,68.85,24.78,129.176,8.141c-6.61-73.318-29.239-149.458-29.239-149.458
				c-24.097-104.478-68.617-107.406-68.617-107.406s-30.511,54.207-35.031,56.151c-1.978,0.853-9.179-29.968-9.179-29.968
				c-10.245,7.242-23.466,28.374-40.193,54.063c3.442,8.554,12.007,29.324,17.702,36.429
				C178.277,261.58,195.011,248.1,195.011,248.1"/>
		</g>
		<g>
			<path fill="#EE9870" d="M152.59,310.538c0,0,77.909-8.426,90.977-20.482c0,0,0.067-10.764-0.448-31.031l44.64-0.857
				c0,0-10.303,43.781-25.755,52.37c0,0-34.074,7.534-93.875,12.714l-16.951,1.413L152.59,310.538z"/>
		</g>
		<g>
			<path fill="#EE9870" d="M154.051,310.417c0,0-9.709-3.938-14.032-4.865l-6.206-3.839c-6.426-2.427-2.766,3.294-2.766,3.294
				l0.22,0.36c-1.717-0.111-4.528-0.559-6.451-1.174l-2.39-0.47c0,0-7.372-1.313-8.047-0.42c0,0-3.429,1.859,2.478,4.418
				l3.151,1.781c2.075,0.98,1.315,0.936,0.864,0.886l-2.791-0.495c0,0-6.938-0.739-8.049,0.521c0,0-2.195,2.095,3.339,3.725
				l5.723,1.623c-0.015,0.076-0.026,0.136-0.05,0.2c-2.143-0.176-9.896-0.978-10.859,0.32c0,0-2.453,2.793,3.658,4.891l6.683,1.457
				c-0.009,0.073,0,0.175-0.001,0.264c-2.632,0.126-11,1.026-5.963,4.152c0,0,4.183,1.113,10.162,2.176
				c1.337,0.31,2.868,0.556,4.662,0.722c4.896,0.614,9.608,0.762,12.133-0.399c3.312-0.378,16.89-4.694,18.391-5.907
				C157.909,323.637,160.242,321.868,154.051,310.417"/>
		</g>
		<g>
			<path fill="#7492C9" d="M209.228,397.883c0,0-83.207,27.459-79.88,49.924c0,0-0.831,102.347,3.33,124.812
				c0,0,22.466,7.49,32.451,5.826c0,0-3.327-121.484,3.328-123.98c0,0,45.764-31.619,72.392-34.947c0,0,23.298-4.993,24.13-16.642
				l-25.795-9.152L209.228,397.883z"/>
		</g>
		<g>
			<path fill="#7492C9" d="M269.139,397.883c0,0-91.804,27.459-88.478,49.924c0,0-4.715,110.667-0.553,133.133
				c0,0,28.289,7.211,44.377-2.219c0,0-0.833-118.432,5.823-120.929c0,0-1.527-5.546,76.274-32.172c0,0,23.514-13.594,17.889-29.818
				l-25.378-2.079L269.139,397.883z"/>
		</g>
		<g>
			<path fill="#EE9870" d="M50.69,289.984c0,0,5.914-0.878,6.386,2.93c0,0,1.655,5.567-5.911,4.101
				C51.165,297.015,47.853,294.965,50.69,289.984"/>
		</g>
		<g>
			<path fill="#EE9870" d="M52.223,296.875c0,0,5.912-0.879,6.385,2.93c0,0,1.655,5.565-5.914,4.101
				C52.693,303.905,49.384,301.854,52.223,296.875"/>
		</g>
		<g>
			<path fill="#EE9870" d="M53.943,303.764c0,0,5.913-0.877,6.387,2.93c0,0,1.655,5.568-5.913,4.102
				C54.417,310.795,51.106,308.744,53.943,303.764"/>
		</g>
		<g>
			<path fill="#EE9870" d="M55.312,310.799c0,0,5.912-0.879,6.387,2.93c0,0,1.655,5.567-5.915,4.101
				C55.784,317.829,52.474,315.779,55.312,310.799"/>
		</g>
		<g>
			<path fill="#57485A" d="M179.704,135.941c-3.261,0-4.982-0.851-5.104-0.913c-0.729-0.373-1.016-1.267-0.642-1.995
				c0.372-0.724,1.257-1.014,1.979-0.649c0.104,0.047,4.299,1.931,12.465-1.279c0.758-0.3,1.621,0.074,1.921,0.837
				c0.3,0.762-0.074,1.622-0.837,1.921C185.396,135.473,182.125,135.941,179.704,135.941z"/>
		</g>
	</g>
</g>
</svg>
