<?xml version="1.0" encoding="utf-8"?>
<!-- Generator: Adobe Illustrator 16.0.0, SVG Export Plug-In . SVG Version: 6.00 Build 0)  -->
<!DOCTYPE svg PUBLIC "-//W3C//DTD SVG 1.1//EN" "http://www.w3.org/Graphics/SVG/1.1/DTD/svg11.dtd">
<svg version="1.1" id="EXPAND_1_" xmlns="http://www.w3.org/2000/svg" xmlns:xlink="http://www.w3.org/1999/xlink" x="0px" y="0px"
	 width="1500px" height="600px" viewBox="0 0 1500 600" enable-background="new 0 0 1500 600" xml:space="preserve">
<g>
</g>
<g>
</g>
<g>
</g>
<g>
</g>
<g>
	<defs>
		<rect id="SVGID_1_" width="1500" height="600"/>
	</defs>
	<clipPath id="SVGID_2_">
		<use xlink:href="#SVGID_1_"  overflow="visible"/>
	</clipPath>
	<g clip-path="url(#SVGID_2_)">
		<defs>
			<circle id="SVGID_3_" cx="752.311" cy="-3036.299" r="3636.229"/>
		</defs>
		<use xlink:href="#SVGID_3_"  overflow="visible" fill="#0F989A"/>
		<clipPath id="SVGID_4_">
			<use xlink:href="#SVGID_3_"  overflow="visible"/>
		</clipPath>
		<g clip-path="url(#SVGID_4_)">
			<g>
				<path fill="#D5D1D5" d="M1204.682,524.076L1211,579.5l-151,23l-0.666-60.825C1108,552.154,1204.682,524.076,1204.682,524.076z"
					/>
			</g>
			<g>
				<path fill="#FFFFFF" d="M1207.49,548.717l-5.914-51.889l-10.285-127.662c0,0,19.729,109.619,19.729,151.834
					c0,0,36.48,15,42.98,0s-13.727-171.234-13.727-171.234c-29.145-100.091-106.088-103.406-106.088-103.406l-8.565,20.352
					l-20.862-8.141l-9.777,5.511l-2.832-6.17c-36.557,37.232-43.602,88.211-43.602,88.211l-1.967,4.804l-0.043,4.461l-0.961,6.906
					l-10.312,35.371l-2.043,9.539c10.683,1.482,21.983-5.539,23.171-7.515l0,0l2.253,97.14l0.688,72.846
					C1103.002,585,1207.49,548.717,1207.49,548.717z"/>
			</g>
			<g>
				<path fill="#574759" d="M1063.708,226.729c0,0,1.267,15.904-6.92,20.85c0,0,26.633-2.812,34.571-14.225l-8.204-9.428
					L1063.708,226.729z"/>
			</g>
			<g>
				<path fill="#574759" d="M1120.389,222.15c2.71-2.032,14.908,8.132,14.908,8.132s42.012,4.743,48.11-33.203
					c-12.876,6.099-20.278-10.888-20.278-10.888c-6.972-33.468-8.182-38.579-8.182-38.579c-8.039-34.292-7.506-37.003-18.973-60.985
					c-0.955-0.607-17.619-21.684-17.619-21.684c-58.248-42.625-97.09,26.646-97.09,26.646
					c-14.766,31.471,10.918,55.234,10.918,55.234l0.631-31.623c10.916,3.596,33.411,10.133,56.216,11.423
					c0,0-8.872-6.655-16.195-14.438l19.931-1.259l-2.285,10.202l16.508,93.521l9.297,23.639
					C1117.797,229.799,1119.307,222.961,1120.389,222.15z"/>
			</g>
			<g>
				<path fill="#F0B4A7" d="M1148.94,261.818c-18.468-47.584-23.847-85.721-23.847-85.721l-0.995-7.279
					c10.541-4.064,6.714-16.732,6.714-16.732c-4.273-9.252-16.875-5.945-16.875-5.945c-2.568-21.191-18.399-46.205-18.399-46.205
					c-23.118,13.489-70.63,13.189-70.63,13.189l3.285,52.35c-3.451,4.711-3.643,9.795-0.377,12.636
					c2.279,1.982,5.328,2.644,5.328,2.644l14.268,34.598c10.645,27.418,36.055,17.457,36.055,17.457
					c4.639,7.168,9.637,58.312,18.649,89.438C1102.116,322.246,1145.93,305.984,1148.94,261.818z"/>
			</g>
			<g>
				<path fill="#574759" d="M1069.029,160.747c0.197,2.651,1.219,4.738,2.277,4.659c1.062-0.08,1.766-2.294,1.566-4.946
					c-0.199-2.657-1.223-4.739-2.285-4.659C1069.529,155.881,1068.83,158.09,1069.029,160.747"/>
			</g>
			<g>
				<path fill="#574759" d="M1034.085,163.964c0,2.662,0.86,4.816,1.929,4.816c1.063,0,1.927-2.154,1.927-4.816
					c0-2.659-0.863-4.815-1.927-4.815C1034.945,159.148,1034.085,161.305,1034.085,163.964"/>
			</g>
			<g>
				<path fill="#574759" d="M1067.394,212.04c-2.871,0-6.062-0.766-9.414-2.873c-0.585-0.368-0.761-1.14-0.394-1.724
					c0.369-0.585,1.143-0.761,1.724-0.394c10.543,6.631,19.236-2.124,19.324-2.214c0.481-0.493,1.272-0.508,1.768-0.025
					c0.495,0.48,0.507,1.271,0.025,1.768C1080.354,206.653,1075.003,212.04,1067.394,212.04z"/>
			</g>
			<g>
				<g>
					<g>
						<path fill="#574759" d="M1124.725,353.122l0.004-0.023c0.121-1.823,1.672-3.237,3.627-3.107
							c1.957,0.128,3.298,1.71,3.175,3.534v0.023c-0.123,1.812-1.673,3.227-3.639,3.094
							C1125.946,356.518,1124.605,354.934,1124.725,353.122z M1130.065,353.475l0.001-0.023c0.077-1.122-0.672-2.107-1.818-2.183
							c-1.175-0.078-1.984,0.79-2.056,1.901l-0.003,0.024c-0.073,1.112,0.672,2.095,1.809,2.17
							C1129.182,355.441,1129.993,354.573,1130.065,353.475z"/>
					</g>
					<g>
						<path fill="#574759" d="M1132.514,351.068c0.028-0.414,0.361-0.717,0.772-0.69c0.414,0.027,0.716,0.374,0.688,0.784
							l-0.021,0.316c0.451-0.565,1.074-1.048,2.068-0.98c1.436,0.096,2.207,1.116,2.108,2.59l-0.226,3.406
							c-0.025,0.412-0.361,0.705-0.774,0.678c-0.409-0.027-0.716-0.362-0.688-0.773l0.197-2.961
							c0.066-0.988-0.393-1.591-1.262-1.647c-0.846-0.056-1.475,0.497-1.541,1.487l-0.197,2.935
							c-0.027,0.41-0.373,0.703-0.783,0.675c-0.398-0.025-0.705-0.361-0.677-0.77L1132.514,351.068z"/>
					</g>
					<g>
						<path fill="#574759" d="M1141.933,357.575c-1.848-0.124-3.185-1.558-3.054-3.526v-0.025c0.121-1.822,1.514-3.236,3.338-3.115
							c2.029,0.135,2.92,1.868,2.823,3.34c-0.023,0.412-0.361,0.683-0.733,0.658l-3.998-0.266c0.086,1.047,0.786,1.678,1.727,1.742
							c0.616,0.039,1.113-0.146,1.547-0.457c0.116-0.078,0.217-0.121,0.385-0.107c0.326,0.021,0.561,0.291,0.539,0.629
							c-0.011,0.183-0.105,0.334-0.223,0.436C1143.668,357.364,1142.924,357.642,1141.933,357.575z M1143.631,353.89
							c-0.031-0.948-0.54-1.722-1.505-1.786c-0.894-0.061-1.567,0.588-1.767,1.57L1143.631,353.89z"/>
					</g>
					<g>
						<path fill="#574759" d="M1145.926,354.625l0.002-0.026c0.115-1.727,1.59-3.133,3.354-3.015
							c1.063,0.069,1.73,0.576,2.255,1.133c0.045,0.051,0.074,0.139,0.068,0.223c-0.01,0.166-0.152,0.291-0.323,0.283
							c-0.071-0.008-0.153-0.037-0.198-0.088c-0.464-0.502-1.018-0.94-1.85-0.996c-1.4-0.092-2.566,1.006-2.663,2.482l-0.005,0.021
							c-0.098,1.486,0.945,2.746,2.361,2.837c0.795,0.054,1.461-0.29,1.992-0.753c0.049-0.045,0.115-0.091,0.199-0.082
							c0.144,0.008,0.279,0.162,0.27,0.307c-0.006,0.061-0.034,0.133-0.086,0.176c-0.657,0.59-1.398,0.977-2.449,0.908
							C1147.078,357.915,1145.811,356.352,1145.926,354.625z"/>
					</g>
					<g>
						<path fill="#574759" d="M1152.049,356.305l0.003-0.023c0.085-1.279,1.231-1.935,2.825-1.826
							c0.859,0.055,1.443,0.203,2.025,0.4l0.018-0.266c0.082-1.245-0.639-1.936-1.905-2.018c-0.677-0.049-1.255,0.084-1.777,0.292
							c-0.051,0.021-0.101,0.03-0.136,0.028c-0.145-0.01-0.271-0.152-0.262-0.299c0.012-0.143,0.127-0.23,0.189-0.252
							c0.646-0.236,1.275-0.373,2.057-0.324c0.834,0.055,1.484,0.329,1.903,0.805c0.383,0.439,0.563,1.021,0.513,1.781l-0.238,3.589
							c-0.012,0.181-0.141,0.292-0.309,0.28c-0.174-0.01-0.283-0.139-0.272-0.32l0.052-0.772c-0.461,0.562-1.261,1.091-2.432,1.015
							C1153.155,358.318,1151.965,357.586,1152.049,356.305z M1156.831,356.102l0.048-0.699c-0.513-0.17-1.191-0.359-2.072-0.418
							c-1.304-0.086-2.068,0.446-2.125,1.301l-0.001,0.024c-0.06,0.896,0.752,1.469,1.695,1.532
							C1155.632,357.924,1156.756,357.224,1156.831,356.102z"/>
					</g>
					<g>
						<path fill="#574759" d="M1158.623,352.604c0.015-0.168,0.143-0.296,0.312-0.281c0.171,0.009,0.294,0.138,0.28,0.321
							l-0.1,1.497c0.611-1.16,1.73-1.742,2.602-1.685c0.18,0.013,0.305,0.166,0.291,0.349c-0.01,0.168-0.145,0.305-0.334,0.303
							c-1.312,0.035-2.552,0.938-2.684,2.916l-0.147,2.271c-0.013,0.17-0.14,0.295-0.312,0.283c-0.17-0.012-0.291-0.143-0.281-0.322
							L1158.623,352.604z"/>
					</g>
					<g>
						<path fill="#574759" d="M1164.603,359.078c-1.62-0.105-2.933-1.492-2.806-3.414l0.001-0.023
							c0.118-1.787,1.469-3.129,3.136-3.02c1.728,0.113,2.732,1.613,2.615,3.377c-0.011,0.145-0.164,0.268-0.307,0.258l-4.834-0.32
							c0.01,1.543,1.048,2.508,2.256,2.588c0.879,0.058,1.521-0.261,2.048-0.713c0.051-0.046,0.114-0.076,0.2-0.072
							c0.156,0.012,0.281,0.139,0.271,0.297c-0.006,0.061-0.033,0.133-0.109,0.199
							C1166.43,358.801,1165.715,359.152,1164.603,359.078z M1166.924,355.701c-0.002-1.25-0.637-2.444-2.051-2.537
							c-1.219-0.08-2.229,0.883-2.43,2.24L1166.924,355.701z"/>
					</g>
				</g>
				<g>
					<g>
						<path fill="#ED1651" d="M1171.883,352.414c-0.01,0.143-0.134,0.254-0.281,0.244l-1.318-0.088
							c-0.143-0.01-0.254-0.137-0.243-0.281l0.087-1.318c0.011-0.144,0.137-0.255,0.28-0.244l1.319,0.087
							c0.145,0.01,0.254,0.138,0.243,0.279L1171.883,352.414z"/>
					</g>
					<g>
						<path fill="#F27022" d="M1173.961,354.783c-0.011,0.144-0.135,0.256-0.279,0.247l-1.322-0.088
							c-0.145-0.01-0.252-0.135-0.241-0.278l0.087-1.324c0.008-0.142,0.135-0.25,0.277-0.241l1.322,0.087
							c0.143,0.008,0.252,0.133,0.242,0.279L1173.961,354.783z"/>
					</g>
					<g>
						<path fill="#007AC3" d="M1176.037,357.156c-0.01,0.141-0.135,0.252-0.279,0.246l-1.32-0.088
							c-0.145-0.012-0.252-0.138-0.244-0.279l0.088-1.321c0.009-0.146,0.135-0.255,0.279-0.245l1.32,0.086
							c0.145,0.011,0.254,0.137,0.248,0.28L1176.037,357.156z"/>
					</g>
					<g>
						<path fill="#A72F8D" d="M1171.291,361.309c-0.008,0.145-0.133,0.255-0.276,0.243l-1.322-0.088
							c-0.146-0.009-0.253-0.133-0.243-0.278l0.089-1.32c0.007-0.145,0.135-0.254,0.28-0.243l1.32,0.086
							c0.142,0.009,0.254,0.134,0.24,0.28L1171.291,361.309z"/>
					</g>
					<g>
						<path fill="#0F989A" d="M1173.666,359.232c-0.012,0.144-0.134,0.254-0.278,0.244l-1.321-0.089
							c-0.145-0.009-0.255-0.133-0.245-0.275l0.089-1.325c0.009-0.143,0.133-0.25,0.277-0.241l1.32,0.087
							c0.145,0.009,0.254,0.137,0.244,0.278L1173.666,359.232z"/>
					</g>
				</g>
			</g>
			<g>
				<polygon fill="#574759" points="1122.969,362.293 1175.141,366.514 1174.99,381.869 1123.793,375.546 				"/>
			</g>
			<g>
				<path fill="#574759" d="M1171.124,431.167c-0.001,0-0.002,0-0.002,0c-14.684,0-41.114-7.21-41.38-7.282l-0.196-0.055
					l-0.103-0.176c-2.646-4.544-5.121-49.22-5.225-51.119l-0.028-0.507l50.872-2.039l2.082,60.59l-0.405,0.09
					C1175.25,431,1173.36,431.167,1171.124,431.167z M1130.217,422.977c2.522,0.681,27.046,7.19,40.905,7.19c0,0,0.001,0,0.002,0
					c1.963,0,3.64-0.131,4.992-0.391l-2.019-58.748l-48.853,1.959C1126.126,388.893,1128.242,418.795,1130.217,422.977z"/>
			</g>
			<g>
				<path fill="#574759" d="M1149.554,243.897c0,0,5.081,34.892-37.87,73.63l17.544,16.141
					C1129.228,333.668,1188.207,254.242,1149.554,243.897z"/>
			</g>
			<g>
				<path fill="#574759" d="M1100.682,317.018c0,0-8.754,6.098-18.918,12.196c0,0-4.651-43.084,7.839-68.637
					C1089.603,260.577,1096.059,296.466,1100.682,317.018z"/>
			</g>
			<g>
				<path fill="#574759" d="M1141.897,242.359c0,0,7.644,0.293,11.64,3.006l-4.67,15.675
					C1148.867,261.04,1142.831,251.008,1141.897,242.359z"/>
			</g>
			<g>
				<path fill="#574759" d="M1108.191,356.885c0,2.058-1.67,3.726-3.727,3.726c-2.058,0-3.727-1.668-3.727-3.726
					c0-2.061,1.669-3.729,3.727-3.729C1106.521,353.156,1108.191,354.824,1108.191,356.885z"/>
			</g>
			<g>
				<circle fill="#574759" cx="1110.224" cy="411.885" r="3.728"/>
			</g>
			<g>
				<circle fill="#574759" cx="1115.646" cy="461.689" r="3.728"/>
			</g>
			<g>
				<g>
					<path fill="#574759" d="M1037.547,172.961c-4.115,0-7.935-1.258-8.096-1.312c-5.654-1.495-5.515-16.097-5.48-17.757
						l0.017-0.779l21.781-5.025l0.341,0.738c2.807,6.081,0.697,19.078,0.605,19.628l-0.029,0.181l-0.093,0.159
						C1045.009,171.52,1041.881,172.961,1037.547,172.961z M1025.962,154.711c-0.015,5.697,1.03,14.221,4.062,15.023
						c0.096,0.03,3.742,1.227,7.523,1.227c3.542,0,5.972-1.016,7.225-3.019c0.234-1.528,1.754-12.085-0.176-17.531L1025.962,154.711
						z"/>
				</g>
				<g>
					
						<rect x="1032.274" y="140.99" transform="matrix(0.1774 0.9841 -0.9841 0.1774 1000.7898 -893.3541)" fill="#574759" width="4.999" height="21.953"/>
				</g>
			</g>
			<g>
				<g>
					<path fill="#574759" d="M1072.994,168.68C1072.994,168.68,1072.994,168.68,1072.994,168.68c-4.713,0-9.075-1.33-9.259-1.387
						c-6.651-1.559-6.167-17.982-6.09-19.85l0.031-0.762l24.193-5.583l0.365,0.658c3.503,6.308,1.479,21.255,1.391,21.889
						l-0.026,0.194l-0.1,0.171C1081.699,167.108,1078.164,168.68,1072.994,168.68z M1059.619,148.286
						c-0.156,6.453,0.93,16.207,4.64,17.078c0.108,0.031,4.333,1.315,8.734,1.315c4.306,0,7.224-1.18,8.678-3.509
						c0.22-1.719,1.673-14.057-0.854-19.776L1059.619,148.286z"/>
				</g>
				<g>
					
						<rect x="1067.152" y="132.973" transform="matrix(0.1774 0.9841 -0.9841 0.1774 1022.9195 -933.1649)" fill="#574759" width="4.999" height="24.652"/>
				</g>
			</g>
			<g>
				<path fill="#574759" d="M1046.568,153.112l-0.939-1.766c0.271-0.145,6.702-3.498,13.335-1.267l-0.637,1.896
					C1052.502,150.019,1046.626,153.082,1046.568,153.112z"/>
			</g>
			<g>
				
					<rect x="1103.83" y="120.855" transform="matrix(0.0617 0.9981 -0.9981 0.0617 1182.3477 -968.5668)" fill="#574759" width="5" height="47.446"/>
			</g>
			<g>
				<path fill="#574759" d="M1023.068,111.754c0,0,9.486,23.036,74.982,5.872c0,0-21.574-2.099-27.554-4.969
					c0,0,27.241,1.409,35.683,0.452l11.746,0.902c0,0-5.872-4.517,0-7.227l-24.845-13.1l-30.715,1.355
					c0,0-20.325,0.451-21.682,1.807C1039.33,98.203,1023.068,111.754,1023.068,111.754z"/>
			</g>
			<g>
				<path fill="#574759" d="M1111.918,470.997l-53.273-140.1c0,0-1.709-2.434-6.719-1.684l-74.439,1.585
					c0,0-7.594-2.287-0.801,14.32l0.257,0.08l-0.069,0.404l46.34,124.287l76.82,7.082l0.016,0.027c0,0,2.83,0.78,5.727,0.503
					l0.721,0.066l-0.057-0.156C1109.247,476.973,1111.918,475.41,1111.918,470.997z"/>
			</g>
			<g>
				<g>
					<path fill="#F0B4A7" d="M993.232,411.188c0,0,17.859-4.377,21.248-0.266c0,0,4.811,4.398-3.979,7.696l-11.378,2.308
						C999.123,420.926,985.609,419.301,993.232,411.188z"/>
				</g>
				<g>
					<path fill="#F0B4A7" d="M997.399,422.852c0,0,15.361-4.493,22.108-1.592c0,0,4.812,4.402-3.976,7.691l-11.38,2.309
						C1004.152,431.26,993.122,431.956,997.399,422.852z"/>
				</g>
				<g>
					<path fill="#F0B4A7" d="M1004.369,432.693c0,0,12.805-2.805,18.297-0.452c0,0,3.91,3.585-3.244,6.268l-9.259,1.87
						C1010.163,440.379,1000.889,440.1,1004.369,432.693z"/>
				</g>
				<g>
					<path fill="#F0B4A7" d="M998.344,408.258c0,0,3.281-0.936,5.95-3.415c0,0,1.665-4.452-2.37-5.671c0,0-6.336,1.156-7.385-0.672
						l-3.021,3.293c0,0-0.602,3.187,1.287,5.852C992.805,407.645,994.494,410.066,998.344,408.258z"/>
				</g>
			</g>
		</g>
		<g clip-path="url(#SVGID_4_)">
			<g>
				<path fill="#C27A60" d="M851.371,457.289c0,0-8.432,8.186-11.338,12.206l-6.747,4.635c-5.395,5.498,2.132,4.326,2.132,4.326
					l0.469-0.062c-0.891,1.711-2.619,4.398-4.121,6.09l-1.562,2.245c0,0-4.682,6.972-4.07,8.069c0,0,0.361,4.36,5.657-0.545
					l3.252-2.432c1.946-1.688,1.556-0.926,1.303-0.487l-1.771,2.642c0,0-3.896,6.791-3.104,8.498c0,0,1.159,3.201,5.333-1.743
					l4.253-5.142c0.071,0.049,0.13,0.088,0.185,0.142c-1.15,2.122-5.477,9.72-4.58,11.29c0,0,1.758,3.783,6.672-1.54l4.517-6.204
					c0.072,0.043,0.181,0.08,0.269,0.12c-1.059,2.757-3.915,11.759,1.57,7.997c0,0,3.033-3.787,6.83-9.447
					c0.92-1.232,1.863-2.693,2.842-4.461c2.847-4.745,5.129-9.521,5.079-12.637c1.106-3.569,2.813-19.459,2.245-21.547
					C866.684,459.303,865.924,456.105,851.371,457.289z"/>
			</g>
			<g>
				<g>
					<path fill="#574759" d="M705.731,528.326c0,0-5.536,136.008,1.935,138.008c14.218,3.807,41.467,9.027,63.821,14.805
						c3.983,1.029,6.132-96.624,10.033-95.659c6.146,1.521,6.868,99.14,9.32,99.434C809.869,687.194,827.33,684.302,838,670
						c8.822-11.824,4.914-156.378,4.914-156.378C816.414,534.609,705.731,528.326,705.731,528.326z"/>
				</g>
				<g>
					<path fill="#574759" d="M763.386,83.415c0,0-18.337,3.149-15.554,15.697c0,0-25.12,16.03-9.482,31.825
						c0,0-12.561,31.449,9.482,39.226c0,0-9.895,10.979,3.471,17.79c0,0-6.483,27.177,17.058,25.512c0,0,4.001,19.993,27.079,14.674
						l38.766-62.76l34.314-49.25l21.369,54.034c0,0,16.447-4.381,11.449-19.511c0,0,11.828-9.577,3.649-27.724
						c0,0,11.824-12.377-1.423-15.753c0,0,8.12-25.474-14.104-16.725c0,0-2.301-30.837-18.031-20.636c0,0-9.594-11.476-21.21-7.226
						c0,0-6.866-17-22.704-4.675c0,0-14.982-10.2-21.392-0.85c0,0-21.646-10.849-29.062,13.923
						C777.062,70.988,758.687,64.729,763.386,83.415z"/>
				</g>
				<g>
					<path fill="#CFEAEB" d="M705.731,528.326c3.64-62.649,9.339-155.441,30.491-209.523c2.041-5.221-12.003,44.912-27.076,75.68
						c-4.109,8.389,42.122,24.229,60.387,31.439c0,0-6.082,24.589-11.107,23.093c-30.889-9.194-99.807-16.896-93.889-37.913
						c13.498-47.943,44.006-114.379,51.688-128.928c17.215-32.615,79.716-72.163,79.716-72.163l3.697,35.927l19.17-7.484
						l8.985,5.064l6.771-14.752c30.678,1.3,49.206,115.504,48.539,154.838c-0.099,5.839-14.666,82.666-14.666,82.666
						s-13.426,0.68-24-5.467c0,0,5.879-60.792,7.086-70.055s-7.086-47.279-7.086-47.279s5.581,143.204-1.262,181.535
						S705.731,528.326,705.731,528.326z"/>
				</g>
				<g>
					<path fill="#C27A60" d="M798.465,174.248c0,0-4.273,21.756-25.592,58.318c0,0-6.27,5.078,1.847,15.758
						c5.533,7.277,7.979,8.51,11.067,12.784c1.846,2.556,5.549,4.128,8.259,5.409c12.519,5.918,10.608,8.953,22.962,8.715
						c0,0,4.294,11.088,9.312-6.244c8.283-28.602,6.135-34.285,10.397-40.875c0,0,23.353,7.404,33.134-17.791l13.109-31.795
						c0,0,3.84-0.604,5.936-2.43c3.002-2.609,4.021-7.447-1.383-11.611l0.446-40.502c0,0-41.089-7.326-62.334-19.721
						c0,0-14.547,22.983-16.909,42.457c0,0-11.578-3.037-15.505,5.465c0,0-4.427,14.091,5.858,19.949L798.465,174.248z"/>
				</g>
				<g>
					<path fill="#574759" d="M837.43,156.79c0,2.442-0.792,4.429-1.768,4.429c-0.979,0-1.773-1.986-1.773-4.429
						c0-2.446,0.794-4.423,1.773-4.423C836.638,152.367,837.43,154.344,837.43,156.79"/>
				</g>
				<g>
					<path fill="#574759" d="M872.248,159.446c0,2.445-0.789,4.427-1.771,4.427c-0.976,0-1.771-1.981-1.771-4.427
						c0-2.443,0.795-4.427,1.771-4.427C871.459,155.02,872.248,157.003,872.248,159.446"/>
				</g>
				<g>
					<path fill="#574759" d="M840.379,209.491c-2.975,0-6.228-0.864-9.271-3.479c-0.523-0.45-0.584-1.239-0.134-1.763
						c0.448-0.523,1.237-0.583,1.763-0.134c7.461,6.41,16.392,0.285,16.768,0.021c0.563-0.396,1.344-0.26,1.74,0.304
						c0.396,0.564,0.263,1.343-0.301,1.74C850.872,206.231,846.152,209.491,840.379,209.491z"/>
				</g>
				<g>
					<path fill="#574759" d="M803.852,145.152c0,0,4.963,11.631,7.446,11.638c0,0,5.837,0.009,4.159-17.363
						c0,0,7.341-9.138,3.66-23.39c0,0,11.017,7.947,38.842,7.414c0,0,37.18,5.416,40.479-1.204l-5.241-8.054l-72.801-14.062
						l-16.545,10.857v15.612V145.152z"/>
				</g>
				<g>
					<path fill="#574759" d="M815.457,115.321c0,0-6.226,3.617,51.252,13.139c0,0-5.441-8.067-8.75-13.519L815.457,115.321z"/>
				</g>
				<g>
					<path fill="#C27A60" d="M770.703,239.984c0,0-1.297,31.033,8.488,44.338c0,0,12.391,13.41,24.162,12.322
						c10.077-0.931,20.061-11.918,24.639-19.738c5.516-9.422,10.852-19.962,7.666-46.878l-24.48-5.046l-23.6,8.06L770.703,239.984z"
						/>
				</g>
				<g>
					<circle fill="#574759" cx="800.762" cy="337.346" r="4.455"/>
				</g>
				<g>
					<circle fill="#574759" cx="793.835" cy="384.524" r="4.456"/>
				</g>
				<g opacity="0.3">
					<path fill="#574759" d="M712.401,438.242l-0.351,3.348l54.76,11.409c3.619-5.417-5.127-3.685-5.127-3.685L712.401,438.242z"/>
				</g>
				<g>
					<g>
						<path fill="#007AC3" d="M838.639,420.827c0-6.403-10.332-11.599-23.08-11.599c-12.744,0-23.074,5.195-23.074,11.599h-0.002
							v7.618c-5.893,0.549-10.515,5.766-10.515,12.127s4.622,11.577,10.515,12.126v5.278h0.056c-0.017,0.18-0.056,0.357-0.056,0.539
							c0,6.408,10.332,11.6,23.076,11.6c12.748,0,23.08-5.191,23.08-11.6c0-0.182-0.038-0.359-0.055-0.539h0.055V420.827z
							 M787.609,440.57c0-3.369,1.378-5.916,4.873-6.339v12.474C789.539,444.893,787.609,443.941,787.609,440.57z"/>
					</g>
					<g>
						<path fill="#C27A60" d="M763.914,423.163c0,0,24.375,1.37,27.255,2.976c0,0,3.058,3.543-0.582,4.998
							c0,0-2.167,1.713-0.132,3.496c0,0,3.484,4.635-2.23,5.689c0,0-2.573,2.045,1.62,3.52c0,0,4.601,3.558-1.839,5.452
							c0,0-0.854,1.979,1.354,2.438c0,0,3.533,3.798-3.432,4.911c0,0-16.07,3.117-28.097-8.166
							C757.831,448.477,754.377,434.147,763.914,423.163z"/>
					</g>
					<g>
						<path fill="#C27A60" d="M762.846,424.619c0,0,2.877-4.715,5.764-4.875c0,0,12.545-3.286,6.24,5.334L762.846,424.619z"/>
					</g>
					<g>
						<ellipse fill="#FFFFFF" cx="816.047" cy="420.701" rx="18.867" ry="8.086"/>
					</g>
					<g>
						<path fill="#574759" d="M798.451,423.619c2.732,3.023,9.577,5.168,17.596,5.168c9.563,0,17.459-3.049,18.694-7.002
							C815.031,414.091,802.682,420.623,798.451,423.619z"/>
					</g>
					<g>
						<path fill="#FFFFFF" d="M821.42,406.768c0,0,3.171-13.108-0.212-21.354c0,0-4.228-14.164-0.846-20.506
							c0,0-6.13,9.725-2.748,20.506C817.614,385.414,823.533,398.1,821.42,406.768z"/>
					</g>
					<g>
						<path fill="#FFFFFF" d="M811.396,403.998c0,0,1.994-8.242-0.134-13.428c0,0-2.658-8.907-0.531-12.897
							c0,0-3.855,6.117-1.728,12.897C809.003,390.57,812.727,398.547,811.396,403.998z"/>
					</g>
				</g>
			</g>
		</g>
		<g clip-path="url(#SVGID_4_)">
			<path fill="#F0B4A7" d="M1218.702,523.718c0,0-6.368,8.717-9.448,15.058l-8.305,8.143c-6.198,9.02,4.047,5.531,4.047,5.531
				l0.641-0.201c-0.826,2.613-2.585,6.799-4.271,9.535l-1.635,3.525c0,0-4.84,10.908-3.715,12.294c0,0,1.577,6.013,7.783-2.152
				l3.954-4.202c2.31-2.84,1.95-1.678,1.704-1.002l-1.828,4.132c0,0-3.786,10.461-2.259,12.655c0,0,2.409,4.195,7.036-3.749
				l4.688-8.24c0.112,0.05,0.204,0.091,0.293,0.152c-1.088,3.252-5.276,14.948-3.637,16.926c0,0,3.39,4.862,8.96-3.794l4.797-9.793
				c0.111,0.043,0.272,0.068,0.404,0.103c-0.804,4.118-2.59,17.418,4.164,10.807c0,0,3.314-6.046,7.236-14.899
				c0.985-1.951,1.946-4.228,2.882-6.941c2.818-7.34,4.84-14.586,4.004-18.933c0.672-5.268-0.578-18.526-1.887-21.309
				C1244.312,527.362,1237.031,527.556,1218.702,523.718z"/>
		</g>
	</g>
</g>
</svg>
