<?xml version="1.0" encoding="utf-8"?>
<!-- Generator: Adobe Illustrator 16.0.0, SVG Export Plug-In . SVG Version: 6.00 Build 0)  -->
<!DOCTYPE svg PUBLIC "-//W3C//DTD SVG 1.1//EN" "http://www.w3.org/Graphics/SVG/1.1/DTD/svg11.dtd">
<svg version="1.1" id="EXPAND_1_" xmlns="http://www.w3.org/2000/svg" xmlns:xlink="http://www.w3.org/1999/xlink" x="0px" y="0px"
	 width="450px" height="500px" viewBox="0 0 450 500" enable-background="new 0 0 450 500" xml:space="preserve">
<g>
	<g>
		<path fill="#FBD0DC" d="M225.002,487.025c109.072,0,197.494-88.422,197.494-197.494c0-109.076-88.422-197.496-197.494-197.496
			c-109.074,0-197.496,88.42-197.496,197.496C27.506,398.604,115.928,487.025,225.002,487.025"/>
	</g>
	<g>
		<defs>
			<path id="SVGID_1_" d="M84.418,0l25.414,449.986c32.418,23.312,72.189,37.039,115.17,37.039
				c40.078,0,77.357-11.932,108.498-32.447V0H84.418z"/>
		</defs>
		<clipPath id="SVGID_2_">
			<use xlink:href="#SVGID_1_"  overflow="visible"/>
		</clipPath>
		<g clip-path="url(#SVGID_2_)">
			<path fill="#574759" d="M110.553,74.674c0,0,0.506,30.994,7.322,46.695l1.861-5.395l1.723-42.631L110.553,74.674z"/>
		</g>
		<g clip-path="url(#SVGID_2_)">
			<path fill="#FFFFFF" d="M170.285,344.654c1.676,75.975,13.053,151.736,13.053,151.736c43.291,0.334,99.68,4.482,139.391,1.428
				c19.16-72.244,6.916-176.203,6.916-176.203C314.004,220.48,220.512,212.68,220.512,212.68l-4.152,21.617l-21.539-8.404
				l-10.096,5.689l-7.607-16.574C177.117,215.008,168.551,266.201,170.285,344.654"/>
		</g>
		<g clip-path="url(#SVGID_2_)">
			<path fill="#FFFFFF" d="M175.805,224.229c0,0-37.102,67.713-41.725,100.525c0,0,34.285,18.941,51.564,17.982l2.879-50.881
				L175.805,224.229z"/>
		</g>
		<g clip-path="url(#SVGID_2_)">
			<path fill="#85859B" d="M241.184,570.709c0,0,5.225-14.068,6.297,4.844c0,0,2.422,41.176,2.422,47.957v19.85h62.291
				l-0.887-144.861l-119.252-2.254c0,0,0.023,127.758,1.961,147.115h47.482C240.914,627.783,239.127,575.648,241.184,570.709"/>
		</g>
		<g clip-path="url(#SVGID_2_)">
			<path fill="#9F8A7F" d="M273.006,325.455c0,0,1.918,54.721,0,62.398c0,0-13.863,95.65-52.531,114.066l-13.156,4.771
				c-11.246,6.746,3.246,6.496,3.246,6.496l-3.895,4.092c-1.873,2.027-2.043,2.268-4.361,4.939l-3.012,2.494
				c0,0-9.104,7.846-8.68,9.586c0,0-1.16,6.146,7.998,1.402l5.416-2.117c1.303,0.135,1.111-0.303,1.303,0.135l-2.773,2.65
				c0,0-7.949,7.883-7.504,10.547c0,0,0.381,4.855,8.018-0.383l4.1-2.35c0.07,0.094,0.131,0.174,0.186,0.26
				c-2.389,2.492-7.518,8.209-6.875,10.715c0,0,0.982,5.889,9.789,0.41l6.461-4.621c0.084,0.082,0.209,0.172,0.318,0.262
				c-2.506,3.406-8.092,11.855,1.25,9.41c0,0,5.637-4.059,13.014-10.43c1.736-1.34,3.592-2.998,5.613-5.062
				c5.738-5.463,10.695-11.184,11.818-15.496c2.879-4.5,8.158-11.715,8.174-14.814c0,0,37.203-59.764,45.844-102.961
				c0,0,9.602-74.881,9.602-85.441C312.367,326.414,297.562,308.74,273.006,325.455"/>
		</g>
		<g clip-path="url(#SVGID_2_)">
			<path fill="#574759" d="M286.66,381.184c2.078,1.416,2.535,8.479,1.012,15.76c-1.518,7.287-4.436,12.043-6.514,10.619
				c-2.078-1.418-2.531-8.477-1.016-15.768C281.662,384.514,284.584,379.766,286.66,381.184"/>
		</g>
		<g clip-path="url(#SVGID_2_)">
			<path fill="#ED1651" d="M280.934,407.416c4.555,2.51,9.229-0.617,10.717-7.484c1.49-6.865-0.77-14.906-5.051-18.66
				L280.934,407.416z"/>
		</g>
		<g clip-path="url(#SVGID_2_)">
			<path fill="#574759" d="M284.807,389.547c0,0-1.424,9.094-0.523,13.857c0,0,2.486-13.158,1.936-15.502
				C286.219,387.902,285.414,386.746,284.807,389.547"/>
		</g>
		<g opacity="0.3" clip-path="url(#SVGID_2_)">
			<path fill="#9F8A7F" d="M252.812,460.732c0,0,10.93,10.627,15.402,16.625c4.281,5.746,5.082,8.555,5.082,8.555l3.467-6.688
				c0,0-18.232-22.922-21.477-24.439c-17.781-8.322,0,0,0,0L252.812,460.732z"/>
		</g>
		<g clip-path="url(#SVGID_2_)">
			<path fill="#9F8A7F" d="M296.002,452.549c-0.193-0.4-0.152-0.34-0.42-0.865c0-0.002-0.805-1.496-0.807-1.498
				c-2.021-3.961-7.5-10.102-13.562-15.941c2.586,0,3.23-1.451,3.23-1.451c1.938-1.938-4.307-5.275-4.307-5.275
				c-16.912-4.996-20.812-1.914-20.812-1.914l-6.424,2.295c0,0-49.627-39.795-81.338-51.121l1.137-35.91l-29.23-11.307
				c0,0-11.484,67.484-1.436,70.727c0,0,54.291,42.498,99.348,50.65c0,0,25.094,16.752,31.436,26.1
				c6.137,9.041,10.982,2.906,10.982,2.906s0.268-0.268,0.727-0.77c0.619-0.793,1.318-2.461,0.402-4.936
				c0,0,2.711,0.584,4.023-0.641c0.287-0.416,0.58-0.844,0.871-1.289c0.01-0.02,1.404-1.678,0.975-5.605
				c0,0,2.715,0.256,3.889-3.889c0.035-0.117,0.219-1.189,0.025-1.961c-0.383-1.199-0.561-1.793-1.387-3.033
				C293.324,457.82,297.77,456.783,296.002,452.549"/>
		</g>
		<g clip-path="url(#SVGID_2_)">
			<path fill="#574759" d="M172.699,340.867c0,0-34.314-12.236-39.615-14.971c0,0,2.982-11.223,4.23-15.273l34.523,14.195
				L172.699,340.867z"/>
		</g>
		<g clip-path="url(#SVGID_2_)">
			<path fill="#574759" d="M173.012,229.441c0,0,11.656,44.809,41.205,23.494c0,0,21.348-15.199,21.797-36.33
				c0,0-0.867-9.713-10.123-8.729l-50.186,13.295L173.012,229.441z"/>
		</g>
		<g clip-path="url(#SVGID_2_)">
			<path fill="#574759" d="M231.143,73.693c0,0,6.719,30.719-6.719,55.035l-9.035,15.328l-5.365-45.727l19.018-38.721
				L231.143,73.693z"/>
		</g>
		<g clip-path="url(#SVGID_2_)">
			<path fill="#9F8A7F" d="M214.504,124.57c0,0,6.021,73.848,14.34,92.404c0,0-24,65.279-53.139,4.197
				c0,0-9.432-25.086-26.162-30.053c0,0-21.693-6.273-26.365-38.197l-5.303-31.553c0,0-0.363-4.986-0.301-17.814l1.674-43.666
				c0,0,5.135-17.506,10.848-22.898c7.328-6.916,23.828-13.291,37.557-15.73c23.307-4.135,56.924,2.602,55.902,35.434
				c0,0-4.434,19.777-18.734,37.92c0,0,20.955,3.135,21.203,12.357C226.023,106.971,228.352,121.369,214.504,124.57"/>
		</g>
		<g clip-path="url(#SVGID_2_)">
			<path fill="#574759" d="M166.359,109.303c0.346,2.887,1.197,5.111,2.346,5.207c1.162,0.096,1.611-1.965,1.855-4.855
				c0.232-2.902-1.666-5.426-2.826-5.521C166.578,104.037,166.064,106.826,166.359,109.303"/>
		</g>
		<g clip-path="url(#SVGID_2_)">
			<path fill="#574759" d="M133.393,111.773c-0.24,2.896,0.516,5.572,1.668,5.416c1.852-0.25,2.295-2.17,2.525-5.072
				c0.242-2.891-1.65-5.418-2.812-5.514C133.619,106.51,133.639,108.873,133.393,111.773"/>
		</g>
		<g clip-path="url(#SVGID_2_)">
			<path fill="#574759" d="M197.736,59.176l3.832,25.936l1.416,24.738c19.717-14.564,35.988-36.992,19.961-67.875L197.736,59.176z"
				/>
		</g>
		<g clip-path="url(#SVGID_2_)">
			<polygon fill="#574759" points="202.258,97.168 200.424,123.93 207.146,122.65 209.387,100.252 			"/>
		</g>
		<g clip-path="url(#SVGID_2_)">
			<path fill="#574759" d="M197.732,47.91c0,0-5.121,21.439,4.158,28.158l27.061-12.303c0,0-0.504-16.494-11.383-30.254l-7.16-5.332
				C210.408,28.18,204.451,42.152,197.732,47.91"/>
		</g>
		<g clip-path="url(#SVGID_2_)">
			<path fill="#574759" d="M152.08,171.596c0,0,4.375,1.977,10.287,0.572c0,0,3.355-2.305,0.146-2.672
				C162.514,169.496,157.57,168.408,152.08,171.596"/>
		</g>
		<g clip-path="url(#SVGID_2_)">
			<path fill="#574759" d="M269.945,329.637c0,0,20.389-14.91,44.303-2.158c0,0,3.656-9.658-1.314-16.379
				c0,0-27.396-7.471-46.389,4.162L269.945,329.637z"/>
		</g>
		<g clip-path="url(#SVGID_2_)">
			<path fill="#574759" d="M127.506,75.16c0,0,60.068,0.969,83.318-19.861l6.744-21.787c0,0-14.979-26.652-63.42-14.061
				c0,0-50.918,8.531-43.596,55.223C110.553,74.674,116.611,75.93,127.506,75.16"/>
		</g>
	</g>
</g>
</svg>
