<?xml version="1.0" encoding="utf-8"?>
<!-- Generator: Adobe Illustrator 16.0.0, SVG Export Plug-In . SVG Version: 6.00 Build 0)  -->
<!DOCTYPE svg PUBLIC "-//W3C//DTD SVG 1.1//EN" "http://www.w3.org/Graphics/SVG/1.1/DTD/svg11.dtd">
<svg version="1.1" id="EXPAND_1_" xmlns="http://www.w3.org/2000/svg" xmlns:xlink="http://www.w3.org/1999/xlink" x="0px" y="0px"
	 width="450px" height="500px" viewBox="0 0 450 500" enable-background="new 0 0 450 500" xml:space="preserve">
<g>
	<g>
		<path fill="#CFEAEB" d="M225.002,487.025c109.072,0,197.494-88.422,197.494-197.494c0-109.076-88.422-197.496-197.494-197.496
			c-109.074,0-197.496,88.42-197.496,197.496C27.506,398.604,115.928,487.025,225.002,487.025"/>
	</g>
</g>
<g>
	<defs>
		<path id="SVGID_1_" d="M225.002,487.025c109.072,0,197.494-88.422,197.494-197.494c0-49.782,0-289.531,0-289.531H27.506
			c0,0,0,180.455,0,289.531C27.506,398.604,115.928,487.025,225.002,487.025"/>
	</defs>
	<clipPath id="SVGID_2_">
		<use xlink:href="#SVGID_1_"  overflow="visible"/>
	</clipPath>
	<g clip-path="url(#SVGID_2_)">
		<g opacity="0.21">
			<g>
				<defs>
					<rect id="SVGID_3_" x="58.372" y="399.14" width="60.566" height="82.306"/>
				</defs>
				<clipPath id="SVGID_4_">
					<use xlink:href="#SVGID_3_"  overflow="visible"/>
				</clipPath>
				<g clip-path="url(#SVGID_4_)">
					<defs>
						<rect id="SVGID_5_" x="58.372" y="399.14" width="60.566" height="82.306"/>
					</defs>
					<clipPath id="SVGID_6_">
						<use xlink:href="#SVGID_5_"  overflow="visible"/>
					</clipPath>
					<g clip-path="url(#SVGID_6_)">
						<path fill="#FFFFFF" d="M118.938,460.01L66.81,481.445c0,0-17.894-36.119-1.576-82.306l51.238,24.479
							C116.472,423.619,109.893,446.788,118.938,460.01"/>
					</g>
				</g>
			</g>
		</g>
		<g>
			<path fill="#57485A" d="M120.243,529.278c-43.619,0-79.105-43.229-79.105-96.364c0-53.13,35.486-96.354,79.105-96.354
				c43.618,0,79.104,43.225,79.104,96.354C199.347,486.05,163.861,529.278,120.243,529.278z M120.243,347.786
				c-37.429,0-67.879,38.188-67.879,85.128c0,46.945,30.45,85.138,67.879,85.138c37.428,0,67.877-38.192,67.877-85.138
				C188.12,385.975,157.671,347.786,120.243,347.786z"/>
		</g>
		<g>
			<path fill="#57485A" d="M193.984,439.409L76.767,406.432L36.608,479.31c-20.281,29.231-6.016,32.854-6.016,32.854l95.062,42.947
				c21.668,9.931,26.176-11.775,34.096-24.826C163.59,523.974,182.255,474.163,193.984,439.409"/>
		</g>
		<g>
			<path fill="#FFFFFF" d="M122.636,371.503L62.554,493.538c0,0-11.223,5.046-14.804,4.58c-3.564-0.48-5.421,8.005,10.229,7.908
				l19.01-0.751c0,0,53.861-93.342,61.826-109.366C146.769,379.864,122.636,371.503,122.636,371.503"/>
		</g>
		<g>
			<path fill="#FFFFFF" d="M164.905,391.785l-60.527,122.17c0,0-11.639,4.004-15.146,3.193c-3.514-0.799-6.141,7.477,9.451,8.813
				l18.988,1.021c0,0,58.26-89.856,67.664-105.081S164.905,391.785,164.905,391.785"/>
		</g>
		<g>
			<path fill="#57485A" d="M249.127,177.39c0,0,83.049-9.698,93.46-10.312c7.61-0.455,11.363-0.33,11.363-0.33
				s18.506-0.566,17.64,38.243l-3.437,169.89c0,0-3.461,12.951-20.713,10.361l-50.018-16.391c0,0-25.007-89.696-26.739-94.864
				C268.961,268.804,249.127,177.39,249.127,177.39"/>
		</g>
		<g>
			<path fill="#57485A" d="M297.423,381.792l49.259,21.854c0,0,20.601,8.324,11.115,12.645l-149.209,21.559l-129.365-40.23
				c0,0-20.769-7.673-1.726-19.827l154.379-10.658L297.423,381.792z"/>
		</g>
		<g>
			<path fill="#F29EC4" d="M99.921,375.408c0,0,11.807-5.882,23.26-9.968c9.202-2.395,17.945-5.98,28.65-10.118
				c19.667-5.832,47.424-15.629,47.217-21.266l0.062-52.311l-6.797,26.247c-1.309,3.818-7.61,10.485-12.639,14.771l-31.418,20.049
				c-3.629-0.873-8.715-0.196-13.048-10.423c1.274-1.266,11.257-11.334,11.846-12.033c4.581-5.487,12.129-12.363,12.129-12.363
				l12.794-14.928c0,0,2.082-131.637,18.465-137.664l0.455,9.467c0,0,4.957,15.457,13.426,14.647
				c8.456-0.811,14.613-13.948,14.613-13.948l-0.9-22.161c0,0,53.482,16.734,74.207,83.141c0,0,45.713,129.364,6.905,162.145
				c0,0-13.742,22.651-40.532,32.229c0,0-54.018,18.502-63.614,22.257c-0.099-0.01-41.515-10.041-62.237-15.506l-9.822-0.342
				l-12.425-5.954c-16.438-5.048-14.646-14.146-20.019-20.259C90.499,401.116,87.302,384.039,99.921,375.408"/>
		</g>
		<g>
			<path fill="#FFFFFF" d="M214.148,110.012c0,0,9.097,33.983,14.105,44.629c0,0-39.85,64.049-38.636,12.522
				c0,0,1.918-14.267-1.533-20.712c0,0-19.111,2.431-25.636-16.5l-8.816-18.01c0,0-9.894-1.621-4.123-12.609l1.302-33.198
				c0,0,29.746,1.72,45.275-7.342c0,0,9.918,15.101,11.641,29.33c0,0,12.073,2.161,12.935,7.774
				C220.662,95.896,222.353,107.005,214.148,110.012"/>
		</g>
		<g>
			<path fill="#57485A" d="M187.46,97.184c0,1.781,0.574,3.229,1.293,3.229c0.72,0,1.297-1.448,1.297-3.229
				c0-1.793-0.577-3.243-1.297-3.243C188.034,93.94,187.46,95.391,187.46,97.184"/>
		</g>
		<g>
			<path fill="#57485A" d="M162.015,99.123c0,1.78,0.584,3.241,1.296,3.241s1.293-1.461,1.293-3.241
				c0-1.793-0.581-3.227-1.293-3.227S162.015,97.33,162.015,99.123"/>
		</g>
		<g>
			<path fill="#57485A" d="M294.938,615.07c-53.647,0-97.293-53.252-97.293-118.707c0-65.458,43.646-118.712,97.293-118.712
				c53.644,0,97.285,53.254,97.285,118.712C392.224,561.818,348.582,615.07,294.938,615.07z M294.938,389.858
				c-46.916,0-85.086,47.778-85.086,106.505c0,58.725,38.17,106.5,85.086,106.5c46.912,0,85.078-47.775,85.078-106.5
				C380.017,437.637,341.851,389.858,294.938,389.858z"/>
		</g>
		<g>
			<path fill="#57485A" d="M174.935,129.647c-1.724,0-2.726-0.281-2.819-0.31c-0.713-0.21-1.12-0.957-0.91-1.67
				c0.207-0.711,0.952-1.116,1.661-0.913c0.1,0.028,4.615,1.185,11.438-2.437c0.655-0.347,1.47-0.099,1.819,0.558
				c0.348,0.656,0.099,1.471-0.558,1.819C180.996,129.12,177.291,129.647,174.935,129.647z"/>
		</g>
		<g>
			<path fill="#57485A" d="M277.363,494.054c0,22.92,13.481,41.509,30.104,41.509c16.63,0,30.113-18.589,30.113-41.509
				c0-22.921-13.483-41.508-30.113-41.508C290.845,452.546,277.363,471.133,277.363,494.054"/>
		</g>
		<g>
			<path fill="#887B87" d="M296.54,494.985c0,11.789,6.924,21.339,15.482,21.339c8.551,0,15.482-9.55,15.482-21.339
				c0-11.783-6.932-21.348-15.482-21.348C303.464,473.638,296.54,483.202,296.54,494.985"/>
		</g>
		<g opacity="0.21">
			<g>
				<defs>
					<rect id="SVGID_7_" x="215.046" y="502.131" width="74.179" height="74.178"/>
				</defs>
				<clipPath id="SVGID_8_">
					<use xlink:href="#SVGID_7_"  overflow="visible"/>
				</clipPath>
				<g clip-path="url(#SVGID_8_)">
					<defs>
						<rect id="SVGID_9_" x="215.046" y="502.131" width="74.179" height="74.178"/>
					</defs>
					<clipPath id="SVGID_10_">
						<use xlink:href="#SVGID_9_"  overflow="visible"/>
					</clipPath>
					<g clip-path="url(#SVGID_10_)">
						<path fill="#FFFFFF" d="M289.225,535.107l-38.466,41.201c0,0-31.307-25.387-35.713-74.178l56.783,0.924
							C271.829,503.055,275.485,526.858,289.225,535.107"/>
					</g>
				</g>
			</g>
		</g>
		<g opacity="0.21">
			<g>
				<defs>
					<rect id="SVGID_11_" x="329.26" y="418.244" width="42.883" height="59.752"/>
				</defs>
				<clipPath id="SVGID_12_">
					<use xlink:href="#SVGID_11_"  overflow="visible"/>
				</clipPath>
				<g clip-path="url(#SVGID_12_)">
					<defs>
						<rect id="SVGID_13_" x="329.271" y="418.244" width="42.872" height="59.752"/>
					</defs>
					<clipPath id="SVGID_14_">
						<use xlink:href="#SVGID_13_"  overflow="visible"/>
					</clipPath>
					<g clip-path="url(#SVGID_14_)">
						<path fill="#FFFFFF" d="M329.267,453.49l16.91-35.246c0,0,19.14,18.329,25.966,56.989l-30.602,2.763
							C341.541,477.996,337.401,459.224,329.267,453.49"/>
					</g>
				</g>
			</g>
		</g>
		<g>
			<path fill="#FFFFFF" d="M134.973,332.094c0,0-12.388-2.258-21.624,2.381c-2.875,1.45-4.008,3.083-4.008,3.083
				s10.84-3.083,30.757,2.087l-4.608-7.403L134.973,332.094z"/>
		</g>
		<g>
			<path fill="#FFFFFF" d="M232.987,359.288c0,0-17.266-0.514-25.479,5.279c0,0-8.203,5.659-9.699,16.12
				c0,0-0.486,5.363,3.963,1.522l5.242-5.365c0,0-3.626,7.968-2.441,11.012c0,0,2.074,4.37,6.898-2.936l4.003-5.007
				c0,0-4.972,11.282,0.604,11.394c0,0,0.99,1.903,6.211-8.915c0,0,7.109-4.983,14.112-6.616
				C236.402,375.776,239.999,364.592,232.987,359.288"/>
		</g>
		<g>
			<path fill="#57485A" d="M225.185,146.341c0,0,11.359,1.632,11.578,7.832c0,0-5.315,20.822-21.705,31.455
				c0,0-13.267,14.71-24.807,10.189c0,0-7.662-2.406-7.052-17.519c0,0,0.142-13.678,3.291-20.036c0,0,1.686-3.229,3.498-3.881
				c0,0,0.393,3.523,0.085,7.293c-0.26,2.997-0.673,6.067-0.467,9.576c0.443,7.465,2.002,14.009,8.621,12.166
				c0,0,29.549-19.911,28.923-31.771L225.185,146.341z"/>
		</g>
		<g>
			<path fill="#57485A" d="M201.551,215.278c0,2.012,1.642,3.646,3.662,3.646c2.013,0,3.657-1.634,3.657-3.646
				c0-2.016-1.645-3.659-3.657-3.659C203.192,211.619,201.551,213.263,201.551,215.278"/>
		</g>
		<g>
			<path fill="#57485A" d="M204.585,233.201c0,2.027,1.635,3.658,3.646,3.658c2.02,0,3.658-1.631,3.658-3.658
				c0-2.013-1.639-3.646-3.658-3.646C206.22,229.556,204.585,231.188,204.585,233.201"/>
		</g>
		<g>
			<path fill="#57485A" d="M205.855,250.034c0,2.013,1.632,3.646,3.659,3.646c2.019,0,3.653-1.634,3.653-3.646
				c0-2.014-1.635-3.659-3.653-3.659C207.487,246.375,205.855,248.021,205.855,250.034"/>
		</g>
		<g>
			<path fill="#BCBEC0" d="M145.202,53.194c0,0,12.906-19.802,46.068-15.468c0,0-5.274-7.687,1.141-14.941
				c6.318-7.16,15.573-9.283,15.573-9.283s13.641-4.909,21.861,3.021c7.974,7.687,2.324,20.857,2.324,20.857
				s-3.569,10.376-7.719,14.267c-4.138,3.879-6.252,2.479-6.252,2.479c6.343,10.179,8.817,21.056-6.554,50.914l-7.33-18.293
				c0,0-4.148-17.053-9.172-18.22c-5.031-1.168-16.205,0.076-16.205,0.076c5.635,6.123,14.559,11.452,14.559,11.452
				c-15.146-0.86-26.278-0.293-40.961-7.55l-3.026,26.825C149.51,99.332,127.417,83.998,145.202,53.194"/>
		</g>
		<g>
			<path fill="#57485A" d="M368.317,180.975c0,0,5.264-12.399,23.089-11.648l23.866,8.983c0,0,3.543,8.867-2.652,8.867
				c0,0-24.811-10.633-30.127-7.971c0,0-12.399,21.266-12.399,26.569L368.317,180.975z"/>
		</g>
		<g opacity="0.21">
			<g>
				<defs>
					<rect id="SVGID_15_" x="58.372" y="399.14" width="60.566" height="82.306"/>
				</defs>
				<clipPath id="SVGID_16_">
					<use xlink:href="#SVGID_15_"  overflow="visible"/>
				</clipPath>
				<g clip-path="url(#SVGID_16_)">
					<defs>
						<rect id="SVGID_17_" x="58.372" y="399.14" width="60.566" height="82.306"/>
					</defs>
					<clipPath id="SVGID_18_">
						<use xlink:href="#SVGID_17_"  overflow="visible"/>
					</clipPath>
					<g clip-path="url(#SVGID_18_)">
						<path fill="#FFFFFF" d="M118.938,460.01L66.81,481.445c0,0-17.894-36.119-1.576-82.306l51.238,24.479
							C116.472,423.619,109.893,446.788,118.938,460.01"/>
					</g>
				</g>
			</g>
		</g>
		<g>
			<path fill="#57485A" d="M120.243,529.278c-43.619,0-79.105-43.229-79.105-96.364c0-53.13,35.486-96.354,79.105-96.354
				c43.618,0,79.104,43.225,79.104,96.354C199.347,486.05,163.861,529.278,120.243,529.278z M120.243,347.786
				c-37.429,0-67.879,38.188-67.879,85.128c0,46.945,30.45,85.138,67.879,85.138c37.428,0,67.877-38.192,67.877-85.138
				C188.12,385.975,157.671,347.786,120.243,347.786z"/>
		</g>
		<g>
			<path fill="#57485A" d="M193.984,439.409L76.767,406.432L36.608,479.31c-20.281,29.231-6.016,32.854-6.016,32.854l95.062,42.947
				c21.668,9.931,26.176-11.775,34.096-24.826C163.59,523.974,182.255,474.163,193.984,439.409"/>
		</g>
		<g>
			<path fill="#FFFFFF" d="M122.636,371.503L62.554,493.538c0,0-11.223,5.046-14.804,4.58c-3.564-0.48-5.421,8.005,10.229,7.908
				l19.01-0.751c0,0,53.861-93.342,61.826-109.366C146.769,379.864,122.636,371.503,122.636,371.503"/>
		</g>
		<g>
			<path fill="#FFFFFF" d="M164.905,391.785l-60.527,122.17c0,0-11.639,4.004-15.146,3.193c-3.514-0.799-6.141,7.477,9.451,8.813
				l18.988,1.021c0,0,58.26-89.856,67.664-105.081S164.905,391.785,164.905,391.785"/>
		</g>
		<g>
			<path fill="#57485A" d="M249.127,177.39c0,0,83.049-9.698,93.46-10.312c7.61-0.455,11.363-0.33,11.363-0.33
				s18.506-0.566,17.64,38.243l-3.437,169.89c0,0-3.461,12.951-20.713,10.361l-50.018-16.391c0,0-25.007-89.696-26.739-94.864
				C268.961,268.804,249.127,177.39,249.127,177.39"/>
		</g>
		<g>
			<path fill="#57485A" d="M297.423,381.792l49.259,21.854c0,0,20.601,8.324,11.115,12.645l-149.209,21.559l-129.365-40.23
				c0,0-20.769-7.673-1.726-19.827l154.379-10.658L297.423,381.792z"/>
		</g>
		<g>
			<path fill="#F29EC4" d="M99.921,375.408c0,0,11.807-5.882,23.26-9.968c9.202-2.395,17.945-5.98,28.65-10.118
				c19.667-5.832,47.424-15.629,47.217-21.266l0.062-52.311l-6.797,26.247c-1.309,3.818-7.61,10.485-12.639,14.771l-31.418,20.049
				c-3.629-0.873-8.715-0.196-13.048-10.423c1.274-1.266,11.257-11.334,11.846-12.033c4.581-5.487,12.129-12.363,12.129-12.363
				l12.794-14.928c0,0,2.082-131.637,18.465-137.664l0.455,9.467c0,0,4.957,15.457,13.426,14.647
				c8.456-0.811,14.613-13.948,14.613-13.948l-0.9-22.161c0,0,53.482,16.734,74.207,83.141c0,0,45.713,129.364,6.905,162.145
				c0,0-13.742,22.651-40.532,32.229c0,0-54.018,18.502-63.614,22.257c-0.099-0.01-41.515-10.041-62.237-15.506l-9.822-0.342
				l-12.425-5.954c-16.438-5.048-14.646-14.146-20.019-20.259C90.499,401.116,87.302,384.039,99.921,375.408"/>
		</g>
		<g>
			<path fill="#FFFFFF" d="M214.148,110.012c0,0,9.097,33.983,14.105,44.629c0,0-39.85,64.049-38.636,12.522
				c0,0,1.918-14.267-1.533-20.712c0,0-19.111,2.431-25.636-16.5l-8.816-18.01c0,0-9.894-1.621-4.123-12.609l1.302-33.198
				c0,0,29.746,1.72,45.275-7.342c0,0,9.918,15.101,11.641,29.33c0,0,12.073,2.161,12.935,7.774
				C220.662,95.896,222.353,107.005,214.148,110.012"/>
		</g>
		<g>
			<path fill="#57485A" d="M187.46,97.184c0,1.781,0.574,3.229,1.293,3.229c0.72,0,1.297-1.448,1.297-3.229
				c0-1.793-0.577-3.243-1.297-3.243C188.034,93.94,187.46,95.391,187.46,97.184"/>
		</g>
		<g>
			<path fill="#57485A" d="M162.015,99.123c0,1.78,0.584,3.241,1.296,3.241s1.293-1.461,1.293-3.241
				c0-1.793-0.581-3.227-1.293-3.227S162.015,97.33,162.015,99.123"/>
		</g>
		<g>
			<path fill="#57485A" d="M294.938,615.07c-53.647,0-97.293-53.252-97.293-118.707c0-65.458,43.646-118.712,97.293-118.712
				c53.644,0,97.285,53.254,97.285,118.712C392.224,561.818,348.582,615.07,294.938,615.07z M294.938,389.858
				c-46.916,0-85.086,47.778-85.086,106.505c0,58.725,38.17,106.5,85.086,106.5c46.912,0,85.078-47.775,85.078-106.5
				C380.017,437.637,341.851,389.858,294.938,389.858z"/>
		</g>
		<g>
			<path fill="#57485A" d="M174.935,129.647c-1.724,0-2.726-0.281-2.819-0.31c-0.713-0.21-1.12-0.957-0.91-1.67
				c0.207-0.711,0.952-1.116,1.661-0.913c0.1,0.028,4.615,1.185,11.438-2.437c0.655-0.347,1.47-0.099,1.819,0.558
				c0.348,0.656,0.099,1.471-0.558,1.819C180.996,129.12,177.291,129.647,174.935,129.647z"/>
		</g>
		<g>
			<path fill="#57485A" d="M277.363,494.054c0,22.92,13.481,41.509,30.104,41.509c16.63,0,30.113-18.589,30.113-41.509
				c0-22.921-13.483-41.508-30.113-41.508C290.845,452.546,277.363,471.133,277.363,494.054"/>
		</g>
		<g>
			<path fill="#887B87" d="M296.54,494.985c0,11.789,6.924,21.339,15.482,21.339c8.551,0,15.482-9.55,15.482-21.339
				c0-11.783-6.932-21.348-15.482-21.348C303.464,473.638,296.54,483.202,296.54,494.985"/>
		</g>
		<g opacity="0.21">
			<g>
				<defs>
					<rect id="SVGID_19_" x="215.046" y="502.131" width="74.179" height="74.178"/>
				</defs>
				<clipPath id="SVGID_20_">
					<use xlink:href="#SVGID_19_"  overflow="visible"/>
				</clipPath>
				<g clip-path="url(#SVGID_20_)">
					<defs>
						<rect id="SVGID_21_" x="215.046" y="502.131" width="74.179" height="74.178"/>
					</defs>
					<clipPath id="SVGID_22_">
						<use xlink:href="#SVGID_21_"  overflow="visible"/>
					</clipPath>
					<g clip-path="url(#SVGID_22_)">
						<path fill="#FFFFFF" d="M289.225,535.107l-38.466,41.201c0,0-31.307-25.387-35.713-74.178l56.783,0.924
							C271.829,503.055,275.485,526.858,289.225,535.107"/>
					</g>
				</g>
			</g>
		</g>
		<g opacity="0.21">
			<g>
				<defs>
					<rect id="SVGID_23_" x="329.26" y="418.244" width="42.883" height="59.752"/>
				</defs>
				<clipPath id="SVGID_24_">
					<use xlink:href="#SVGID_23_"  overflow="visible"/>
				</clipPath>
				<g clip-path="url(#SVGID_24_)">
					<defs>
						<rect id="SVGID_25_" x="329.271" y="418.244" width="42.872" height="59.752"/>
					</defs>
					<clipPath id="SVGID_26_">
						<use xlink:href="#SVGID_25_"  overflow="visible"/>
					</clipPath>
					<g clip-path="url(#SVGID_26_)">
						<path fill="#FFFFFF" d="M329.267,453.49l16.91-35.246c0,0,19.14,18.329,25.966,56.989l-30.602,2.763
							C341.541,477.996,337.401,459.224,329.267,453.49"/>
					</g>
				</g>
			</g>
		</g>
		<g>
			<path fill="#FFFFFF" d="M134.973,332.094c0,0-12.388-2.258-21.624,2.381c-2.875,1.45-4.008,3.083-4.008,3.083
				s10.84-3.083,30.757,2.087l-4.608-7.403L134.973,332.094z"/>
		</g>
		<g>
			<path fill="#FFFFFF" d="M232.987,359.288c0,0-17.266-0.514-25.479,5.279c0,0-8.203,5.659-9.699,16.12
				c0,0-0.486,5.363,3.963,1.522l5.242-5.365c0,0-3.626,7.968-2.441,11.012c0,0,2.074,4.37,6.898-2.936l4.003-5.007
				c0,0-4.972,11.282,0.604,11.394c0,0,0.99,1.903,6.211-8.915c0,0,7.109-4.983,14.112-6.616
				C236.402,375.776,239.999,364.592,232.987,359.288"/>
		</g>
		<g>
			<path fill="#57485A" d="M225.185,146.341c0,0,11.359,1.632,11.578,7.832c0,0-5.315,20.822-21.705,31.455
				c0,0-13.267,14.71-24.807,10.189c0,0-7.662-2.406-7.052-17.519c0,0,0.142-13.678,3.291-20.036c0,0,1.686-3.229,3.498-3.881
				c0,0,0.393,3.523,0.085,7.293c-0.26,2.997-0.673,6.067-0.467,9.576c0.443,7.465,2.002,14.009,8.621,12.166
				c0,0,29.549-19.911,28.923-31.771L225.185,146.341z"/>
		</g>
		<g>
			<path fill="#57485A" d="M201.551,215.278c0,2.012,1.642,3.646,3.662,3.646c2.013,0,3.657-1.634,3.657-3.646
				c0-2.016-1.645-3.659-3.657-3.659C203.192,211.619,201.551,213.263,201.551,215.278"/>
		</g>
		<g>
			<path fill="#57485A" d="M204.585,233.201c0,2.027,1.635,3.658,3.646,3.658c2.02,0,3.658-1.631,3.658-3.658
				c0-2.013-1.639-3.646-3.658-3.646C206.22,229.556,204.585,231.188,204.585,233.201"/>
		</g>
		<g>
			<path fill="#57485A" d="M205.855,250.034c0,2.013,1.632,3.646,3.659,3.646c2.019,0,3.653-1.634,3.653-3.646
				c0-2.014-1.635-3.659-3.653-3.659C207.487,246.375,205.855,248.021,205.855,250.034"/>
		</g>
		<g>
			<path fill="#BCBEC0" d="M145.202,53.194c0,0,12.906-19.802,46.068-15.468c0,0-5.274-7.687,1.141-14.941
				c6.318-7.16,15.573-9.283,15.573-9.283s13.641-4.909,21.861,3.021c7.974,7.687,2.324,20.857,2.324,20.857
				s-3.569,10.376-7.719,14.267c-4.138,3.879-6.252,2.479-6.252,2.479c6.343,10.179,8.817,21.056-6.554,50.914l-7.33-18.293
				c0,0-4.148-17.053-9.172-18.22c-5.031-1.168-16.205,0.076-16.205,0.076c5.635,6.123,14.559,11.452,14.559,11.452
				c-15.146-0.86-26.278-0.293-40.961-7.55l-3.026,26.825C149.51,99.332,127.417,83.998,145.202,53.194"/>
		</g>
		<g>
			<path fill="#57485A" d="M368.317,180.975c0,0,5.264-12.399,23.089-11.648l23.866,8.983c0,0,3.543,8.867-2.652,8.867
				c0,0-24.811-10.633-30.127-7.971c0,0-12.399,21.266-12.399,26.569L368.317,180.975z"/>
		</g>
	</g>
</g>
</svg>
