<svg xmlns="http://www.w3.org/2000/svg" width="57" height="43" viewBox="0 0 57 43">
  <path fill="#3395CF" d="M4.703,33.714 C11.125,32.203 14.651,27.796 14.398,21.752 C9.991,20.619 5.584,16.841 5.584,11.427 L5.584,11.175 C5.584,5.257 9.74,0.85 16.036,0.85 C23.086,0.85 27.242,6.264 27.242,14.952 L27.242,15.456 C27.242,24.647 24.471,31.447 19.812,36.105 C16.036,39.882 10.369,42.148 5.71,42.148 C2.31,42.148 0.925,40.134 0.925,37.868 C0.925,35.603 2.562,34.217 4.703,33.714 Z M33.537,33.714 C39.959,32.203 43.484,27.796 43.232,21.752 C38.826,20.619 34.418,16.841 34.418,11.427 L34.418,11.175 C34.418,5.257 38.574,0.85 44.869,0.85 C51.92,0.85 56.076,6.264 56.076,14.952 L56.076,15.456 C56.076,24.647 53.306,31.447 48.647,36.105 C44.87,39.882 39.203,42.148 34.544,42.148 C31.144,42.148 29.759,40.134 29.759,37.868 C29.759,35.603 31.396,34.217 33.537,33.714 Z"/>
</svg>
