<?xml version="1.0" encoding="utf-8"?>
<!-- Generator: Adobe Illustrator 16.0.0, SVG Export Plug-In . SVG Version: 6.00 Build 0)  -->
<!DOCTYPE svg PUBLIC "-//W3C//DTD SVG 1.1//EN" "http://www.w3.org/Graphics/SVG/1.1/DTD/svg11.dtd">
<svg version="1.1" id="EXPAND_1_" xmlns="http://www.w3.org/2000/svg" xmlns:xlink="http://www.w3.org/1999/xlink" x="0px" y="0px"
	 width="450px" height="500px" viewBox="0 0 450 500" enable-background="new 0 0 450 500" xml:space="preserve">
<g>
	<g>
		<path fill="#FCE2D3" d="M225.002,487.025c109.072,0,197.494-88.422,197.494-197.494c0-109.076-88.422-197.496-197.494-197.496
			c-109.074,0-197.496,88.42-197.496,197.496C27.506,398.604,115.928,487.025,225.002,487.025"/>
	</g>
</g>
<g>
	<defs>
		<path id="SVGID_1_" d="M225.002,487.025c109.072,0,197.494-88.422,197.494-197.494c0-49.782,0-289.531,0-289.531H27.506
			c0,0,0,180.455,0,289.531C27.506,398.604,115.928,487.025,225.002,487.025"/>
	</defs>
	<clipPath id="SVGID_2_">
		<use xlink:href="#SVGID_1_"  overflow="visible"/>
	</clipPath>
	<g clip-path="url(#SVGID_2_)">
		<g>
			<path fill="#EFAE9B" d="M144.982,190.315c0,0-14.196,99.424-14.127,118.181c0,0-3.101,19.938,27.756,1.585l24.147,29.318
				c0,0-45.844,26.922-62.855,13.496c0,0-24.841-14.041-12.55-75.208c0.221-1.11,0.221-2.256,0.349-3.398
				c4.465-39.737,11.812-72.271,11.812-72.271L144.982,190.315z"/>
		</g>
		<g>
			<path fill="#57485A" d="M226.434,142.679c0,0,10.945,9.483,18.417,7.344c0,0-9.876,16.896-19.74,6.384L226.434,142.679z"/>
		</g>
		<g>
			<path fill="#FFFFFF" d="M329.344,294.514c-13.664-22.921-44.572-53.706-44.572-53.706s-14.473-15.521-22.615-19.499
				c0.25-6.256-1.492-10.327-3.647-13.854c-9.692-11.53-12.733-9.194-12.733-9.194l-19.521,21.049l-22.46-9.056l-10.524,6.118
				l0.014-3.678c-3.332,3.492,2.624,6.14,0.069,10.05c-9.161,14.017-11.496,19.358-12.688,27.259
				c-1.712,11.471-0.163,29.594-1.435,32.484c-5.551,12.665-21.487,23.003-29.688,32.29c3.946,12.675,7.524,15.543,9.322,39.622
				l16.515-6.731l9.357,146.25h178.411c4.083-83.938-24.101-160.996-24.101-160.996C338.174,312.983,338.162,308,329.344,294.514"/>
		</g>
		<g>
			<path fill="#EFAE9B" d="M148.605,186.336c0,0,5.403,18.4-9.712,23.361c-15.116,4.973-3.263,0-3.263,0L148.605,186.336z"/>
		</g>
		<g>
			<path fill="#57485A" d="M225.11,156.406c26.13-19.892,31.641-47.671,29.466-72.847c-2.573-9.576-5.326-16.551-11.906-30.312
				c-4.608-9.748-18.175-22.366-18.175-22.366C164.41-13.09,124.344,58.37,124.344,58.37c-15.23,32.464,11.259,56.98,11.259,56.98
				l0.653-32.625c11.253,3.713,34.464,10.455,57.992,11.785c0,0-9.159-6.87-16.711-14.896l20.567-1.295l-2.364,10.523l17.029,96.475
				l9.592,24.379c1.557-8.754,3.117-15.809,4.228-16.652c1.655-1.238,1.828-9.842,1.701-16.688L225.11,156.406z"/>
		</g>
		<g>
			<path fill="#EFAE9B" d="M141.009,208.842c0,0-27.72,3.897-26.239-10.374l2.126-9.888l24.813,4.893L141.009,208.842z"/>
		</g>
		<g>
			<path fill="#57485A" d="M139.465,98.489c0,0,23.269,6.719,25.066,16.815c0,0-7.336,56.68-17.312,78.131
				c0,0-4.725,10.861-10.57,9.728c0,0-17.022-3.771-23.961-12.097c0,0,1.328-19.082,4.914-27.293c0,0,7.332-7.702,9.27-22.147
				c0,0,3.312-16.051,4.706-25.477l-0.034-10.201C131.543,105.948,132.961,96.731,139.465,98.489"/>
		</g>
		<g>
			<path fill="#EFAE9B" d="M246.088,198.457c-12.721-37.251-14.643-52.91-14.643-52.91l-1.027-7.506
				c10.87-4.197,6.926-17.267,6.926-17.267c-4.399-9.541-17.405-6.129-17.405-6.129c-2.646-21.869-18.981-47.658-18.981-47.658
				c-23.854,13.912-72.861,13.6-72.861,13.6l3.395,53.997c-3.562,4.868-3.758,10.107-0.393,13.033
				c2.348,2.048,5.505,2.73,5.505,2.73l14.71,35.688c10.977,28.287,37.193,18.006,37.193,18.006
				c3.944,6.106,0.354,22.771,6.442,57.697c1.282,7.379,2.637,8.13,4.104,48.076c0,0,6.021-46.134,8.385-51.788
				C209.647,252.73,246.088,231.913,246.088,198.457"/>
		</g>
		<g>
			<path fill="#57485A" d="M175.23,126.477c0.207,2.729,1.26,4.892,2.347,4.799c1.099-0.08,1.827-2.359,1.62-5.1
				c-0.203-2.74-1.262-4.893-2.359-4.812C175.75,121.456,175.026,123.735,175.23,126.477"/>
		</g>
		<g>
			<path fill="#57485A" d="M142.999,130.165c0,2.752,0.879,4.973,1.989,4.973c1.092,0,1.982-2.221,1.982-4.973
				c0-2.74-0.891-4.96-1.982-4.96C143.878,125.205,142.999,127.425,142.999,130.165"/>
		</g>
		<g>
			<path fill="#57485A" d="M171.929,182.204c-2.973,0-6.277-0.794-9.748-2.98c-0.633-0.397-0.822-1.233-0.424-1.865
				c0.398-0.633,1.236-0.822,1.865-0.424c10.785,6.791,19.489-1.9,19.855-2.274c0.52-0.531,1.377-0.547,1.912-0.023
				c0.534,0.521,0.547,1.374,0.027,1.91C185.342,176.625,179.804,182.204,171.929,182.204z"/>
		</g>
		<g>
			<path fill="#57485A" d="M126.205,79.175c0,0,9.778,23.755,77.347,6.049c0,0-22.263-2.162-28.427-5.122
				c0,0,28.104,1.457,36.812,0.463l12.114,0.936c0,0-6.054-4.66,0-7.459l-25.629-13.508l-31.681,1.399
				c0,0-20.969,0.463-22.366,1.861C142.975,65.193,126.205,79.175,126.205,79.175"/>
		</g>
		<g>
			<path fill="#EFAE9B" d="M118.302,154.186c0,0,12.327,6.869,12.085,10.964c0,0,0.41,4.983-6.262,2.244l-7.6-4.648
				C116.525,162.745,109.772,154.775,118.302,154.186"/>
		</g>
		<g>
			<path fill="#EFAE9B" d="M114.549,162.93c0,0,10.985,5.492,13.264,10.649c0,0,0.405,4.986-6.255,2.244l-7.601-4.648
				C113.957,171.175,107.39,165.821,114.549,162.93"/>
		</g>
		<g>
			<path fill="#EFAE9B" d="M113.328,172.101c0,0,8.662,5.111,10.52,9.297c0,0,0.329,4.061-5.095,1.827l-6.182-3.771
				C112.571,179.454,107.506,174.447,113.328,172.101"/>
		</g>
		<g>
			<path fill="#EFAE9B" d="M122.703,155.216c0,0,2.335,1.19,5.133,1.19c0,0,3.262-1.631,1.631-4.43c0,0-4.169-2.658-3.804-4.232
				l-3.423,0.266c0,0-2.004,1.481-2.332,3.967C119.908,151.977,119.596,154.222,122.703,155.216"/>
		</g>
		<g>
			<path fill="#799FD3" d="M139.714,173.452c0,0.764-0.625,1.4-1.399,1.4c-0.764,0-1.399-0.637-1.399-1.4
				c0-0.774,0.636-1.398,1.399-1.398C139.089,172.054,139.714,172.678,139.714,173.452"/>
		</g>
		<g>
			<path fill="#799FD3" d="M132.492,190.304c0,0.763-0.631,1.398-1.395,1.398c-0.779,0-1.41-0.636-1.41-1.398
				c0-0.775,0.631-1.401,1.41-1.401C131.861,188.902,132.492,189.528,132.492,190.304"/>
		</g>
		<g>
			<path fill="#799FD3" d="M129.809,180.38c0,0.765-0.619,1.4-1.395,1.4s-1.398-0.636-1.398-1.4c0-0.774,0.623-1.399,1.398-1.399
				S129.809,179.605,129.809,180.38"/>
		</g>
		<g>
			<path fill="#799FD3" d="M143.288,184.094c0,0.763-0.625,1.387-1.4,1.387c-0.77,0-1.399-0.624-1.399-1.387
				c0-0.775,0.63-1.399,1.399-1.399C142.663,182.694,143.288,183.318,143.288,184.094"/>
		</g>
		<g>
			<path fill="#799FD3" d="M141.576,179.039c0,0.774-0.624,1.399-1.4,1.399c-0.774,0-1.394-0.625-1.394-1.399
				c0-0.764,0.619-1.399,1.394-1.399C140.952,177.64,141.576,178.275,141.576,179.039"/>
		</g>
		<g>
			<path fill="#799FD3" d="M136.452,182.462c0,0.763-0.631,1.388-1.4,1.388c-0.769,0-1.397-0.625-1.397-1.388
				c0-0.775,0.629-1.399,1.397-1.399C135.821,181.062,136.452,181.687,136.452,182.462"/>
		</g>
		<g>
			<path fill="#799FD3" d="M134.741,176.715c0,0.764-0.624,1.398-1.394,1.398s-1.405-0.635-1.405-1.398
				c0-0.776,0.636-1.399,1.405-1.399S134.741,175.938,134.741,176.715"/>
		</g>
		<g>
			<path fill="#799FD3" d="M137.62,188.442c0,0.762-0.63,1.396-1.398,1.396c-0.775,0-1.399-0.635-1.399-1.396
				c0-0.777,0.624-1.4,1.399-1.4C136.99,187.042,137.62,187.665,137.62,188.442"/>
		</g>
		<g>
			<path fill="#799FD3" d="M130.855,184.938c0,0.774-0.62,1.398-1.396,1.398c-0.767,0-1.392-0.624-1.392-1.398
				c0-0.764,0.625-1.388,1.392-1.388C130.235,183.55,130.855,184.174,130.855,184.938"/>
		</g>
		<g>
			<path fill="#EFAE9B" d="M109.148,419.08c-0.024,0-0.059,0-0.094-0.012C109.09,419.08,109.124,419.08,109.148,419.08"/>
		</g>
		<g>
			<path fill="#EFAE9B" d="M109.055,419.068c-0.116-0.022-0.221-0.047-0.336-0.058C108.83,419.021,108.938,419.046,109.055,419.068"
				/>
		</g>
		<g>
			<path fill="#EFAE9B" d="M110.285,419.288c-0.351-0.058-0.732-0.127-1.137-0.208C109.518,419.15,109.899,419.22,110.285,419.288"
				/>
		</g>
		<g>
			<path fill="#EFAE9B" d="M108.476,418.965c-0.039-0.012-0.079-0.022-0.126-0.022C108.396,418.942,108.437,418.953,108.476,418.965
				"/>
		</g>
		<g>
			<path fill="#EFAE9B" d="M108.719,418.999c-0.08-0.012-0.16-0.021-0.243-0.034C108.559,418.978,108.639,418.987,108.719,418.999"
				/>
		</g>
		<g>
			<path fill="#EFAE9B" d="M112.05,419.612c-0.22-0.046-0.462-0.094-0.706-0.127C111.577,419.519,111.82,419.566,112.05,419.612"/>
		</g>
		<g>
			<path fill="#EFAE9B" d="M113.328,419.844c-0.266-0.046-0.555-0.104-0.884-0.161C112.757,419.739,113.044,419.798,113.328,419.844
				"/>
		</g>
		<g>
			<path fill="#EFAE9B" d="M110.755,419.381c-0.156-0.035-0.312-0.057-0.474-0.081C110.443,419.324,110.604,419.346,110.755,419.381
				"/>
		</g>
		<g>
			<path fill="#EFAE9B" d="M108.355,418.942c-0.053-0.012-0.111-0.023-0.157-0.035C108.244,418.919,108.303,418.931,108.355,418.942
				"/>
		</g>
		<g>
			<path fill="#EFAE9B" d="M111.138,419.439c-0.128-0.022-0.248-0.036-0.383-0.059C110.881,419.403,111.01,419.417,111.138,419.439"
				/>
		</g>
		<g>
			<path fill="#EFAE9B" d="M111.338,419.485c-0.068-0.012-0.131-0.034-0.2-0.046C111.207,419.451,111.27,419.474,111.338,419.485"/>
		</g>
		<g>
			<path fill="#EFAE9B" d="M112.444,419.683c-0.128-0.023-0.255-0.047-0.395-0.07C112.189,419.636,112.322,419.659,112.444,419.683"
				/>
		</g>
		<g>
			<path fill="#EFAE9B" d="M107.008,418.687c-0.058-0.012-0.121-0.012-0.186-0.022C106.869,418.664,106.928,418.675,107.008,418.687
				"/>
		</g>
		<g>
			<path fill="#EFAE9B" d="M107.279,418.745c-0.109-0.023-0.196-0.046-0.271-0.059C107.094,418.711,107.18,418.722,107.279,418.745"
				/>
		</g>
		<g>
			<path fill="#EFAE9B" d="M106.719,418.642h-0.006C106.713,418.642,106.713,418.642,106.719,418.642"/>
		</g>
		<g>
			<path fill="#EFAE9B" d="M107.354,418.758c-0.021,0-0.045,0-0.068-0.013C107.309,418.745,107.332,418.758,107.354,418.758"/>
		</g>
		<g>
			<path fill="#EFAE9B" d="M106.822,418.664c-0.052-0.012-0.092-0.022-0.104-0.022C106.755,418.652,106.783,418.652,106.822,418.664
				"/>
		</g>
		<g>
			<path fill="#EFAE9B" d="M107.494,418.78c-0.046-0.012-0.094-0.012-0.141-0.022C107.407,418.769,107.448,418.769,107.494,418.78"
				/>
		</g>
		<g>
			<path fill="#EFAE9B" d="M108.129,418.895c-0.039,0-0.067-0.01-0.104-0.01C108.062,418.885,108.09,418.895,108.129,418.895"/>
		</g>
		<g>
			<path fill="#EFAE9B" d="M108.025,418.885c-0.059-0.013-0.115-0.024-0.173-0.036C107.91,418.86,107.963,418.872,108.025,418.885"
				/>
		</g>
		<g>
			<path fill="#EFAE9B" d="M107.552,418.792c-0.022,0-0.04,0-0.052-0.012C107.512,418.792,107.529,418.792,107.552,418.792"/>
		</g>
		<g>
			<path fill="#EFAE9B" d="M108.194,418.907c-0.024,0-0.046-0.013-0.065-0.013C108.148,418.895,108.17,418.907,108.194,418.907"/>
		</g>
		<g>
			<path fill="#EFAE9B" d="M107.853,418.849c-0.104-0.022-0.208-0.034-0.301-0.057C107.65,418.814,107.76,418.826,107.853,418.849"
				/>
		</g>
		<g>
			<path fill="#EFAE9B" d="M177.843,410.245l-25.778-4.188c0,0-16.578-4.44-18.017-6.835c0,0-8.998-10.685-11.397-10.685h-2.405
				c0,0-3.36,0.959-2.401,5.285l4.32,6.476c0,0-0.826-0.103-2.111-0.277l0.896-0.023c0,0-3-0.357-6.904-0.729
				c-4.226-0.497-8.661-0.925-9.39-0.682c-1.937-0.093-3.725-0.128-5.146-0.069c0,0-5.395,3.238,1.447,6.834
				c0,0,12.46,2.625,12.594,3.99c0.133,1.365-6.311,1.526-6.311,1.526s-4.846,0.244-6.648,0.244c0,0-10.211,4.555,6.117,7.528
				c0,0,4.476,0.404,6.742,1.225c-0.045-0.011-0.08-0.011-0.121-0.022c0.041,0.012,0.076,0.012,0.121,0.022
				c2.188,0.788,2.295,1.944-5.654,3.482c-0.012,0-0.023,0-0.023,0c0.012,0,0.023,0,0.023,0s-11.524,1.803-6.125,5.39
				c0,0,3.222,2.394,13.1,1.294c0,0,7.516-0.208,4.764,1.932c0,0-7.015,4.464-10.316,5.77c0,0-7.205,7.68,10.316,3.83
				c5.84-0.765,21.775-2.893,25.674-4.07c0,0,30.803-2.141,34.643-1.655L177.843,410.245z M106.707,423.556
				C106.668,423.567,106.668,423.567,106.707,423.556 M107.379,423.428c0.04-0.01,0.069-0.01,0.104-0.022
				C107.448,423.418,107.413,423.418,107.379,423.428 M107.043,423.499c0.098-0.023,0.195-0.047,0.295-0.059
				C107.228,423.452,107.123,423.476,107.043,423.499 M106.742,423.545c0,0,0.013,0,0.022,0
				C106.755,423.545,106.742,423.545,106.742,423.545 M114.167,419.995c-0.11-0.013-0.22-0.036-0.347-0.059
				C113.947,419.959,114.057,419.982,114.167,419.995 M114.561,420.063c-0.035,0-0.064-0.013-0.1-0.013
				C114.496,420.051,114.525,420.063,114.561,420.063 M114.849,420.109c-0.058,0-0.115-0.011-0.173-0.022
				C114.74,420.099,114.791,420.109,114.849,420.109 M115.538,420.249h0.011H115.538 M115.464,420.236c0.021,0,0.039,0,0.048,0
				C115.503,420.236,115.484,420.236,115.464,420.236 M114.919,420.133c0.161,0.035,0.284,0.046,0.38,0.069
				C115.203,420.179,115.068,420.168,114.919,420.133"/>
		</g>
		<g>
			<path fill="#57485A" d="M209.641,267.592c0,0,3.625,11.981,9.829,12.535c0,0,23.368,0.417,38.196-52.169
				c0,0-5.993,53.314-36.072,57.293C221.594,285.251,212.028,283.412,209.641,267.592"/>
		</g>
		<g>
			<path fill="#57485A" d="M212.399,284.973c0,1.377-1.11,2.487-2.48,2.487c-1.372,0-2.487-1.11-2.487-2.487
				c0-1.364,1.115-2.486,2.487-2.486C211.289,282.486,212.399,283.608,212.399,284.973"/>
		</g>
		<g>
			<path fill="#57485A" d="M209.912,297.638c0,1.376-1.109,2.474-2.475,2.474c-1.375,0-2.486-1.098-2.486-2.474
				c0-1.377,1.111-2.486,2.486-2.486C208.803,295.151,209.912,296.261,209.912,297.638"/>
		</g>
		<g>
			<path fill="#57485A" d="M207.432,312.29c0,1.377-1.116,2.486-2.48,2.486c-1.375,0-2.486-1.109-2.486-2.486
				c0-1.364,1.111-2.475,2.486-2.475C206.315,309.815,207.432,310.926,207.432,312.29"/>
		</g>
		<g>
			<path fill="#57485A" d="M193.952,268.991c0,0-10.083,22.401-11.263,19.868l-1.214-11.426c0,0-3.482,14.906,4.001,14.052
				C185.477,291.485,193.952,281.146,193.952,268.991"/>
		</g>
		<g>
			<path fill="#EFAE9B" d="M177.849,410.245c0,0,72.646-7.562,90.299-17.867c0,0,17.667,20.146,41.207,27.234
				c0,0-58.652,23.036-129.498,16.226L177.849,410.245z"/>
		</g>
		<g>
			<path fill="#57485A" d="M268.594,379.69c0,0,19.313,27.05,50.214,35.041l4.151-2.208c0,0-38.365-12.964-54.365-35.343V379.69z"/>
		</g>
		<g>
			<path fill="#57485A" d="M152.701,314.776c0,0,8.883,20.586,8.118,36.766h2.076c0,0-3.821-31.018-8.68-37.621L152.701,314.776z"/>
		</g>
		<g>
			<polygon fill="#57485A" points="177.22,436.983 169.533,436.867 169.979,408.002 177.663,408.116 			"/>
		</g>
		<g>
			<path fill="#57485A" d="M182.145,420.376c1.158,4.74-1.752,9.518-6.499,10.674c-4.741,1.158-9.522-1.757-10.674-6.486
				c-1.157-4.754,1.757-9.53,6.5-10.688C176.213,412.72,180.988,415.634,182.145,420.376"/>
		</g>
		<g>
			<path fill="#FFFFFF" d="M179.912,420.654c0.915,3.758-1.393,7.551-5.151,8.465c-3.758,0.913-7.547-1.399-8.46-5.147
				c-0.917-3.77,1.39-7.562,5.146-8.477C175.206,414.581,178.994,416.895,179.912,420.654"/>
		</g>
		<g>
			<polygon fill="#57485A" points="169.36,418.445 172.986,422.654 173.438,422.261 			"/>
		</g>
		<g>
			<polygon fill="#57485A" points="172.93,417.936 172.54,422.075 173.564,422.075 			"/>
		</g>
		<g>
			<path fill="#57485A" d="M173.858,422.481c0,0.439-0.357,0.797-0.802,0.797c-0.453,0-0.81-0.357-0.81-0.797
				c0-0.452,0.356-0.811,0.81-0.811C173.501,421.671,173.858,422.029,173.858,422.481"/>
		</g>
	</g>
</g>
</svg>
